<?xml version="1.0" encoding="UTF-8"?>
<svg xmlns="http://www.w3.org/2000/svg" xmlns:xlink="http://www.w3.org/1999/xlink" width="437.474" height="247.31" viewBox="0 0 437.474 247.31">
<defs>
<g>
<g id="glyph-0-0">
<path d="M 0.625 0 L 2.578125 0 C 3.859375 0 4.640625 -0.953125 4.640625 -2.53125 C 4.640625 -4.109375 3.859375 -5.0625 2.578125 -5.0625 L 0.625 -5.0625 Z M 1.265625 -0.5625 L 1.265625 -4.5 L 2.46875 -4.5 C 3.46875 -4.5 3.984375 -3.828125 3.984375 -2.53125 C 3.984375 -1.25 3.46875 -0.5625 2.46875 -0.5625 Z M 1.265625 -0.5625 "/>
</g>
<g id="glyph-0-1">
<path d="M 1.34375 -5.0625 L 0.703125 -5.0625 L 0.703125 0 L 1.34375 0 Z M 1.34375 -5.0625 "/>
</g>
<g id="glyph-0-2">
<path d="M 4.140625 -3.578125 C 4.140625 -4.578125 3.453125 -5.15625 2.28125 -5.15625 C 1.171875 -5.15625 0.484375 -4.578125 0.484375 -3.671875 C 0.484375 -3.046875 0.8125 -2.65625 1.484375 -2.484375 L 2.734375 -2.15625 C 3.375 -1.984375 3.671875 -1.71875 3.671875 -1.328125 C 3.671875 -1.0625 3.53125 -0.78125 3.3125 -0.625 C 3.109375 -0.484375 2.78125 -0.40625 2.375 -0.40625 C 1.828125 -0.40625 1.453125 -0.546875 1.203125 -0.828125 C 1.015625 -1.0625 0.9375 -1.296875 0.953125 -1.609375 L 0.328125 -1.609375 C 0.34375 -1.140625 0.4375 -0.84375 0.625 -0.5625 C 0.984375 -0.09375 1.5625 0.15625 2.34375 0.15625 C 2.9375 0.15625 3.4375 0.015625 3.765625 -0.234375 C 4.109375 -0.5 4.3125 -0.953125 4.3125 -1.390625 C 4.3125 -2.015625 3.921875 -2.46875 3.234375 -2.65625 L 1.96875 -3 C 1.359375 -3.171875 1.140625 -3.359375 1.140625 -3.75 C 1.140625 -4.265625 1.578125 -4.609375 2.265625 -4.609375 C 3.078125 -4.609375 3.53125 -4.234375 3.53125 -3.578125 Z M 4.140625 -3.578125 "/>
</g>
<g id="glyph-0-3">
<path d="M 1.28125 -2.15625 L 2.875 -2.15625 C 3.265625 -2.15625 3.578125 -2.265625 3.859375 -2.515625 C 4.15625 -2.78125 4.296875 -3.109375 4.296875 -3.578125 C 4.296875 -4.53125 3.734375 -5.0625 2.71875 -5.0625 L 0.625 -5.0625 L 0.625 0 L 1.28125 0 Z M 1.28125 -2.71875 L 1.28125 -4.5 L 2.625 -4.5 C 3.25 -4.5 3.609375 -4.171875 3.609375 -3.609375 C 3.609375 -3.046875 3.25 -2.71875 2.625 -2.71875 Z M 1.28125 -2.71875 "/>
</g>
<g id="glyph-0-4">
<path d="M 2.71875 -2.59375 C 3.21875 -2.90625 3.390625 -3.15625 3.390625 -3.609375 C 3.390625 -4.390625 2.78125 -4.9375 1.90625 -4.9375 C 1.046875 -4.9375 0.4375 -4.390625 0.4375 -3.609375 C 0.4375 -3.15625 0.59375 -2.90625 1.09375 -2.59375 C 0.53125 -2.328125 0.25 -1.90625 0.25 -1.375 C 0.25 -0.46875 0.9375 0.15625 1.90625 0.15625 C 2.890625 0.15625 3.5625 -0.46875 3.5625 -1.359375 C 3.5625 -1.90625 3.28125 -2.328125 2.71875 -2.59375 Z M 1.90625 -4.390625 C 2.4375 -4.390625 2.765625 -4.078125 2.765625 -3.609375 C 2.765625 -3.140625 2.421875 -2.84375 1.90625 -2.84375 C 1.390625 -2.84375 1.0625 -3.140625 1.0625 -3.609375 C 1.0625 -4.078125 1.390625 -4.390625 1.90625 -4.390625 Z M 1.90625 -2.328125 C 2.53125 -2.328125 2.9375 -1.9375 2.9375 -1.359375 C 2.9375 -0.765625 2.53125 -0.375 1.890625 -0.375 C 1.296875 -0.375 0.890625 -0.78125 0.890625 -1.359375 C 0.890625 -1.9375 1.296875 -2.328125 1.90625 -2.328125 Z M 1.90625 -2.328125 "/>
</g>
<g id="glyph-0-5">
<path d="M 1.796875 -3.515625 L 1.796875 0 L 2.40625 0 L 2.40625 -4.9375 L 2.015625 -4.9375 C 1.796875 -4.171875 1.65625 -4.0625 0.703125 -3.953125 L 0.703125 -3.515625 Z M 1.796875 -3.515625 "/>
</g>
<g id="glyph-0-6">
<path d="M 3.46875 -3.640625 C 3.34375 -4.453125 2.8125 -4.9375 2.0625 -4.9375 C 1.515625 -4.9375 1.03125 -4.671875 0.75 -4.234375 C 0.4375 -3.75 0.296875 -3.140625 0.296875 -2.25 C 0.296875 -1.421875 0.421875 -0.890625 0.71875 -0.453125 C 0.984375 -0.0625 1.40625 0.15625 1.953125 0.15625 C 2.890625 0.15625 3.5625 -0.53125 3.5625 -1.5 C 3.5625 -2.421875 2.9375 -3.0625 2.0625 -3.0625 C 1.578125 -3.0625 1.1875 -2.875 0.921875 -2.515625 C 0.9375 -3.71875 1.328125 -4.390625 2.015625 -4.390625 C 2.453125 -4.390625 2.75 -4.109375 2.84375 -3.640625 Z M 1.984375 -2.53125 C 2.578125 -2.53125 2.9375 -2.109375 2.9375 -1.453125 C 2.9375 -0.828125 2.53125 -0.375 1.953125 -0.375 C 1.390625 -0.375 0.953125 -0.859375 0.953125 -1.484375 C 0.953125 -2.09375 1.375 -2.53125 1.984375 -2.53125 Z M 1.984375 -2.53125 "/>
</g>
<g id="glyph-0-7">
<path d="M 1.53125 -2.265625 L 1.875 -2.265625 C 2.546875 -2.265625 2.890625 -1.953125 2.890625 -1.375 C 2.890625 -0.75 2.515625 -0.375 1.875 -0.375 C 1.203125 -0.375 0.875 -0.71875 0.828125 -1.4375 L 0.21875 -1.4375 C 0.25 -1.03125 0.3125 -0.78125 0.4375 -0.5625 C 0.6875 -0.078125 1.171875 0.15625 1.84375 0.15625 C 2.859375 0.15625 3.515625 -0.4375 3.515625 -1.375 C 3.515625 -2 3.28125 -2.34375 2.6875 -2.546875 C 3.140625 -2.734375 3.375 -3.078125 3.375 -3.578125 C 3.375 -4.421875 2.8125 -4.9375 1.875 -4.9375 C 0.875 -4.9375 0.34375 -4.390625 0.328125 -3.34375 L 0.9375 -3.34375 C 0.953125 -3.640625 0.96875 -3.796875 1.046875 -3.953125 C 1.1875 -4.234375 1.5 -4.390625 1.875 -4.390625 C 2.421875 -4.390625 2.75 -4.078125 2.75 -3.546875 C 2.75 -3.203125 2.625 -3 2.34375 -2.890625 C 2.1875 -2.8125 1.96875 -2.78125 1.53125 -2.78125 Z M 1.53125 -2.265625 "/>
</g>
<g id="glyph-0-8">
<path d="M 3.515625 -0.609375 L 0.921875 -0.609375 C 0.984375 -1.015625 1.203125 -1.265625 1.8125 -1.625 L 2.515625 -2 C 3.203125 -2.375 3.546875 -2.875 3.546875 -3.484375 C 3.546875 -3.890625 3.390625 -4.28125 3.09375 -4.546875 C 2.796875 -4.8125 2.4375 -4.9375 1.96875 -4.9375 C 1.34375 -4.9375 0.890625 -4.703125 0.609375 -4.296875 C 0.4375 -4.03125 0.359375 -3.71875 0.34375 -3.21875 L 0.953125 -3.21875 C 0.984375 -3.546875 1.015625 -3.75 1.109375 -3.921875 C 1.265625 -4.21875 1.578125 -4.390625 1.953125 -4.390625 C 2.515625 -4.390625 2.921875 -4 2.921875 -3.46875 C 2.921875 -3.078125 2.703125 -2.75 2.265625 -2.5 L 1.625 -2.140625 C 0.59375 -1.546875 0.296875 -1.078125 0.234375 0 L 3.515625 0 Z M 3.515625 -0.609375 "/>
</g>
<g id="glyph-0-9">
<path d="M 2.28125 -1.1875 L 2.28125 0 L 2.890625 0 L 2.890625 -1.1875 L 3.609375 -1.1875 L 3.609375 -1.734375 L 2.890625 -1.734375 L 2.890625 -4.9375 L 2.4375 -4.9375 L 0.1875 -1.828125 L 0.1875 -1.1875 Z M 2.28125 -1.734375 L 0.734375 -1.734375 L 2.28125 -3.890625 Z M 2.28125 -1.734375 "/>
</g>
<g id="glyph-0-10">
<path d="M 0.375 1.515625 L 0.953125 1.515625 L 0.953125 -0.375 C 1.265625 0 1.609375 0.15625 2.078125 0.15625 C 3.015625 0.15625 3.640625 -0.59375 3.640625 -1.765625 C 3.640625 -2.984375 3.03125 -3.75 2.078125 -3.75 C 1.578125 -3.75 1.1875 -3.53125 0.90625 -3.09375 L 0.90625 -3.640625 L 0.375 -3.640625 Z M 1.96875 -3.203125 C 2.609375 -3.203125 3.03125 -2.640625 3.03125 -1.765625 C 3.03125 -0.953125 2.609375 -0.375 1.96875 -0.375 C 1.359375 -0.375 0.953125 -0.9375 0.953125 -1.796875 C 0.953125 -2.65625 1.359375 -3.203125 1.96875 -3.203125 Z M 1.96875 -3.203125 "/>
</g>
<g id="glyph-0-11">
<path d="M 1.0625 -5.0625 L 0.46875 -5.0625 L 0.46875 0 L 1.0625 0 Z M 1.0625 -5.0625 "/>
</g>
<g id="glyph-0-12">
<path d="M 3.71875 -0.34375 C 3.65625 -0.328125 3.625 -0.328125 3.59375 -0.328125 C 3.390625 -0.328125 3.28125 -0.4375 3.28125 -0.609375 L 3.28125 -2.75 C 3.28125 -3.40625 2.8125 -3.75 1.90625 -3.75 C 1.390625 -3.75 0.953125 -3.59375 0.703125 -3.328125 C 0.53125 -3.140625 0.46875 -2.921875 0.453125 -2.5625 L 1.03125 -2.5625 C 1.078125 -3.015625 1.34375 -3.21875 1.890625 -3.21875 C 2.40625 -3.21875 2.703125 -3.015625 2.703125 -2.671875 L 2.703125 -2.515625 C 2.703125 -2.28125 2.5625 -2.171875 2.09375 -2.109375 C 1.28125 -2.015625 1.15625 -1.984375 0.9375 -1.890625 C 0.5 -1.71875 0.296875 -1.390625 0.296875 -0.921875 C 0.296875 -0.25 0.75 0.15625 1.484375 0.15625 C 1.953125 0.15625 2.3125 0 2.71875 -0.375 C 2.765625 0 2.953125 0.15625 3.328125 0.15625 C 3.4375 0.15625 3.53125 0.140625 3.71875 0.09375 Z M 2.703125 -1.140625 C 2.703125 -0.953125 2.65625 -0.828125 2.46875 -0.671875 C 2.234375 -0.453125 1.953125 -0.34375 1.609375 -0.34375 C 1.15625 -0.34375 0.890625 -0.5625 0.890625 -0.9375 C 0.890625 -1.3125 1.15625 -1.515625 1.765625 -1.59375 C 2.390625 -1.6875 2.515625 -1.703125 2.703125 -1.796875 Z M 2.703125 -1.140625 "/>
</g>
<g id="glyph-0-13">
<path d="M 1.046875 -3.640625 L 0.46875 -3.640625 L 0.46875 0 L 1.046875 0 Z M 1.046875 -5.0625 L 0.453125 -5.0625 L 0.453125 -4.34375 L 1.046875 -4.34375 Z M 1.046875 -5.0625 "/>
</g>
<g id="glyph-0-14">
<path d="M 0.484375 -3.640625 L 0.484375 0 L 1.078125 0 L 1.078125 -2.015625 C 1.078125 -2.75 1.453125 -3.234375 2.0625 -3.234375 C 2.515625 -3.234375 2.8125 -2.96875 2.8125 -2.53125 L 2.8125 0 L 3.390625 0 L 3.390625 -2.75 C 3.390625 -3.359375 2.9375 -3.75 2.234375 -3.75 C 1.6875 -3.75 1.34375 -3.546875 1.015625 -3.03125 L 1.015625 -3.640625 Z M 0.484375 -3.640625 "/>
</g>
<g id="glyph-1-0">
<path d="M 2.375 -2.96875 C 2.359375 -3.25 2.3125 -3.390625 2.21875 -3.5625 C 2.0625 -3.875 1.75 -4.046875 1.40625 -4.046875 C 0.640625 -4.046875 0.171875 -3.234375 0.171875 -1.859375 C 0.171875 -0.59375 0.59375 0.109375 1.34375 0.109375 C 1.6875 0.109375 1.921875 0 2.140625 -0.28125 C 2.359375 -0.5625 2.453125 -0.875 2.453125 -1.28125 C 2.453125 -2.046875 2.015625 -2.578125 1.390625 -2.578125 C 1.03125 -2.578125 0.796875 -2.421875 0.609375 -2.0625 C 0.625 -2.578125 0.6875 -2.875 0.8125 -3.140625 C 0.96875 -3.453125 1.15625 -3.609375 1.40625 -3.609375 C 1.71875 -3.609375 1.890625 -3.40625 1.96875 -2.96875 Z M 1.359375 -2.140625 C 1.765625 -2.140625 2.015625 -1.78125 2.015625 -1.25 C 2.015625 -0.71875 1.75 -0.34375 1.359375 -0.34375 C 0.953125 -0.34375 0.671875 -0.71875 0.671875 -1.25 C 0.671875 -1.796875 0.9375 -2.140625 1.359375 -2.140625 Z M 1.359375 -2.140625 "/>
</g>
<g id="glyph-1-1">
<path d="M 1.328125 -4.046875 C 0.59375 -4.046875 0.171875 -3.3125 0.171875 -1.984375 C 0.171875 -0.640625 0.59375 0.109375 1.3125 0.109375 C 2.046875 0.109375 2.453125 -0.640625 2.453125 -1.96875 C 2.453125 -3.28125 2.046875 -4.046875 1.328125 -4.046875 Z M 1.328125 -3.609375 C 1.765625 -3.609375 2.015625 -3.03125 2.015625 -1.984375 C 2.015625 -0.90625 1.765625 -0.34375 1.3125 -0.34375 C 0.859375 -0.34375 0.609375 -0.90625 0.609375 -1.984375 C 0.609375 -3.046875 0.859375 -3.609375 1.328125 -3.609375 Z M 1.328125 -3.609375 "/>
</g>
<g id="glyph-2-0">
<path d="M 2.234375 -4.25 L 0.953125 -3.859375 C 0.828125 -3.8125 0.796875 -3.78125 0.796875 -3.703125 C 0.796875 -3.625 0.875 -3.5625 0.9375 -3.5625 C 0.953125 -3.5625 1 -3.578125 1.03125 -3.578125 L 1.953125 -3.875 L 1.953125 -0.28125 L 0.984375 -0.28125 C 0.84375 -0.28125 0.78125 -0.234375 0.78125 -0.140625 C 0.78125 -0.046875 0.859375 0 0.984375 0 L 3.203125 0 C 3.328125 0 3.390625 -0.046875 3.390625 -0.140625 C 3.390625 -0.234375 3.328125 -0.28125 3.203125 -0.28125 L 2.234375 -0.28125 Z M 2.234375 -4.25 "/>
</g>
<g id="glyph-2-1">
<path d="M 3.390625 -2.4375 C 3.390625 -3.546875 2.859375 -4.296875 2.09375 -4.296875 C 1.3125 -4.296875 0.78125 -3.546875 0.78125 -2.4375 L 0.78125 -1.75 C 0.78125 -0.640625 1.3125 0.109375 2.09375 0.109375 C 2.859375 0.109375 3.390625 -0.640625 3.390625 -1.75 Z M 1.078125 -2.40625 C 1.078125 -2.84375 1.203125 -3.328125 1.40625 -3.640625 C 1.5625 -3.875 1.796875 -4.015625 2.09375 -4.015625 C 2.375 -4.015625 2.609375 -3.875 2.765625 -3.640625 C 2.96875 -3.328125 3.09375 -2.84375 3.09375 -2.40625 L 3.09375 -1.78125 C 3.09375 -1.34375 2.96875 -0.875 2.765625 -0.546875 C 2.609375 -0.3125 2.375 -0.1875 2.09375 -0.1875 C 1.796875 -0.1875 1.5625 -0.3125 1.40625 -0.546875 C 1.203125 -0.875 1.078125 -1.34375 1.078125 -1.78125 Z M 1.078125 -2.40625 "/>
</g>
</g>
</defs>
<g fill="rgb(0%, 0%, 0%)" fill-opacity="1">
<use xlink:href="#glyph-0-0" x="206.10624" y="40.174911"/>
<use xlink:href="#glyph-0-1" x="211.127315" y="40.174911"/>
<use xlink:href="#glyph-0-2" x="213.060637" y="40.174911"/>
<use xlink:href="#glyph-0-3" x="217.69922" y="40.174911"/>
<use xlink:href="#glyph-0-4" x="222.337803" y="40.174911"/>
<use xlink:href="#glyph-0-2" x="226.204448" y="40.174911"/>
</g>
<g fill="rgb(0%, 0%, 0%)" fill-opacity="1">
<use xlink:href="#glyph-1-0" x="198.420683" y="10.066913"/>
</g>
<path fill-rule="nonzero" fill="rgb(85.998535%, 85.998535%, 85.998535%)" fill-opacity="1" stroke-width="0.59776" stroke-linecap="butt" stroke-linejoin="miter" stroke="rgb(17.999268%, 17.999268%, 17.999268%)" stroke-opacity="1" stroke-miterlimit="10" d="M -0.00136153 -0.000413489 L -0.00136153 15.840535 L 43.851116 15.840535 L 43.851116 -0.000413489 Z M -0.00136153 -0.000413489 " transform="matrix(0.997218, 0, 0, -0.997218, 196.610733, 29.023025)"/>
<g fill="rgb(0%, 0%, 0%)" fill-opacity="1">
<use xlink:href="#glyph-2-0" x="203.870478" y="23.294009"/>
<use xlink:href="#glyph-2-0" x="208.043116" y="23.294009"/>
<use xlink:href="#glyph-2-1" x="212.215754" y="23.294009"/>
<use xlink:href="#glyph-2-1" x="216.388393" y="23.294009"/>
<use xlink:href="#glyph-2-0" x="220.561031" y="23.294009"/>
<use xlink:href="#glyph-2-1" x="224.733669" y="23.294009"/>
<use xlink:href="#glyph-2-1" x="228.906307" y="23.294009"/>
</g>
<g fill="rgb(0%, 0%, 0%)" fill-opacity="1">
<use xlink:href="#glyph-1-1" x="235.902109" y="10.066913"/>
</g>
<g fill="rgb(0%, 0%, 0%)" fill-opacity="1">
<use xlink:href="#glyph-0-0" x="204.173632" y="89.142291"/>
<use xlink:href="#glyph-0-1" x="209.194707" y="89.142291"/>
<use xlink:href="#glyph-0-2" x="211.128029" y="89.142291"/>
<use xlink:href="#glyph-0-3" x="215.766612" y="89.142291"/>
<use xlink:href="#glyph-0-5" x="220.405195" y="89.142291"/>
<use xlink:href="#glyph-0-6" x="224.27184" y="89.142291"/>
<use xlink:href="#glyph-0-2" x="228.138484" y="89.142291"/>
</g>
<g fill="rgb(0%, 0%, 0%)" fill-opacity="1">
<use xlink:href="#glyph-1-0" x="198.420683" y="59.034293"/>
</g>
<path fill-rule="nonzero" fill="rgb(85.998535%, 85.998535%, 85.998535%)" fill-opacity="1" stroke-width="0.59776" stroke-linecap="butt" stroke-linejoin="miter" stroke="rgb(17.999268%, 17.999268%, 17.999268%)" stroke-opacity="1" stroke-miterlimit="10" d="M -0.00136153 -49.105787 L -0.00136153 -33.264839 L 43.851116 -33.264839 L 43.851116 -49.105787 Z M -0.00136153 -49.105787 " transform="matrix(0.997218, 0, 0, -0.997218, 196.610733, 29.023025)"/>
<g fill="rgb(0%, 0%, 0%)" fill-opacity="1">
<use xlink:href="#glyph-2-0" x="203.870478" y="72.262386"/>
<use xlink:href="#glyph-2-0" x="208.043116" y="72.262386"/>
<use xlink:href="#glyph-2-1" x="212.215754" y="72.262386"/>
<use xlink:href="#glyph-2-1" x="216.388393" y="72.262386"/>
<use xlink:href="#glyph-2-0" x="220.561031" y="72.262386"/>
<use xlink:href="#glyph-2-1" x="224.733669" y="72.262386"/>
<use xlink:href="#glyph-2-0" x="228.906307" y="72.262386"/>
</g>
<g fill="rgb(0%, 0%, 0%)" fill-opacity="1">
<use xlink:href="#glyph-1-1" x="235.902109" y="59.034293"/>
</g>
<g fill="rgb(0%, 0%, 0%)" fill-opacity="1">
<use xlink:href="#glyph-0-0" x="204.173632" y="138.110668"/>
<use xlink:href="#glyph-0-1" x="209.194707" y="138.110668"/>
<use xlink:href="#glyph-0-2" x="211.128029" y="138.110668"/>
<use xlink:href="#glyph-0-3" x="215.766612" y="138.110668"/>
<use xlink:href="#glyph-0-7" x="220.405195" y="138.110668"/>
<use xlink:href="#glyph-0-8" x="224.27184" y="138.110668"/>
<use xlink:href="#glyph-0-2" x="228.138484" y="138.110668"/>
</g>
<g fill="rgb(0%, 0%, 0%)" fill-opacity="1">
<use xlink:href="#glyph-1-0" x="198.420683" y="108.001673"/>
</g>
<path fill-rule="nonzero" fill="rgb(85.998535%, 85.998535%, 85.998535%)" fill-opacity="1" stroke-width="0.59776" stroke-linecap="butt" stroke-linejoin="miter" stroke="rgb(17.999268%, 17.999268%, 17.999268%)" stroke-opacity="1" stroke-miterlimit="10" d="M -0.00136153 -98.211161 L -0.00136153 -82.370213 L 43.851116 -82.370213 L 43.851116 -98.211161 Z M -0.00136153 -98.211161 " transform="matrix(0.997218, 0, 0, -0.997218, 196.610733, 29.023025)"/>
<g fill="rgb(0%, 0%, 0%)" fill-opacity="1">
<use xlink:href="#glyph-2-0" x="203.870478" y="121.229766"/>
<use xlink:href="#glyph-2-0" x="208.043116" y="121.229766"/>
<use xlink:href="#glyph-2-1" x="212.215754" y="121.229766"/>
<use xlink:href="#glyph-2-1" x="216.388393" y="121.229766"/>
<use xlink:href="#glyph-2-0" x="220.561031" y="121.229766"/>
<use xlink:href="#glyph-2-0" x="224.733669" y="121.229766"/>
<use xlink:href="#glyph-2-1" x="228.906307" y="121.229766"/>
</g>
<g fill="rgb(0%, 0%, 0%)" fill-opacity="1">
<use xlink:href="#glyph-1-1" x="235.902109" y="108.001673"/>
</g>
<g fill="rgb(0%, 0%, 0%)" fill-opacity="1">
<use xlink:href="#glyph-0-0" x="206.492163" y="187.078048"/>
<use xlink:href="#glyph-0-1" x="211.513238" y="187.078048"/>
<use xlink:href="#glyph-0-2" x="213.44656" y="187.078048"/>
<use xlink:href="#glyph-0-3" x="218.085143" y="187.078048"/>
<use xlink:href="#glyph-0-6" x="222.723726" y="187.078048"/>
<use xlink:href="#glyph-0-9" x="226.590371" y="187.078048"/>
</g>
<g fill="rgb(0%, 0%, 0%)" fill-opacity="1">
<use xlink:href="#glyph-1-0" x="198.420683" y="156.97005"/>
</g>
<path fill-rule="nonzero" fill="rgb(85.998535%, 85.998535%, 85.998535%)" fill-opacity="1" stroke-width="0.59776" stroke-linecap="butt" stroke-linejoin="miter" stroke="rgb(17.999268%, 17.999268%, 17.999268%)" stroke-opacity="1" stroke-miterlimit="10" d="M -0.00136153 -147.316535 L -0.00136153 -131.475586 L 43.851116 -131.475586 L 43.851116 -147.316535 Z M -0.00136153 -147.316535 " transform="matrix(0.997218, 0, 0, -0.997218, 196.610733, 29.023025)"/>
<g fill="rgb(0%, 0%, 0%)" fill-opacity="1">
<use xlink:href="#glyph-2-0" x="203.870478" y="170.197146"/>
<use xlink:href="#glyph-2-0" x="208.043116" y="170.197146"/>
<use xlink:href="#glyph-2-1" x="212.215754" y="170.197146"/>
<use xlink:href="#glyph-2-1" x="216.388393" y="170.197146"/>
<use xlink:href="#glyph-2-0" x="220.561031" y="170.197146"/>
<use xlink:href="#glyph-2-0" x="224.733669" y="170.197146"/>
<use xlink:href="#glyph-2-0" x="228.906307" y="170.197146"/>
</g>
<g fill="rgb(0%, 0%, 0%)" fill-opacity="1">
<use xlink:href="#glyph-1-1" x="235.902109" y="156.97005"/>
</g>
<g fill="rgb(0%, 0%, 0%)" fill-opacity="1">
<use xlink:href="#glyph-0-10" x="211.13122" y="235.885874"/>
<use xlink:href="#glyph-0-11" x="214.997865" y="235.885874"/>
<use xlink:href="#glyph-0-12" x="216.541741" y="235.885874"/>
<use xlink:href="#glyph-0-13" x="220.408386" y="235.885874"/>
<use xlink:href="#glyph-0-14" x="221.952262" y="235.885874"/>
</g>
<g fill="rgb(0%, 0%, 0%)" fill-opacity="1">
<use xlink:href="#glyph-1-0" x="198.420683" y="205.93743"/>
</g>
<path fill-rule="nonzero" fill="rgb(85.998535%, 85.998535%, 85.998535%)" fill-opacity="1" stroke-width="0.59776" stroke-linecap="butt" stroke-linejoin="miter" stroke="rgb(17.999268%, 17.999268%, 17.999268%)" stroke-opacity="1" stroke-miterlimit="10" d="M -0.00136153 -196.417992 L -0.00136153 -180.58096 L 43.851116 -180.58096 L 43.851116 -196.417992 Z M -0.00136153 -196.417992 " transform="matrix(0.997218, 0, 0, -0.997218, 196.610733, 29.023025)"/>
<g fill="rgb(0%, 0%, 0%)" fill-opacity="1">
<use xlink:href="#glyph-2-0" x="203.870478" y="219.165524"/>
<use xlink:href="#glyph-2-0" x="208.043116" y="219.165524"/>
<use xlink:href="#glyph-2-1" x="212.215754" y="219.165524"/>
<use xlink:href="#glyph-2-0" x="216.388393" y="219.165524"/>
<use xlink:href="#glyph-2-1" x="220.561031" y="219.165524"/>
<use xlink:href="#glyph-2-1" x="224.733669" y="219.165524"/>
<use xlink:href="#glyph-2-1" x="228.906307" y="219.165524"/>
</g>
<g fill="rgb(0%, 0%, 0%)" fill-opacity="1">
<use xlink:href="#glyph-1-1" x="235.902109" y="205.93743"/>
</g>
</svg>
