<?xml version="1.0" encoding="UTF-8"?>
<svg xmlns="http://www.w3.org/2000/svg" xmlns:xlink="http://www.w3.org/1999/xlink" width="437.474" height="45.128" viewBox="0 0 437.474 45.128">
<defs>
<g>
<g id="glyph-0-0">
<path d="M 3.5625 -4.859375 L 0.3125 -4.859375 L 0.3125 -4.25 L 2.9375 -4.25 C 1.78125 -2.609375 1.3125 -1.59375 0.9375 0 L 1.59375 0 C 1.859375 -1.546875 2.46875 -2.890625 3.5625 -4.34375 Z M 3.5625 -4.859375 "/>
</g>
<g id="glyph-0-1">
<path d="M 1.875 -4.859375 C 1.4375 -4.859375 1.015625 -4.65625 0.765625 -4.3125 C 0.453125 -3.890625 0.296875 -3.25 0.296875 -2.34375 C 0.296875 -0.71875 0.84375 0.15625 1.875 0.15625 C 2.90625 0.15625 3.46875 -0.71875 3.46875 -2.3125 C 3.46875 -3.25 3.3125 -3.875 3 -4.3125 C 2.75 -4.65625 2.34375 -4.859375 1.875 -4.859375 Z M 1.875 -4.3125 C 2.53125 -4.3125 2.859375 -3.65625 2.859375 -2.359375 C 2.859375 -0.984375 2.53125 -0.34375 1.875 -0.34375 C 1.234375 -0.34375 0.90625 -1.015625 0.90625 -2.34375 C 0.90625 -3.671875 1.234375 -4.3125 1.875 -4.3125 Z M 1.875 -4.3125 "/>
</g>
<g id="glyph-0-2">
<path d="M 0.375 -4.984375 L 0.375 0 L 0.890625 0 L 0.890625 -0.453125 C 1.15625 -0.046875 1.515625 0.15625 2.015625 0.15625 C 2.96875 0.15625 3.578125 -0.609375 3.578125 -1.8125 C 3.578125 -2.96875 2.984375 -3.6875 2.046875 -3.6875 C 1.546875 -3.6875 1.203125 -3.5 0.9375 -3.09375 L 0.9375 -4.984375 Z M 1.9375 -3.15625 C 2.578125 -3.15625 2.984375 -2.59375 2.984375 -1.75 C 2.984375 -0.9375 2.5625 -0.375 1.9375 -0.375 C 1.328125 -0.375 0.9375 -0.921875 0.9375 -1.765625 C 0.9375 -2.609375 1.328125 -3.15625 1.9375 -3.15625 Z M 1.9375 -3.15625 "/>
</g>
<g id="glyph-0-3">
<path d="M 2.65625 -3.59375 L 1.65625 -0.796875 L 0.75 -3.59375 L 0.140625 -3.59375 L 1.34375 0.015625 L 1.125 0.578125 C 1.046875 0.828125 0.90625 0.9375 0.671875 0.9375 C 0.59375 0.9375 0.5 0.921875 0.375 0.890625 L 0.375 1.40625 C 0.484375 1.46875 0.609375 1.484375 0.75 1.484375 C 0.9375 1.484375 1.140625 1.4375 1.28125 1.328125 C 1.46875 1.1875 1.5625 1.046875 1.671875 0.75 L 3.265625 -3.59375 Z M 2.65625 -3.59375 "/>
</g>
<g id="glyph-0-4">
<path d="M 1.734375 -3.59375 L 1.15625 -3.59375 L 1.15625 -4.578125 L 0.578125 -4.578125 L 0.578125 -3.59375 L 0.09375 -3.59375 L 0.09375 -3.125 L 0.578125 -3.125 L 0.578125 -0.40625 C 0.578125 -0.046875 0.828125 0.15625 1.265625 0.15625 C 1.40625 0.15625 1.546875 0.140625 1.734375 0.109375 L 1.734375 -0.375 C 1.65625 -0.34375 1.578125 -0.34375 1.46875 -0.34375 C 1.21875 -0.34375 1.15625 -0.40625 1.15625 -0.65625 L 1.15625 -3.125 L 1.734375 -3.125 Z M 1.734375 -3.59375 "/>
</g>
<g id="glyph-0-5">
<path d="M 3.515625 -1.59375 C 3.515625 -2.15625 3.46875 -2.484375 3.359375 -2.75 C 3.140625 -3.328125 2.59375 -3.6875 1.921875 -3.6875 C 0.921875 -3.6875 0.28125 -2.921875 0.28125 -1.75 C 0.28125 -0.5625 0.890625 0.15625 1.90625 0.15625 C 2.71875 0.15625 3.296875 -0.3125 3.4375 -1.09375 L 2.859375 -1.09375 C 2.703125 -0.609375 2.375 -0.375 1.921875 -0.375 C 1.5625 -0.375 1.25 -0.53125 1.0625 -0.828125 C 0.921875 -1.046875 0.875 -1.25 0.875 -1.59375 Z M 0.890625 -2.0625 C 0.9375 -2.734375 1.328125 -3.15625 1.90625 -3.15625 C 2.46875 -3.15625 2.90625 -2.703125 2.90625 -2.109375 C 2.90625 -2.09375 2.90625 -2.078125 2.890625 -2.0625 Z M 0.890625 -2.0625 "/>
</g>
<g id="glyph-0-6">
<path d="M 1.765625 -3.453125 L 1.765625 0 L 2.375 0 L 2.375 -4.859375 L 1.984375 -4.859375 C 1.765625 -4.109375 1.625 -4 0.703125 -3.890625 L 0.703125 -3.453125 Z M 1.765625 -3.453125 "/>
</g>
<g id="glyph-0-7">
<path d="M 3.46875 -0.59375 L 0.90625 -0.59375 C 0.96875 -1 1.1875 -1.25 1.78125 -1.59375 L 2.46875 -1.96875 C 3.140625 -2.328125 3.5 -2.828125 3.5 -3.421875 C 3.5 -3.828125 3.328125 -4.203125 3.046875 -4.46875 C 2.765625 -4.734375 2.40625 -4.859375 1.9375 -4.859375 C 1.328125 -4.859375 0.875 -4.640625 0.609375 -4.21875 C 0.4375 -3.96875 0.359375 -3.65625 0.34375 -3.171875 L 0.9375 -3.171875 C 0.96875 -3.5 1 -3.703125 1.09375 -3.859375 C 1.25 -4.140625 1.5625 -4.328125 1.921875 -4.328125 C 2.46875 -4.328125 2.875 -3.9375 2.875 -3.421875 C 2.875 -3.03125 2.65625 -2.703125 2.21875 -2.453125 L 1.59375 -2.09375 C 0.578125 -1.53125 0.28125 -1.0625 0.234375 0 L 3.46875 0 Z M 3.46875 -0.59375 "/>
</g>
<g id="glyph-0-8">
<path d="M 1.515625 -2.21875 L 1.59375 -2.21875 L 1.84375 -2.234375 C 2.5 -2.234375 2.84375 -1.9375 2.84375 -1.34375 C 2.84375 -0.734375 2.46875 -0.375 1.84375 -0.375 C 1.1875 -0.375 0.859375 -0.703125 0.828125 -1.40625 L 0.21875 -1.40625 C 0.25 -1.015625 0.3125 -0.765625 0.4375 -0.546875 C 0.671875 -0.078125 1.15625 0.15625 1.828125 0.15625 C 2.8125 0.15625 3.46875 -0.4375 3.46875 -1.359375 C 3.46875 -1.96875 3.21875 -2.3125 2.640625 -2.515625 C 3.09375 -2.6875 3.3125 -3.03125 3.3125 -3.515625 C 3.3125 -4.359375 2.765625 -4.859375 1.84375 -4.859375 C 0.859375 -4.859375 0.34375 -4.3125 0.328125 -3.28125 L 0.921875 -3.28125 C 0.9375 -3.578125 0.953125 -3.75 1.03125 -3.890625 C 1.171875 -4.15625 1.46875 -4.328125 1.84375 -4.328125 C 2.375 -4.328125 2.703125 -4.015625 2.703125 -3.5 C 2.703125 -3.15625 2.578125 -2.953125 2.3125 -2.84375 C 2.15625 -2.765625 1.9375 -2.75 1.515625 -2.734375 Z M 1.515625 -2.21875 "/>
</g>
<g id="glyph-1-0">
<path d="M 2.203125 -4.1875 L 0.9375 -3.796875 C 0.828125 -3.75 0.78125 -3.71875 0.78125 -3.640625 C 0.78125 -3.578125 0.859375 -3.5 0.921875 -3.5 C 0.9375 -3.5 0.984375 -3.515625 1.015625 -3.53125 L 1.921875 -3.8125 L 1.921875 -0.28125 L 0.96875 -0.28125 C 0.828125 -0.28125 0.765625 -0.234375 0.765625 -0.140625 C 0.765625 -0.046875 0.84375 0 0.96875 0 L 3.140625 0 C 3.265625 0 3.328125 -0.046875 3.328125 -0.140625 C 3.328125 -0.234375 3.265625 -0.28125 3.140625 -0.28125 L 2.203125 -0.28125 Z M 2.203125 -4.1875 "/>
</g>
<g id="glyph-1-1">
<path d="M 1.546875 -3.578125 L 2.203125 -3.578125 C 2.328125 -3.578125 2.390625 -3.625 2.390625 -3.71875 C 2.390625 -3.8125 2.328125 -3.859375 2.203125 -3.859375 L 0.609375 -3.859375 C 0.5 -3.859375 0.4375 -3.8125 0.4375 -3.71875 C 0.4375 -3.625 0.5 -3.578125 0.609375 -3.578125 L 1.265625 -3.578125 L 1.265625 -0.28125 L 0.609375 -0.28125 C 0.5 -0.28125 0.4375 -0.234375 0.4375 -0.140625 C 0.4375 -0.046875 0.5 0 0.609375 0 L 3.703125 0 L 3.703125 -1.375 C 3.703125 -1.5 3.65625 -1.5625 3.5625 -1.5625 C 3.46875 -1.5625 3.421875 -1.5 3.421875 -1.375 L 3.421875 -0.28125 L 1.546875 -0.28125 Z M 1.546875 -3.578125 "/>
</g>
<g id="glyph-1-2">
<path d="M 3.328125 -2.40625 C 3.328125 -3.484375 2.8125 -4.234375 2.046875 -4.234375 C 1.296875 -4.234375 0.765625 -3.484375 0.765625 -2.40625 L 0.765625 -1.71875 C 0.765625 -0.640625 1.296875 0.109375 2.046875 0.109375 C 2.8125 0.109375 3.328125 -0.640625 3.328125 -1.71875 Z M 1.046875 -2.375 C 1.046875 -2.8125 1.171875 -3.265625 1.375 -3.59375 C 1.53125 -3.8125 1.765625 -3.953125 2.046875 -3.953125 C 2.34375 -3.953125 2.578125 -3.8125 2.71875 -3.59375 C 2.921875 -3.265625 3.046875 -2.8125 3.046875 -2.375 L 3.046875 -1.765625 C 3.046875 -1.328125 2.921875 -0.859375 2.71875 -0.546875 C 2.578125 -0.3125 2.34375 -0.171875 2.046875 -0.171875 C 1.765625 -0.171875 1.53125 -0.3125 1.375 -0.546875 C 1.171875 -0.859375 1.046875 -1.328125 1.046875 -1.765625 Z M 1.046875 -2.375 "/>
</g>
<g id="glyph-1-3">
<path d="M 3.25 -2.859375 L 0.84375 -2.859375 L 0.84375 -2.203125 C 0.84375 -2.078125 0.890625 -2.015625 1 -2.015625 C 1.078125 -2.015625 1.125 -2.078125 1.125 -2.203125 L 1.125 -2.578125 L 2.84375 -2.578125 L 0.78125 -0.25 L 0.78125 0 L 3.34375 0 L 3.34375 -0.65625 C 3.34375 -0.78125 3.296875 -0.84375 3.203125 -0.84375 C 3.109375 -0.84375 3.0625 -0.78125 3.0625 -0.65625 L 3.0625 -0.28125 L 1.171875 -0.28125 L 3.25 -2.609375 Z M 3.25 -2.859375 "/>
</g>
<g id="glyph-1-4">
<path d="M 2.953125 -2.640625 C 2.71875 -2.84375 2.40625 -2.953125 2.015625 -2.953125 C 1.34375 -2.953125 0.84375 -2.625 0.84375 -2.171875 C 0.84375 -1.96875 0.96875 -1.765625 1.15625 -1.640625 C 1.359375 -1.515625 1.546875 -1.46875 2.046875 -1.421875 C 2.421875 -1.375 2.609375 -1.328125 2.796875 -1.234375 C 2.984375 -1.125 3.09375 -0.953125 3.09375 -0.796875 C 3.09375 -0.4375 2.640625 -0.171875 2.046875 -0.171875 C 1.453125 -0.171875 0.984375 -0.421875 0.984375 -0.734375 L 0.984375 -0.78125 C 0.984375 -0.875 0.9375 -0.9375 0.84375 -0.9375 C 0.75 -0.9375 0.703125 -0.875 0.703125 -0.75 L 0.703125 -0.1875 C 0.703125 -0.0625 0.75 0 0.84375 0 C 0.9375 0 0.984375 -0.0625 0.984375 -0.1875 L 0.984375 -0.265625 C 1.265625 0 1.609375 0.109375 2.0625 0.109375 C 2.828125 0.109375 3.40625 -0.28125 3.40625 -0.796875 C 3.40625 -1.03125 3.265625 -1.265625 3.0625 -1.40625 C 2.84375 -1.546875 2.59375 -1.625 2.171875 -1.671875 C 1.5625 -1.734375 1.53125 -1.75 1.375 -1.84375 C 1.234375 -1.9375 1.15625 -2.046875 1.15625 -2.15625 C 1.15625 -2.453125 1.546875 -2.671875 2.046875 -2.671875 C 2.5625 -2.671875 2.921875 -2.46875 2.953125 -2.15625 C 2.96875 -2.046875 3.015625 -2 3.09375 -2 C 3.1875 -2 3.234375 -2.0625 3.234375 -2.1875 L 3.234375 -2.65625 C 3.234375 -2.796875 3.1875 -2.859375 3.09375 -2.859375 C 3.015625 -2.859375 2.953125 -2.78125 2.953125 -2.65625 Z M 2.953125 -2.640625 "/>
</g>
<g id="glyph-1-5">
<path d="M 3.5625 -1.359375 C 3.5625 -1.671875 3.53125 -1.8125 3.4375 -2.03125 C 3.203125 -2.59375 2.65625 -2.953125 1.984375 -2.953125 C 1.109375 -2.953125 0.4375 -2.3125 0.4375 -1.484375 C 0.4375 -0.59375 1.15625 0.109375 2.09375 0.109375 C 2.703125 0.109375 3.53125 -0.21875 3.53125 -0.453125 C 3.53125 -0.53125 3.46875 -0.59375 3.40625 -0.59375 C 3.359375 -0.59375 3.34375 -0.578125 3.296875 -0.546875 C 3.015625 -0.328125 2.515625 -0.171875 2.09375 -0.171875 C 1.359375 -0.171875 0.8125 -0.640625 0.71875 -1.359375 Z M 0.71875 -1.640625 C 0.828125 -2.265625 1.328125 -2.671875 1.984375 -2.671875 C 2.65625 -2.671875 3.15625 -2.265625 3.265625 -1.640625 Z M 0.71875 -1.640625 "/>
</g>
</g>
</defs>
<g fill="rgb(0%, 0%, 0%)" fill-opacity="1">
<use xlink:href="#glyph-0-0" x="132.029434" y="10.879772"/>
</g>
<g fill="rgb(0%, 0%, 0%)" fill-opacity="1">
<use xlink:href="#glyph-0-1" x="167.41371" y="10.739483"/>
</g>
<g fill="rgb(0%, 0%, 0%)" fill-opacity="1">
<use xlink:href="#glyph-0-2" x="142.373557" y="36.968661"/>
</g>
<g fill="rgb(0%, 0%, 0%)" fill-opacity="1">
<use xlink:href="#glyph-0-3" x="146.040655" y="36.968661"/>
<use xlink:href="#glyph-0-4" x="149.461455" y="36.968661"/>
<use xlink:href="#glyph-0-5" x="151.36342" y="36.968661"/>
</g>
<g fill="rgb(0%, 0%, 0%)" fill-opacity="1">
<use xlink:href="#glyph-0-1" x="157.069316" y="36.968661"/>
</g>
<g fill="rgb(0%, 0%, 0%)" fill-opacity="1">
<use xlink:href="#glyph-0-0" x="177.523363" y="10.879772"/>
</g>
<g fill="rgb(0%, 0%, 0%)" fill-opacity="1">
<use xlink:href="#glyph-0-1" x="212.90764" y="10.739483"/>
</g>
<g fill="rgb(0%, 0%, 0%)" fill-opacity="1">
<use xlink:href="#glyph-0-2" x="187.867486" y="36.968661"/>
</g>
<g fill="rgb(0%, 0%, 0%)" fill-opacity="1">
<use xlink:href="#glyph-0-3" x="191.534584" y="36.968661"/>
<use xlink:href="#glyph-0-4" x="194.955385" y="36.968661"/>
<use xlink:href="#glyph-0-5" x="196.85735" y="36.968661"/>
</g>
<g fill="rgb(0%, 0%, 0%)" fill-opacity="1">
<use xlink:href="#glyph-0-6" x="202.563245" y="36.968661"/>
</g>
<g fill="rgb(0%, 0%, 0%)" fill-opacity="1">
<use xlink:href="#glyph-0-0" x="223.017293" y="10.879772"/>
</g>
<g fill="rgb(0%, 0%, 0%)" fill-opacity="1">
<use xlink:href="#glyph-0-1" x="258.401569" y="10.739483"/>
</g>
<g fill="rgb(0%, 0%, 0%)" fill-opacity="1">
<use xlink:href="#glyph-0-2" x="233.361415" y="36.968661"/>
</g>
<g fill="rgb(0%, 0%, 0%)" fill-opacity="1">
<use xlink:href="#glyph-0-3" x="237.028513" y="36.968661"/>
<use xlink:href="#glyph-0-4" x="240.449314" y="36.968661"/>
<use xlink:href="#glyph-0-5" x="242.351279" y="36.968661"/>
</g>
<g fill="rgb(0%, 0%, 0%)" fill-opacity="1">
<use xlink:href="#glyph-0-7" x="248.057174" y="36.968661"/>
</g>
<g fill="rgb(0%, 0%, 0%)" fill-opacity="1">
<use xlink:href="#glyph-0-0" x="268.511222" y="10.879772"/>
</g>
<g fill="rgb(0%, 0%, 0%)" fill-opacity="1">
<use xlink:href="#glyph-0-1" x="303.896479" y="10.739483"/>
</g>
<g fill="rgb(0%, 0%, 0%)" fill-opacity="1">
<use xlink:href="#glyph-0-2" x="278.856325" y="36.968661"/>
</g>
<g fill="rgb(0%, 0%, 0%)" fill-opacity="1">
<use xlink:href="#glyph-0-3" x="282.523424" y="36.968661"/>
<use xlink:href="#glyph-0-4" x="285.944224" y="36.968661"/>
<use xlink:href="#glyph-0-5" x="287.846189" y="36.968661"/>
</g>
<g fill="rgb(0%, 0%, 0%)" fill-opacity="1">
<use xlink:href="#glyph-0-8" x="293.552084" y="36.968661"/>
</g>
<path fill-rule="nonzero" fill="rgb(85.998535%, 85.998535%, 85.998535%)" fill-opacity="1" stroke-width="0.59776" stroke-linecap="butt" stroke-linejoin="miter" stroke="rgb(17.999268%, 17.999268%, 17.999268%)" stroke-opacity="1" stroke-miterlimit="10" d="M -0.00120766 0.00155674 L -0.00120766 15.840878 L 10.303509 15.840878 L 10.303509 0.00155674 Z M -0.00120766 0.00155674 " transform="matrix(0.981043, 0, 0, -0.981043, 131.403529, 29.411683)"/>
<g fill="rgb(0%, 0%, 0%)" fill-opacity="1">
<use xlink:href="#glyph-1-0" x="132.353179" y="23.829546"/>
<use xlink:href="#glyph-1-0" x="136.458139" y="23.829546"/>
</g>
<path fill-rule="nonzero" fill="rgb(96.998596%, 96.998596%, 96.998596%)" fill-opacity="1" stroke-width="0.3487" stroke-linecap="butt" stroke-linejoin="miter" stroke="rgb(17.999268%, 17.999268%, 17.999268%)" stroke-opacity="1" stroke-miterlimit="10" d="M 10.303509 0.00155674 L 10.303509 15.840878 L 30.916924 15.840878 L 30.916924 0.00155674 Z M 10.303509 0.00155674 " transform="matrix(0.981043, 0, 0, -0.981043, 131.403529, 29.411683)"/>
<g fill="rgb(0%, 0%, 0%)" fill-opacity="1">
<use xlink:href="#glyph-1-1" x="149.570492" y="23.548968"/>
</g>
<path fill-rule="nonzero" fill="rgb(85.998535%, 85.998535%, 85.998535%)" fill-opacity="1" stroke-width="0.59776" stroke-linecap="butt" stroke-linejoin="miter" stroke="rgb(17.999268%, 17.999268%, 17.999268%)" stroke-opacity="1" stroke-miterlimit="10" d="M 30.916924 0.00155674 L 30.916924 15.840878 L 41.22164 15.840878 L 41.22164 0.00155674 Z M 30.916924 0.00155674 " transform="matrix(0.981043, 0, 0, -0.981043, 131.403529, 29.411683)"/>
<g fill="rgb(0%, 0%, 0%)" fill-opacity="1">
<use xlink:href="#glyph-1-0" x="162.683119" y="23.829546"/>
<use xlink:href="#glyph-1-0" x="166.788079" y="23.829546"/>
</g>
<path fill-rule="nonzero" fill="rgb(85.998535%, 85.998535%, 85.998535%)" fill-opacity="1" stroke-width="0.59776" stroke-linecap="butt" stroke-linejoin="miter" stroke="rgb(17.999268%, 17.999268%, 17.999268%)" stroke-opacity="1" stroke-miterlimit="10" d="M 46.373999 0.00155674 L 46.373999 15.840878 L 87.596847 15.840878 L 87.596847 0.00155674 Z M 46.373999 0.00155674 " transform="matrix(0.981043, 0, 0, -0.981043, 131.403529, 29.411683)"/>
<g fill="rgb(0%, 0%, 0%)" fill-opacity="1">
<use xlink:href="#glyph-1-0" x="180.69802" y="23.77657"/>
<use xlink:href="#glyph-1-0" x="184.802981" y="23.77657"/>
<use xlink:href="#glyph-1-0" x="188.907941" y="23.77657"/>
<use xlink:href="#glyph-1-2" x="193.012902" y="23.77657"/>
<use xlink:href="#glyph-1-2" x="197.117863" y="23.77657"/>
<use xlink:href="#glyph-1-0" x="201.222823" y="23.77657"/>
<use xlink:href="#glyph-1-2" x="205.327784" y="23.77657"/>
<use xlink:href="#glyph-1-0" x="209.432744" y="23.77657"/>
</g>
<path fill-rule="nonzero" fill="rgb(96.998596%, 96.998596%, 96.998596%)" fill-opacity="1" stroke-width="0.3487" stroke-linecap="butt" stroke-linejoin="miter" stroke="rgb(17.999268%, 17.999268%, 17.999268%)" stroke-opacity="1" stroke-miterlimit="10" d="M 92.749205 0.00155674 L 92.749205 15.840878 L 97.901563 15.840878 L 97.901563 0.00155674 Z M 92.749205 0.00155674 " transform="matrix(0.981043, 0, 0, -0.981043, 131.403529, 29.411683)"/>
<g fill="rgb(0%, 0%, 0%)" fill-opacity="1">
<use xlink:href="#glyph-1-3" x="222.867193" y="23.133005"/>
</g>
<path fill-rule="nonzero" fill="rgb(85.998535%, 85.998535%, 85.998535%)" fill-opacity="1" stroke-width="0.59776" stroke-linecap="butt" stroke-linejoin="miter" stroke="rgb(17.999268%, 17.999268%, 17.999268%)" stroke-opacity="1" stroke-miterlimit="10" d="M 97.901563 0.00155674 L 97.901563 15.840878 L 118.510997 15.840878 L 118.510997 0.00155674 Z M 97.901563 0.00155674 " transform="matrix(0.981043, 0, 0, -0.981043, 131.403529, 29.411683)"/>
<g fill="rgb(0%, 0%, 0%)" fill-opacity="1">
<use xlink:href="#glyph-1-2" x="229.346985" y="23.77657"/>
<use xlink:href="#glyph-1-0" x="233.451946" y="23.77657"/>
<use xlink:href="#glyph-1-0" x="237.556906" y="23.77657"/>
<use xlink:href="#glyph-1-2" x="241.661867" y="23.77657"/>
</g>
<path fill-rule="nonzero" fill="rgb(96.998596%, 96.998596%, 96.998596%)" fill-opacity="1" stroke-width="0.3487" stroke-linecap="butt" stroke-linejoin="miter" stroke="rgb(17.999268%, 17.999268%, 17.999268%)" stroke-opacity="1" stroke-miterlimit="10" d="M 118.510997 0.00155674 L 118.510997 15.840878 L 133.968071 15.840878 L 133.968071 0.00155674 Z M 118.510997 0.00155674 " transform="matrix(0.981043, 0, 0, -0.981043, 131.403529, 29.411683)"/>
<g fill="rgb(0%, 0%, 0%)" fill-opacity="1">
<use xlink:href="#glyph-1-4" x="253.196152" y="23.080029"/>
</g>
<path fill-rule="nonzero" fill="rgb(96.998596%, 96.998596%, 96.998596%)" fill-opacity="1" stroke-width="0.3487" stroke-linecap="butt" stroke-linejoin="miter" stroke="rgb(17.999268%, 17.999268%, 17.999268%)" stroke-opacity="1" stroke-miterlimit="10" d="M 139.12043 0.00155674 L 139.12043 15.840878 L 144.272788 15.840878 L 144.272788 0.00155674 Z M 139.12043 0.00155674 " transform="matrix(0.981043, 0, 0, -0.981043, 131.403529, 29.411683)"/>
<g fill="rgb(0%, 0%, 0%)" fill-opacity="1">
<use xlink:href="#glyph-1-4" x="268.361122" y="23.080029"/>
</g>
<path fill-rule="nonzero" fill="rgb(96.998596%, 96.998596%, 96.998596%)" fill-opacity="1" stroke-width="0.3487" stroke-linecap="butt" stroke-linejoin="miter" stroke="rgb(17.999268%, 17.999268%, 17.999268%)" stroke-opacity="1" stroke-miterlimit="10" d="M 144.272788 0.00155674 L 144.272788 15.840878 L 180.343278 15.840878 L 180.343278 0.00155674 Z M 144.272788 0.00155674 " transform="matrix(0.981043, 0, 0, -0.981043, 131.403529, 29.411683)"/>
<g fill="rgb(0%, 0%, 0%)" fill-opacity="1">
<use xlink:href="#glyph-1-5" x="288.580428" y="23.080029"/>
</g>
</svg>
