<?xml version="1.0" encoding="UTF-8"?>
<svg xmlns="http://www.w3.org/2000/svg" xmlns:xlink="http://www.w3.org/1999/xlink" width="437.474" height="335.717" viewBox="0 0 437.474 335.717">
<defs>
<g>
<g id="glyph-0-0">
<path d="M 1.0625 -1.796875 L 2.421875 -1.796875 C 2.90625 -1.796875 3.109375 -1.5625 3.109375 -1.046875 L 3.109375 -0.671875 C 3.109375 -0.421875 3.15625 -0.171875 3.234375 0 L 3.875 0 L 3.875 -0.125 C 3.671875 -0.265625 3.640625 -0.421875 3.625 -0.96875 C 3.609375 -1.65625 3.5 -1.859375 3.0625 -2.046875 C 3.53125 -2.28125 3.71875 -2.578125 3.71875 -3.046875 C 3.71875 -3.765625 3.265625 -4.15625 2.453125 -4.15625 L 0.53125 -4.15625 L 0.53125 0 L 1.0625 0 Z M 1.0625 -2.265625 L 1.0625 -3.6875 L 2.34375 -3.6875 C 2.640625 -3.6875 2.8125 -3.640625 2.9375 -3.53125 C 3.078125 -3.40625 3.15625 -3.21875 3.15625 -2.96875 C 3.15625 -2.484375 2.90625 -2.265625 2.34375 -2.265625 Z M 1.0625 -2.265625 "/>
</g>
<g id="glyph-0-1">
<path d="M 1.5625 -4.046875 C 1.1875 -4.046875 0.84375 -3.875 0.640625 -3.59375 C 0.375 -3.25 0.25 -2.703125 0.25 -1.953125 C 0.25 -0.59375 0.703125 0.125 1.5625 0.125 C 2.421875 0.125 2.890625 -0.59375 2.890625 -1.921875 C 2.890625 -2.703125 2.765625 -3.234375 2.5 -3.59375 C 2.28125 -3.890625 1.953125 -4.046875 1.5625 -4.046875 Z M 1.5625 -3.59375 C 2.109375 -3.59375 2.375 -3.046875 2.375 -1.96875 C 2.375 -0.828125 2.109375 -0.28125 1.5625 -0.28125 C 1.03125 -0.28125 0.765625 -0.84375 0.765625 -1.953125 C 0.765625 -3.0625 1.03125 -3.59375 1.5625 -3.59375 Z M 1.5625 -3.59375 "/>
</g>
<g id="glyph-0-2">
<path d="M 1.484375 -2.875 L 1.484375 0 L 1.984375 0 L 1.984375 -4.046875 L 1.640625 -4.046875 C 1.46875 -3.421875 1.359375 -3.34375 0.578125 -3.234375 L 0.578125 -2.875 Z M 1.484375 -2.875 "/>
</g>
<g id="glyph-0-3">
<path d="M 2.890625 -0.5 L 0.765625 -0.5 C 0.8125 -0.828125 1 -1.03125 1.484375 -1.328125 L 2.0625 -1.640625 C 2.625 -1.9375 2.921875 -2.359375 2.921875 -2.859375 C 2.921875 -3.1875 2.78125 -3.5 2.53125 -3.71875 C 2.296875 -3.9375 2 -4.046875 1.625 -4.046875 C 1.109375 -4.046875 0.71875 -3.859375 0.5 -3.515625 C 0.359375 -3.296875 0.296875 -3.046875 0.28125 -2.640625 L 0.78125 -2.640625 C 0.796875 -2.921875 0.84375 -3.078125 0.90625 -3.203125 C 1.03125 -3.453125 1.296875 -3.609375 1.609375 -3.609375 C 2.0625 -3.609375 2.40625 -3.28125 2.40625 -2.84375 C 2.40625 -2.53125 2.21875 -2.25 1.859375 -2.046875 L 1.328125 -1.75 C 0.484375 -1.265625 0.234375 -0.890625 0.1875 0 L 2.890625 0 Z M 2.890625 -0.5 "/>
</g>
<g id="glyph-0-4">
<path d="M 1.265625 -1.859375 L 1.53125 -1.859375 C 2.09375 -1.859375 2.375 -1.609375 2.375 -1.125 C 2.375 -0.609375 2.0625 -0.3125 1.53125 -0.3125 C 0.984375 -0.3125 0.71875 -0.59375 0.6875 -1.171875 L 0.1875 -1.171875 C 0.203125 -0.84375 0.265625 -0.640625 0.359375 -0.453125 C 0.5625 -0.0625 0.96875 0.125 1.515625 0.125 C 2.34375 0.125 2.890625 -0.359375 2.890625 -1.125 C 2.890625 -1.640625 2.6875 -1.921875 2.203125 -2.09375 C 2.578125 -2.234375 2.765625 -2.53125 2.765625 -2.9375 C 2.765625 -3.625 2.296875 -4.046875 1.53125 -4.046875 C 0.71875 -4.046875 0.28125 -3.59375 0.265625 -2.734375 L 0.765625 -2.734375 C 0.78125 -2.984375 0.796875 -3.125 0.859375 -3.25 C 0.96875 -3.46875 1.21875 -3.609375 1.546875 -3.609375 C 1.984375 -3.609375 2.25 -3.34375 2.25 -2.921875 C 2.25 -2.625 2.15625 -2.453125 1.921875 -2.359375 C 1.796875 -2.3125 1.609375 -2.28125 1.265625 -2.28125 Z M 1.265625 -1.859375 "/>
</g>
<g id="glyph-0-5">
<path d="M 1.859375 -0.96875 L 1.859375 0 L 2.359375 0 L 2.359375 -0.96875 L 2.96875 -0.96875 L 2.96875 -1.421875 L 2.359375 -1.421875 L 2.359375 -4.046875 L 2 -4.046875 L 0.15625 -1.5 L 0.15625 -0.96875 Z M 1.859375 -1.421875 L 0.59375 -1.421875 L 1.859375 -3.1875 Z M 1.859375 -1.421875 "/>
</g>
<g id="glyph-0-6">
<path d="M 2.71875 -4.046875 L 0.625 -4.046875 L 0.328125 -1.84375 L 0.78125 -1.84375 C 1.015625 -2.125 1.21875 -2.21875 1.53125 -2.21875 C 2.0625 -2.21875 2.40625 -1.84375 2.40625 -1.25 C 2.40625 -0.671875 2.078125 -0.3125 1.53125 -0.3125 C 1.09375 -0.3125 0.828125 -0.53125 0.703125 -1 L 0.203125 -1 C 0.265625 -0.65625 0.328125 -0.5 0.4375 -0.359375 C 0.671875 -0.046875 1.078125 0.125 1.546875 0.125 C 2.359375 0.125 2.921875 -0.46875 2.921875 -1.3125 C 2.921875 -2.109375 2.390625 -2.65625 1.625 -2.65625 C 1.328125 -2.65625 1.109375 -2.59375 0.875 -2.421875 L 1.03125 -3.546875 L 2.71875 -3.546875 Z M 2.71875 -4.046875 "/>
</g>
<g id="glyph-0-7">
<path d="M 2.84375 -2.984375 C 2.75 -3.65625 2.3125 -4.046875 1.6875 -4.046875 C 1.25 -4.046875 0.84375 -3.828125 0.609375 -3.46875 C 0.359375 -3.078125 0.25 -2.578125 0.25 -1.84375 C 0.25 -1.15625 0.34375 -0.734375 0.59375 -0.375 C 0.796875 -0.046875 1.15625 0.125 1.609375 0.125 C 2.375 0.125 2.921875 -0.4375 2.921875 -1.234375 C 2.921875 -1.984375 2.40625 -2.515625 1.6875 -2.515625 C 1.28125 -2.515625 0.96875 -2.359375 0.765625 -2.0625 C 0.765625 -3.046875 1.078125 -3.59375 1.65625 -3.59375 C 2.015625 -3.59375 2.265625 -3.375 2.34375 -2.984375 Z M 1.625 -2.0625 C 2.109375 -2.0625 2.40625 -1.734375 2.40625 -1.1875 C 2.40625 -0.6875 2.0625 -0.3125 1.609375 -0.3125 C 1.140625 -0.3125 0.78125 -0.703125 0.78125 -1.21875 C 0.78125 -1.71875 1.125 -2.0625 1.625 -2.0625 Z M 1.625 -2.0625 "/>
</g>
<g id="glyph-0-8">
<path d="M 2.96875 -4.046875 L 0.265625 -4.046875 L 0.265625 -3.546875 L 2.453125 -3.546875 C 1.484375 -2.171875 1.09375 -1.328125 0.78125 0 L 1.328125 0 C 1.546875 -1.296875 2.046875 -2.40625 2.96875 -3.625 Z M 2.96875 -4.046875 "/>
</g>
<g id="glyph-0-9">
<path d="M 2.234375 -2.125 C 2.640625 -2.375 2.78125 -2.578125 2.78125 -2.96875 C 2.78125 -3.59375 2.28125 -4.046875 1.5625 -4.046875 C 0.859375 -4.046875 0.359375 -3.59375 0.359375 -2.96875 C 0.359375 -2.59375 0.484375 -2.390625 0.90625 -2.125 C 0.4375 -1.90625 0.21875 -1.5625 0.21875 -1.125 C 0.21875 -0.375 0.765625 0.125 1.5625 0.125 C 2.359375 0.125 2.921875 -0.375 2.921875 -1.125 C 2.921875 -1.5625 2.703125 -1.90625 2.234375 -2.125 Z M 1.5625 -3.59375 C 2 -3.59375 2.265625 -3.34375 2.265625 -2.953125 C 2.265625 -2.578125 1.984375 -2.328125 1.5625 -2.328125 C 1.140625 -2.328125 0.859375 -2.578125 0.859375 -2.953125 C 0.859375 -3.34375 1.140625 -3.59375 1.5625 -3.59375 Z M 1.5625 -1.90625 C 2.0625 -1.90625 2.40625 -1.578125 2.40625 -1.109375 C 2.40625 -0.640625 2.0625 -0.3125 1.5625 -0.3125 C 1.0625 -0.3125 0.71875 -0.640625 0.71875 -1.109375 C 0.71875 -1.578125 1.0625 -1.90625 1.5625 -1.90625 Z M 1.5625 -1.90625 "/>
</g>
<g id="glyph-0-10">
<path d="M 0.296875 -0.921875 C 0.40625 -0.265625 0.828125 0.125 1.453125 0.125 C 1.890625 0.125 2.296875 -0.078125 2.53125 -0.4375 C 2.78125 -0.84375 2.90625 -1.328125 2.90625 -2.0625 C 2.90625 -2.75 2.796875 -3.1875 2.5625 -3.546875 C 2.34375 -3.859375 1.984375 -4.046875 1.546875 -4.046875 C 0.765625 -4.046875 0.21875 -3.46875 0.21875 -2.6875 C 0.21875 -1.921875 0.734375 -1.390625 1.453125 -1.390625 C 1.84375 -1.390625 2.125 -1.53125 2.390625 -1.84375 C 2.375 -0.859375 2.0625 -0.3125 1.484375 -0.3125 C 1.125 -0.3125 0.890625 -0.53125 0.796875 -0.921875 Z M 1.53125 -3.609375 C 2 -3.609375 2.359375 -3.21875 2.359375 -2.6875 C 2.359375 -2.203125 2 -1.84375 1.515625 -1.84375 C 1.03125 -1.84375 0.734375 -2.171875 0.734375 -2.71875 C 0.734375 -3.234375 1.078125 -3.609375 1.53125 -3.609375 Z M 1.53125 -3.609375 "/>
</g>
<g id="glyph-0-11">
<path d="M 4.046875 -2.203125 L 2.3125 -2.203125 L 2.3125 -1.734375 L 3.578125 -1.734375 L 3.578125 -1.609375 C 3.578125 -0.875 3.03125 -0.34375 2.265625 -0.34375 C 1.84375 -0.34375 1.46875 -0.484375 1.21875 -0.765625 C 0.953125 -1.0625 0.78125 -1.546875 0.78125 -2.0625 C 0.78125 -3.078125 1.359375 -3.765625 2.234375 -3.765625 C 2.875 -3.765625 3.328125 -3.4375 3.4375 -2.890625 L 3.984375 -2.890625 C 3.84375 -3.734375 3.203125 -4.21875 2.25 -4.21875 C 1.734375 -4.21875 1.328125 -4.09375 1 -3.828125 C 0.53125 -3.421875 0.25 -2.78125 0.25 -2.03125 C 0.25 -0.765625 1.03125 0.125 2.15625 0.125 C 2.71875 0.125 3.171875 -0.078125 3.578125 -0.53125 L 3.703125 0.015625 L 4.046875 0.015625 Z M 4.046875 -2.203125 "/>
</g>
<g id="glyph-0-12">
<path d="M 1.046875 -1.890625 L 3.3125 -1.890625 L 3.3125 -2.359375 L 1.046875 -2.359375 L 1.046875 -3.6875 L 3.390625 -3.6875 L 3.390625 -4.15625 L 0.515625 -4.15625 L 0.515625 0 L 3.5 0 L 3.5 -0.46875 L 1.046875 -0.46875 Z M 1.046875 -1.890625 "/>
</g>
<g id="glyph-0-13">
<path d="M 3.6875 -4.15625 L 3.1875 -4.15625 L 3.1875 -0.765625 L 1.015625 -4.15625 L 0.4375 -4.15625 L 0.4375 0 L 0.9375 0 L 0.9375 -3.375 L 3.078125 0 L 3.6875 0 Z M 3.6875 -4.15625 "/>
</g>
<g id="glyph-0-14">
<path d="M 2.703125 -1.25 L 3.125 0 L 3.71875 0 L 2.265625 -4.15625 L 1.578125 -4.15625 L 0.09375 0 L 0.65625 0 L 1.09375 -1.25 Z M 2.5625 -1.6875 L 1.234375 -1.6875 L 1.921875 -3.59375 Z M 2.5625 -1.6875 "/>
</g>
<g id="glyph-0-15">
<path d="M 0.984375 -4.15625 L 0.453125 -4.15625 L 0.453125 0 L 3.046875 0 L 3.046875 -0.46875 L 0.984375 -0.46875 Z M 0.984375 -4.15625 "/>
</g>
<g id="glyph-0-16">
<path d="M 1.109375 -4.15625 L 0.578125 -4.15625 L 0.578125 0 L 1.109375 0 Z M 1.109375 -4.15625 "/>
</g>
<g id="glyph-0-17">
<path d="M 3.40625 -2.9375 C 3.390625 -3.75 2.828125 -4.21875 1.875 -4.21875 C 0.96875 -4.21875 0.40625 -3.765625 0.40625 -3 C 0.40625 -2.5 0.671875 -2.171875 1.21875 -2.03125 L 2.25 -1.765625 C 2.765625 -1.625 3.015625 -1.421875 3.015625 -1.09375 C 3.015625 -0.859375 2.890625 -0.640625 2.71875 -0.515625 C 2.546875 -0.40625 2.28125 -0.34375 1.953125 -0.34375 C 1.5 -0.34375 1.1875 -0.4375 1 -0.6875 C 0.84375 -0.859375 0.765625 -1.0625 0.78125 -1.328125 L 0.28125 -1.328125 C 0.28125 -0.9375 0.359375 -0.6875 0.515625 -0.46875 C 0.796875 -0.078125 1.28125 0.125 1.921875 0.125 C 2.40625 0.125 2.8125 0.015625 3.078125 -0.1875 C 3.359375 -0.40625 3.546875 -0.78125 3.546875 -1.140625 C 3.546875 -1.65625 3.21875 -2.03125 2.65625 -2.1875 L 1.609375 -2.46875 C 1.109375 -2.59375 0.921875 -2.765625 0.921875 -3.078125 C 0.921875 -3.5 1.296875 -3.78125 1.859375 -3.78125 C 2.515625 -3.78125 2.890625 -3.484375 2.890625 -2.9375 Z M 3.40625 -2.9375 "/>
</g>
<g id="glyph-0-18">
<path d="M 2.015625 -3.6875 L 3.375 -3.6875 L 3.375 -4.15625 L 0.125 -4.15625 L 0.125 -3.6875 L 1.484375 -3.6875 L 1.484375 0 L 2.015625 0 Z M 2.015625 -3.6875 "/>
</g>
<g id="glyph-0-19">
<path d="M 3.203125 -1.78125 L -0.03125 -1.78125 L -0.03125 -1.375 L 3.203125 -1.375 Z M 3.203125 -1.78125 "/>
</g>
<g id="glyph-0-20">
<path d="M 1.046875 -1.765625 L 2.359375 -1.765625 C 2.6875 -1.765625 2.9375 -1.859375 3.15625 -2.0625 C 3.40625 -2.28125 3.515625 -2.5625 3.515625 -2.9375 C 3.515625 -3.71875 3.0625 -4.15625 2.234375 -4.15625 L 0.515625 -4.15625 L 0.515625 0 L 1.046875 0 Z M 1.046875 -2.234375 L 1.046875 -3.6875 L 2.15625 -3.6875 C 2.65625 -3.6875 2.96875 -3.421875 2.96875 -2.953125 C 2.96875 -2.5 2.65625 -2.234375 2.15625 -2.234375 Z M 1.046875 -2.234375 "/>
</g>
<g id="glyph-0-21">
<path d="M 3.78125 -2.875 C 3.609375 -3.78125 3.078125 -4.21875 2.171875 -4.21875 C 1.609375 -4.21875 1.15625 -4.046875 0.859375 -3.703125 C 0.484375 -3.296875 0.28125 -2.703125 0.28125 -2.03125 C 0.28125 -1.34375 0.484375 -0.765625 0.875 -0.359375 C 1.203125 -0.015625 1.609375 0.125 2.15625 0.125 C 3.171875 0.125 3.734375 -0.421875 3.859375 -1.515625 L 3.3125 -1.515625 C 3.265625 -1.234375 3.203125 -1.03125 3.125 -0.875 C 2.953125 -0.53125 2.59375 -0.34375 2.15625 -0.34375 C 1.328125 -0.34375 0.796875 -1 0.796875 -2.03125 C 0.796875 -3.109375 1.3125 -3.765625 2.109375 -3.765625 C 2.453125 -3.765625 2.765625 -3.65625 2.9375 -3.5 C 3.078125 -3.359375 3.171875 -3.171875 3.234375 -2.875 Z M 3.78125 -2.875 "/>
</g>
<g id="glyph-0-22">
<path d="M 1.046875 -1.890625 L 3.03125 -1.890625 L 3.03125 -2.359375 L 1.046875 -2.359375 L 1.046875 -3.6875 L 3.296875 -3.6875 L 3.296875 -4.15625 L 0.515625 -4.15625 L 0.515625 0 L 1.046875 0 Z M 1.046875 -1.890625 "/>
</g>
<g id="glyph-0-23">
<path d="M 3.140625 -4.15625 L 3.140625 -1.234375 C 3.140625 -0.671875 2.75 -0.34375 2.078125 -0.34375 C 1.765625 -0.34375 1.515625 -0.40625 1.3125 -0.546875 C 1.109375 -0.71875 1.015625 -0.921875 1.015625 -1.234375 L 1.015625 -4.15625 L 0.484375 -4.15625 L 0.484375 -1.234375 C 0.484375 -0.390625 1.09375 0.125 2.078125 0.125 C 3.046875 0.125 3.671875 -0.40625 3.671875 -1.234375 L 3.671875 -4.15625 Z M 3.140625 -4.15625 "/>
</g>
<g id="glyph-0-24">
<path d="M 1.09375 -0.59375 L 0.5 -0.59375 L 0.5 0 L 1.09375 0 Z M 1.09375 -0.59375 "/>
</g>
<g id="glyph-0-25">
<path d="M 2.21875 -4.21875 C 1.03125 -4.21875 0.21875 -3.34375 0.21875 -2.046875 C 0.21875 -0.75 1.03125 0.125 2.21875 0.125 C 2.71875 0.125 3.171875 -0.015625 3.515625 -0.3125 C 3.96875 -0.6875 4.234375 -1.328125 4.234375 -2.015625 C 4.234375 -3.359375 3.4375 -4.21875 2.21875 -4.21875 Z M 2.21875 -3.765625 C 3.125 -3.765625 3.703125 -3.078125 3.703125 -2.03125 C 3.703125 -1.015625 3.109375 -0.34375 2.21875 -0.34375 C 1.34375 -0.34375 0.75 -1.015625 0.75 -2.046875 C 0.75 -3.078125 1.34375 -3.765625 2.21875 -3.765625 Z M 2.21875 -3.765625 "/>
</g>
<g id="glyph-0-26">
<path d="M 1.625 -1.78125 L 0.265625 -1.78125 L 0.265625 -1.375 L 1.625 -1.375 Z M 1.625 -1.78125 "/>
</g>
<g id="glyph-0-27">
<path d="M 0.5 0 L 2.109375 0 C 3.15625 0 3.796875 -0.78125 3.796875 -2.078125 C 3.796875 -3.375 3.171875 -4.15625 2.109375 -4.15625 L 0.5 -4.15625 Z M 1.03125 -0.46875 L 1.03125 -3.6875 L 2.015625 -3.6875 C 2.84375 -3.6875 3.28125 -3.140625 3.28125 -2.078125 C 3.28125 -1.03125 2.84375 -0.46875 2.015625 -0.46875 Z M 1.03125 -0.46875 "/>
</g>
<g id="glyph-0-28">
<path d="M 2.671875 0 L 3.84375 -3.484375 L 3.84375 0 L 4.34375 0 L 4.34375 -4.15625 L 3.609375 -4.15625 L 2.390625 -0.53125 L 1.15625 -4.15625 L 0.421875 -4.15625 L 0.421875 0 L 0.921875 0 L 0.921875 -3.484375 L 2.109375 0 Z M 2.671875 0 "/>
</g>
<g id="glyph-0-29">
<path d="M 0.40625 -2.984375 L 0.40625 0 L 0.875 0 L 0.875 -1.640625 C 0.875 -2.265625 1.203125 -2.65625 1.6875 -2.65625 C 2.0625 -2.65625 2.296875 -2.421875 2.296875 -2.0625 L 2.296875 0 L 2.78125 0 L 2.78125 -2.265625 C 2.78125 -2.75 2.40625 -3.078125 1.828125 -3.078125 C 1.390625 -3.078125 1.09375 -2.90625 0.84375 -2.484375 L 0.84375 -2.984375 Z M 0.40625 -2.984375 "/>
</g>
<g id="glyph-0-30">
<path d="M 3.046875 -0.28125 C 3 -0.265625 2.984375 -0.265625 2.953125 -0.265625 C 2.78125 -0.265625 2.6875 -0.359375 2.6875 -0.5 L 2.6875 -2.265625 C 2.6875 -2.78125 2.296875 -3.078125 1.5625 -3.078125 C 1.140625 -3.078125 0.78125 -2.953125 0.578125 -2.71875 C 0.4375 -2.578125 0.375 -2.40625 0.375 -2.109375 L 0.84375 -2.109375 C 0.890625 -2.46875 1.109375 -2.640625 1.546875 -2.640625 C 1.984375 -2.640625 2.21875 -2.46875 2.21875 -2.1875 L 2.21875 -2.0625 C 2.21875 -1.859375 2.09375 -1.78125 1.71875 -1.734375 C 1.046875 -1.640625 0.953125 -1.625 0.765625 -1.546875 C 0.421875 -1.40625 0.234375 -1.140625 0.234375 -0.75 C 0.234375 -0.21875 0.609375 0.125 1.21875 0.125 C 1.59375 0.125 1.90625 0 2.234375 -0.3125 C 2.265625 0 2.421875 0.125 2.71875 0.125 C 2.828125 0.125 2.890625 0.125 3.046875 0.078125 Z M 2.21875 -0.9375 C 2.21875 -0.78125 2.171875 -0.6875 2.03125 -0.546875 C 1.84375 -0.375 1.609375 -0.28125 1.328125 -0.28125 C 0.953125 -0.28125 0.734375 -0.46875 0.734375 -0.765625 C 0.734375 -1.078125 0.953125 -1.234375 1.453125 -1.3125 C 1.953125 -1.375 2.0625 -1.40625 2.21875 -1.484375 Z M 2.21875 -0.9375 "/>
</g>
<g id="glyph-0-31">
<path d="M 0.40625 -2.984375 L 0.40625 0 L 0.875 0 L 0.875 -1.875 C 0.875 -2.3125 1.1875 -2.65625 1.578125 -2.65625 C 1.9375 -2.65625 2.140625 -2.4375 2.140625 -2.0625 L 2.140625 0 L 2.609375 0 L 2.609375 -1.875 C 2.609375 -2.3125 2.921875 -2.65625 3.3125 -2.65625 C 3.65625 -2.65625 3.859375 -2.4375 3.859375 -2.0625 L 3.859375 0 L 4.34375 0 L 4.34375 -2.234375 C 4.34375 -2.78125 4.03125 -3.078125 3.484375 -3.078125 C 3.078125 -3.078125 2.84375 -2.953125 2.5625 -2.625 C 2.390625 -2.9375 2.140625 -3.078125 1.75 -3.078125 C 1.359375 -3.078125 1.09375 -2.921875 0.84375 -2.5625 L 0.84375 -2.984375 Z M 0.40625 -2.984375 "/>
</g>
<g id="glyph-0-32">
<path d="M 2.921875 -1.328125 C 2.921875 -1.796875 2.890625 -2.0625 2.8125 -2.28125 C 2.609375 -2.78125 2.15625 -3.078125 1.59375 -3.078125 C 0.765625 -3.078125 0.234375 -2.4375 0.234375 -1.453125 C 0.234375 -0.46875 0.75 0.125 1.578125 0.125 C 2.265625 0.125 2.75 -0.25 2.859375 -0.90625 L 2.390625 -0.90625 C 2.25 -0.515625 1.984375 -0.3125 1.609375 -0.3125 C 1.296875 -0.3125 1.046875 -0.4375 0.890625 -0.703125 C 0.765625 -0.859375 0.734375 -1.03125 0.71875 -1.328125 Z M 0.734375 -1.71875 C 0.78125 -2.28125 1.109375 -2.640625 1.59375 -2.640625 C 2.0625 -2.640625 2.421875 -2.25 2.421875 -1.75 C 2.421875 -1.75 2.421875 -1.734375 2.40625 -1.71875 Z M 0.734375 -1.71875 "/>
</g>
<g id="glyph-0-33">
<path d="M 2.5 -2.15625 C 2.5 -2.75 2.109375 -3.078125 1.421875 -3.078125 C 0.71875 -3.078125 0.265625 -2.71875 0.265625 -2.15625 C 0.265625 -1.6875 0.5 -1.46875 1.21875 -1.296875 L 1.65625 -1.1875 C 1.984375 -1.109375 2.125 -1 2.125 -0.78125 C 2.125 -0.5 1.84375 -0.3125 1.421875 -0.3125 C 1.171875 -0.3125 0.953125 -0.375 0.828125 -0.5 C 0.765625 -0.59375 0.71875 -0.671875 0.703125 -0.890625 L 0.1875 -0.890625 C 0.21875 -0.203125 0.609375 0.125 1.390625 0.125 C 2.140625 0.125 2.625 -0.234375 2.625 -0.8125 C 2.625 -1.265625 2.359375 -1.5 1.78125 -1.640625 L 1.3125 -1.75 C 0.921875 -1.84375 0.765625 -1.96875 0.765625 -2.1875 C 0.765625 -2.453125 1.015625 -2.640625 1.390625 -2.640625 C 1.78125 -2.640625 1.984375 -2.46875 2 -2.15625 Z M 2.5 -2.15625 "/>
</g>
<g id="glyph-0-34">
<path d="M 0.3125 1.25 L 0.78125 1.25 L 0.78125 -0.3125 C 1.03125 0 1.3125 0.125 1.703125 0.125 C 2.46875 0.125 2.984375 -0.484375 2.984375 -1.4375 C 2.984375 -2.453125 2.5 -3.078125 1.703125 -3.078125 C 1.296875 -3.078125 0.96875 -2.890625 0.75 -2.53125 L 0.75 -2.984375 L 0.3125 -2.984375 Z M 1.625 -2.625 C 2.140625 -2.625 2.484375 -2.171875 2.484375 -1.453125 C 2.484375 -0.78125 2.140625 -0.3125 1.625 -0.3125 C 1.125 -0.3125 0.78125 -0.765625 0.78125 -1.46875 C 0.78125 -2.171875 1.125 -2.625 1.625 -2.625 Z M 1.625 -2.625 "/>
</g>
<g id="glyph-0-35">
<path d="M 2.6875 -1.984375 C 2.65625 -2.28125 2.59375 -2.46875 2.484375 -2.625 C 2.28125 -2.90625 1.921875 -3.078125 1.5 -3.078125 C 0.703125 -3.078125 0.171875 -2.4375 0.171875 -1.4375 C 0.171875 -0.484375 0.6875 0.125 1.5 0.125 C 2.21875 0.125 2.65625 -0.296875 2.71875 -1.03125 L 2.234375 -1.03125 C 2.15625 -0.546875 1.921875 -0.3125 1.515625 -0.3125 C 0.984375 -0.3125 0.671875 -0.734375 0.671875 -1.4375 C 0.671875 -2.1875 0.984375 -2.640625 1.5 -2.640625 C 1.90625 -2.640625 2.15625 -2.40625 2.203125 -1.984375 Z M 2.6875 -1.984375 "/>
</g>
<g id="glyph-0-36">
<path d="M 1.3125 -4.15625 L -0.046875 0.109375 L 0.265625 0.109375 L 1.625 -4.15625 Z M 1.3125 -4.15625 "/>
</g>
<g id="glyph-0-37">
<path d="M 4.25 0 L 5.296875 -4.15625 L 4.703125 -4.15625 L 3.9375 -0.78125 L 3 -4.15625 L 2.421875 -4.15625 L 1.5 -0.78125 L 0.71875 -4.15625 L 0.125 -4.15625 L 1.1875 0 L 1.78125 0 L 2.703125 -3.421875 L 3.65625 0 Z M 4.25 0 "/>
</g>
</g>
</defs>
<path fill="none" stroke-width="0.3985" stroke-linecap="butt" stroke-linejoin="miter" stroke="rgb(0%, 0%, 0%)" stroke-opacity="1" stroke-miterlimit="10" d="M -0.000275261 0.00175593 L -0.000275261 -12.958851 L 122.403327 -12.958851 L 122.403327 0.00175593 Z M -0.000275261 0.00175593 " transform="matrix(0.816778, 0, 0, -0.816778, 16.097881, 16.970184)"/>
<path fill="none" stroke-width="0.3985" stroke-linecap="butt" stroke-linejoin="miter" stroke="rgb(0%, 0%, 0%)" stroke-opacity="1" stroke-miterlimit="10" d="M 61.201526 0.00175593 L 61.201526 -12.958851 " transform="matrix(0.816778, 0, 0, -0.816778, 16.097881, 16.970184)"/>
<path fill="none" stroke-width="0.3985" stroke-linecap="butt" stroke-linejoin="miter" stroke="rgb(0%, 0%, 0%)" stroke-opacity="1" stroke-miterlimit="10" d="M 91.800035 0.00175593 L 91.800035 -12.958851 " transform="matrix(0.816778, 0, 0, -0.816778, 16.097881, 16.970184)"/>
<path fill="none" stroke-width="0.3985" stroke-linecap="butt" stroke-linejoin="miter" stroke="rgb(0%, 0%, 0%)" stroke-opacity="1" stroke-miterlimit="10" d="M 107.13755 0.00175593 L 107.13755 -12.958851 " transform="matrix(0.816778, 0, 0, -0.816778, 16.097881, 16.970184)"/>
<g fill="rgb(0%, 0%, 0%)" fill-opacity="1">
<use xlink:href="#glyph-0-0" x="123.6512" y="24.23379"/>
<use xlink:href="#glyph-0-1" x="127.763746" y="24.23379"/>
</g>
<path fill="none" stroke-width="0.3985" stroke-linecap="butt" stroke-linejoin="miter" stroke="rgb(0%, 0%, 0%)" stroke-opacity="1" stroke-miterlimit="10" d="M -0.000275261 -16.91877 L -0.000275261 -29.879377 L 122.403327 -29.879377 L 122.403327 -16.91877 Z M -0.000275261 -16.91877 " transform="matrix(0.816778, 0, 0, -0.816778, 16.097881, 16.970184)"/>
<path fill="none" stroke-width="0.3985" stroke-linecap="butt" stroke-linejoin="miter" stroke="rgb(0%, 0%, 0%)" stroke-opacity="1" stroke-miterlimit="10" d="M 61.201526 -16.91877 L 61.201526 -29.879377 " transform="matrix(0.816778, 0, 0, -0.816778, 16.097881, 16.970184)"/>
<path fill="none" stroke-width="0.3985" stroke-linecap="butt" stroke-linejoin="miter" stroke="rgb(0%, 0%, 0%)" stroke-opacity="1" stroke-miterlimit="10" d="M 91.800035 -16.91877 L 91.800035 -29.879377 " transform="matrix(0.816778, 0, 0, -0.816778, 16.097881, 16.970184)"/>
<path fill="none" stroke-width="0.3985" stroke-linecap="butt" stroke-linejoin="miter" stroke="rgb(0%, 0%, 0%)" stroke-opacity="1" stroke-miterlimit="10" d="M 107.13755 -16.91877 L 107.13755 -29.879377 " transform="matrix(0.816778, 0, 0, -0.816778, 16.097881, 16.970184)"/>
<g fill="rgb(0%, 0%, 0%)" fill-opacity="1">
<use xlink:href="#glyph-0-0" x="123.6512" y="38.112481"/>
<use xlink:href="#glyph-0-2" x="127.763746" y="38.112481"/>
</g>
<path fill="none" stroke-width="0.3985" stroke-linecap="butt" stroke-linejoin="miter" stroke="rgb(0%, 0%, 0%)" stroke-opacity="1" stroke-miterlimit="10" d="M -0.000275261 -33.839296 L -0.000275261 -46.799903 L 122.403327 -46.799903 L 122.403327 -33.839296 Z M -0.000275261 -33.839296 " transform="matrix(0.816778, 0, 0, -0.816778, 16.097881, 16.970184)"/>
<path fill="none" stroke-width="0.3985" stroke-linecap="butt" stroke-linejoin="miter" stroke="rgb(0%, 0%, 0%)" stroke-opacity="1" stroke-miterlimit="10" d="M 61.201526 -33.839296 L 61.201526 -46.799903 " transform="matrix(0.816778, 0, 0, -0.816778, 16.097881, 16.970184)"/>
<path fill="none" stroke-width="0.3985" stroke-linecap="butt" stroke-linejoin="miter" stroke="rgb(0%, 0%, 0%)" stroke-opacity="1" stroke-miterlimit="10" d="M 91.800035 -33.839296 L 91.800035 -46.799903 " transform="matrix(0.816778, 0, 0, -0.816778, 16.097881, 16.970184)"/>
<path fill="none" stroke-width="0.3985" stroke-linecap="butt" stroke-linejoin="miter" stroke="rgb(0%, 0%, 0%)" stroke-opacity="1" stroke-miterlimit="10" d="M 107.13755 -33.839296 L 107.13755 -46.799903 " transform="matrix(0.816778, 0, 0, -0.816778, 16.097881, 16.970184)"/>
<g fill="rgb(0%, 0%, 0%)" fill-opacity="1">
<use xlink:href="#glyph-0-0" x="123.6512" y="51.932364"/>
<use xlink:href="#glyph-0-3" x="127.763746" y="51.932364"/>
</g>
<path fill="none" stroke-width="0.3985" stroke-linecap="butt" stroke-linejoin="miter" stroke="rgb(0%, 0%, 0%)" stroke-opacity="1" stroke-miterlimit="10" d="M -0.000275261 -50.759822 L -0.000275261 -63.720429 L 122.403327 -63.720429 L 122.403327 -50.759822 Z M -0.000275261 -50.759822 " transform="matrix(0.816778, 0, 0, -0.816778, 16.097881, 16.970184)"/>
<path fill="none" stroke-width="0.3985" stroke-linecap="butt" stroke-linejoin="miter" stroke="rgb(0%, 0%, 0%)" stroke-opacity="1" stroke-miterlimit="10" d="M 61.201526 -50.759822 L 61.201526 -63.720429 " transform="matrix(0.816778, 0, 0, -0.816778, 16.097881, 16.970184)"/>
<path fill="none" stroke-width="0.3985" stroke-linecap="butt" stroke-linejoin="miter" stroke="rgb(0%, 0%, 0%)" stroke-opacity="1" stroke-miterlimit="10" d="M 91.800035 -50.759822 L 91.800035 -63.720429 " transform="matrix(0.816778, 0, 0, -0.816778, 16.097881, 16.970184)"/>
<path fill="none" stroke-width="0.3985" stroke-linecap="butt" stroke-linejoin="miter" stroke="rgb(0%, 0%, 0%)" stroke-opacity="1" stroke-miterlimit="10" d="M 107.13755 -50.759822 L 107.13755 -63.720429 " transform="matrix(0.816778, 0, 0, -0.816778, 16.097881, 16.970184)"/>
<g fill="rgb(0%, 0%, 0%)" fill-opacity="1">
<use xlink:href="#glyph-0-0" x="123.6512" y="65.693439"/>
<use xlink:href="#glyph-0-4" x="127.763746" y="65.693439"/>
</g>
<path fill="none" stroke-width="0.3985" stroke-linecap="butt" stroke-linejoin="miter" stroke="rgb(0%, 0%, 0%)" stroke-opacity="1" stroke-miterlimit="10" d="M -0.000275261 -67.680349 L -0.000275261 -80.640955 L 122.403327 -80.640955 L 122.403327 -67.680349 Z M -0.000275261 -67.680349 " transform="matrix(0.816778, 0, 0, -0.816778, 16.097881, 16.970184)"/>
<path fill="none" stroke-width="0.3985" stroke-linecap="butt" stroke-linejoin="miter" stroke="rgb(0%, 0%, 0%)" stroke-opacity="1" stroke-miterlimit="10" d="M 61.201526 -67.680349 L 61.201526 -80.640955 " transform="matrix(0.816778, 0, 0, -0.816778, 16.097881, 16.970184)"/>
<path fill="none" stroke-width="0.3985" stroke-linecap="butt" stroke-linejoin="miter" stroke="rgb(0%, 0%, 0%)" stroke-opacity="1" stroke-miterlimit="10" d="M 91.800035 -67.680349 L 91.800035 -80.640955 " transform="matrix(0.816778, 0, 0, -0.816778, 16.097881, 16.970184)"/>
<path fill="none" stroke-width="0.3985" stroke-linecap="butt" stroke-linejoin="miter" stroke="rgb(0%, 0%, 0%)" stroke-opacity="1" stroke-miterlimit="10" d="M 107.13755 -67.680349 L 107.13755 -80.640955 " transform="matrix(0.816778, 0, 0, -0.816778, 16.097881, 16.970184)"/>
<g fill="rgb(0%, 0%, 0%)" fill-opacity="1">
<use xlink:href="#glyph-0-0" x="123.6512" y="79.57213"/>
<use xlink:href="#glyph-0-5" x="127.763746" y="79.57213"/>
</g>
<path fill="none" stroke-width="0.3985" stroke-linecap="butt" stroke-linejoin="miter" stroke="rgb(0%, 0%, 0%)" stroke-opacity="1" stroke-miterlimit="10" d="M -0.000275261 -84.600875 L -0.000275261 -97.561481 L 122.403327 -97.561481 L 122.403327 -84.600875 Z M -0.000275261 -84.600875 " transform="matrix(0.816778, 0, 0, -0.816778, 16.097881, 16.970184)"/>
<path fill="none" stroke-width="0.3985" stroke-linecap="butt" stroke-linejoin="miter" stroke="rgb(0%, 0%, 0%)" stroke-opacity="1" stroke-miterlimit="10" d="M 61.201526 -84.600875 L 61.201526 -97.561481 " transform="matrix(0.816778, 0, 0, -0.816778, 16.097881, 16.970184)"/>
<path fill="none" stroke-width="0.3985" stroke-linecap="butt" stroke-linejoin="miter" stroke="rgb(0%, 0%, 0%)" stroke-opacity="1" stroke-miterlimit="10" d="M 91.800035 -84.600875 L 91.800035 -97.561481 " transform="matrix(0.816778, 0, 0, -0.816778, 16.097881, 16.970184)"/>
<path fill="none" stroke-width="0.3985" stroke-linecap="butt" stroke-linejoin="miter" stroke="rgb(0%, 0%, 0%)" stroke-opacity="1" stroke-miterlimit="10" d="M 107.13755 -84.600875 L 107.13755 -97.561481 " transform="matrix(0.816778, 0, 0, -0.816778, 16.097881, 16.970184)"/>
<g fill="rgb(0%, 0%, 0%)" fill-opacity="1">
<use xlink:href="#glyph-0-0" x="123.6512" y="93.333204"/>
<use xlink:href="#glyph-0-6" x="127.763746" y="93.333204"/>
</g>
<path fill="none" stroke-width="0.3985" stroke-linecap="butt" stroke-linejoin="miter" stroke="rgb(0%, 0%, 0%)" stroke-opacity="1" stroke-miterlimit="10" d="M -0.000275261 -101.521401 L -0.000275261 -114.482007 L 122.403327 -114.482007 L 122.403327 -101.521401 Z M -0.000275261 -101.521401 " transform="matrix(0.816778, 0, 0, -0.816778, 16.097881, 16.970184)"/>
<path fill="none" stroke-width="0.3985" stroke-linecap="butt" stroke-linejoin="miter" stroke="rgb(0%, 0%, 0%)" stroke-opacity="1" stroke-miterlimit="10" d="M 61.201526 -101.521401 L 61.201526 -114.482007 " transform="matrix(0.816778, 0, 0, -0.816778, 16.097881, 16.970184)"/>
<path fill="none" stroke-width="0.3985" stroke-linecap="butt" stroke-linejoin="miter" stroke="rgb(0%, 0%, 0%)" stroke-opacity="1" stroke-miterlimit="10" d="M 91.800035 -101.521401 L 91.800035 -114.482007 " transform="matrix(0.816778, 0, 0, -0.816778, 16.097881, 16.970184)"/>
<path fill="none" stroke-width="0.3985" stroke-linecap="butt" stroke-linejoin="miter" stroke="rgb(0%, 0%, 0%)" stroke-opacity="1" stroke-miterlimit="10" d="M 107.13755 -101.521401 L 107.13755 -114.482007 " transform="matrix(0.816778, 0, 0, -0.816778, 16.097881, 16.970184)"/>
<g fill="rgb(0%, 0%, 0%)" fill-opacity="1">
<use xlink:href="#glyph-0-0" x="123.6512" y="107.153087"/>
<use xlink:href="#glyph-0-7" x="127.763746" y="107.153087"/>
</g>
<path fill="none" stroke-width="0.3985" stroke-linecap="butt" stroke-linejoin="miter" stroke="rgb(0%, 0%, 0%)" stroke-opacity="1" stroke-miterlimit="10" d="M -0.000275261 -118.441927 L -0.000275261 -131.402534 L 122.403327 -131.402534 L 122.403327 -118.441927 Z M -0.000275261 -118.441927 " transform="matrix(0.816778, 0, 0, -0.816778, 16.097881, 16.970184)"/>
<path fill="none" stroke-width="0.3985" stroke-linecap="butt" stroke-linejoin="miter" stroke="rgb(0%, 0%, 0%)" stroke-opacity="1" stroke-miterlimit="10" d="M 61.201526 -118.441927 L 61.201526 -131.402534 " transform="matrix(0.816778, 0, 0, -0.816778, 16.097881, 16.970184)"/>
<path fill="none" stroke-width="0.3985" stroke-linecap="butt" stroke-linejoin="miter" stroke="rgb(0%, 0%, 0%)" stroke-opacity="1" stroke-miterlimit="10" d="M 91.800035 -118.441927 L 91.800035 -131.402534 " transform="matrix(0.816778, 0, 0, -0.816778, 16.097881, 16.970184)"/>
<path fill="none" stroke-width="0.3985" stroke-linecap="butt" stroke-linejoin="miter" stroke="rgb(0%, 0%, 0%)" stroke-opacity="1" stroke-miterlimit="10" d="M 107.13755 -118.441927 L 107.13755 -131.402534 " transform="matrix(0.816778, 0, 0, -0.816778, 16.097881, 16.970184)"/>
<g fill="rgb(0%, 0%, 0%)" fill-opacity="1">
<use xlink:href="#glyph-0-0" x="123.6512" y="121.031778"/>
<use xlink:href="#glyph-0-8" x="127.763746" y="121.031778"/>
</g>
<path fill="none" stroke-width="0.3985" stroke-linecap="butt" stroke-linejoin="miter" stroke="rgb(0%, 0%, 0%)" stroke-opacity="1" stroke-miterlimit="10" d="M -0.000275261 -135.362453 L -0.000275261 -148.32306 L 122.403327 -148.32306 L 122.403327 -135.362453 Z M -0.000275261 -135.362453 " transform="matrix(0.816778, 0, 0, -0.816778, 16.097881, 16.970184)"/>
<path fill="none" stroke-width="0.3985" stroke-linecap="butt" stroke-linejoin="miter" stroke="rgb(0%, 0%, 0%)" stroke-opacity="1" stroke-miterlimit="10" d="M 61.201526 -135.362453 L 61.201526 -148.32306 " transform="matrix(0.816778, 0, 0, -0.816778, 16.097881, 16.970184)"/>
<path fill="none" stroke-width="0.3985" stroke-linecap="butt" stroke-linejoin="miter" stroke="rgb(0%, 0%, 0%)" stroke-opacity="1" stroke-miterlimit="10" d="M 91.800035 -135.362453 L 91.800035 -148.32306 " transform="matrix(0.816778, 0, 0, -0.816778, 16.097881, 16.970184)"/>
<path fill="none" stroke-width="0.3985" stroke-linecap="butt" stroke-linejoin="miter" stroke="rgb(0%, 0%, 0%)" stroke-opacity="1" stroke-miterlimit="10" d="M 107.13755 -135.362453 L 107.13755 -148.32306 " transform="matrix(0.816778, 0, 0, -0.816778, 16.097881, 16.970184)"/>
<g fill="rgb(0%, 0%, 0%)" fill-opacity="1">
<use xlink:href="#glyph-0-0" x="123.6512" y="134.792853"/>
<use xlink:href="#glyph-0-9" x="127.763746" y="134.792853"/>
</g>
<path fill="none" stroke-width="0.3985" stroke-linecap="butt" stroke-linejoin="miter" stroke="rgb(0%, 0%, 0%)" stroke-opacity="1" stroke-miterlimit="10" d="M -0.000275261 -152.282979 L -0.000275261 -165.243586 L 122.403327 -165.243586 L 122.403327 -152.282979 Z M -0.000275261 -152.282979 " transform="matrix(0.816778, 0, 0, -0.816778, 16.097881, 16.970184)"/>
<path fill="none" stroke-width="0.3985" stroke-linecap="butt" stroke-linejoin="miter" stroke="rgb(0%, 0%, 0%)" stroke-opacity="1" stroke-miterlimit="10" d="M 61.201526 -152.282979 L 61.201526 -165.243586 " transform="matrix(0.816778, 0, 0, -0.816778, 16.097881, 16.970184)"/>
<path fill="none" stroke-width="0.3985" stroke-linecap="butt" stroke-linejoin="miter" stroke="rgb(0%, 0%, 0%)" stroke-opacity="1" stroke-miterlimit="10" d="M 91.800035 -152.282979 L 91.800035 -165.243586 " transform="matrix(0.816778, 0, 0, -0.816778, 16.097881, 16.970184)"/>
<path fill="none" stroke-width="0.3985" stroke-linecap="butt" stroke-linejoin="miter" stroke="rgb(0%, 0%, 0%)" stroke-opacity="1" stroke-miterlimit="10" d="M 107.13755 -152.282979 L 107.13755 -165.243586 " transform="matrix(0.816778, 0, 0, -0.816778, 16.097881, 16.970184)"/>
<g fill="rgb(0%, 0%, 0%)" fill-opacity="1">
<use xlink:href="#glyph-0-0" x="123.6512" y="148.612735"/>
<use xlink:href="#glyph-0-10" x="127.763746" y="148.612735"/>
</g>
<path fill="none" stroke-width="0.3985" stroke-linecap="butt" stroke-linejoin="miter" stroke="rgb(0%, 0%, 0%)" stroke-opacity="1" stroke-miterlimit="10" d="M -0.000275261 -169.203505 L -0.000275261 -182.164112 L 122.403327 -182.164112 L 122.403327 -169.203505 Z M -0.000275261 -169.203505 " transform="matrix(0.816778, 0, 0, -0.816778, 16.097881, 16.970184)"/>
<path fill="none" stroke-width="0.3985" stroke-linecap="butt" stroke-linejoin="miter" stroke="rgb(0%, 0%, 0%)" stroke-opacity="1" stroke-miterlimit="10" d="M 61.201526 -169.203505 L 61.201526 -182.164112 " transform="matrix(0.816778, 0, 0, -0.816778, 16.097881, 16.970184)"/>
<path fill="none" stroke-width="0.3985" stroke-linecap="butt" stroke-linejoin="miter" stroke="rgb(0%, 0%, 0%)" stroke-opacity="1" stroke-miterlimit="10" d="M 91.800035 -169.203505 L 91.800035 -182.164112 " transform="matrix(0.816778, 0, 0, -0.816778, 16.097881, 16.970184)"/>
<path fill="none" stroke-width="0.3985" stroke-linecap="butt" stroke-linejoin="miter" stroke="rgb(0%, 0%, 0%)" stroke-opacity="1" stroke-miterlimit="10" d="M 107.13755 -169.203505 L 107.13755 -182.164112 " transform="matrix(0.816778, 0, 0, -0.816778, 16.097881, 16.970184)"/>
<g fill="rgb(0%, 0%, 0%)" fill-opacity="1">
<use xlink:href="#glyph-0-0" x="123.6512" y="162.432618"/>
<use xlink:href="#glyph-0-2" x="127.763746" y="162.432618"/>
<use xlink:href="#glyph-0-1" x="130.930747" y="162.432618"/>
</g>
<path fill="none" stroke-width="0.3985" stroke-linecap="butt" stroke-linejoin="miter" stroke="rgb(0%, 0%, 0%)" stroke-opacity="1" stroke-miterlimit="10" d="M -0.000275261 -186.124032 L -0.000275261 -199.084638 L 122.403327 -199.084638 L 122.403327 -186.124032 Z M -0.000275261 -186.124032 " transform="matrix(0.816778, 0, 0, -0.816778, 16.097881, 16.970184)"/>
<path fill="none" stroke-width="0.3985" stroke-linecap="butt" stroke-linejoin="miter" stroke="rgb(0%, 0%, 0%)" stroke-opacity="1" stroke-miterlimit="10" d="M 61.201526 -186.124032 L 61.201526 -199.084638 " transform="matrix(0.816778, 0, 0, -0.816778, 16.097881, 16.970184)"/>
<path fill="none" stroke-width="0.3985" stroke-linecap="butt" stroke-linejoin="miter" stroke="rgb(0%, 0%, 0%)" stroke-opacity="1" stroke-miterlimit="10" d="M 91.800035 -186.124032 L 91.800035 -199.084638 " transform="matrix(0.816778, 0, 0, -0.816778, 16.097881, 16.970184)"/>
<path fill="none" stroke-width="0.3985" stroke-linecap="butt" stroke-linejoin="miter" stroke="rgb(0%, 0%, 0%)" stroke-opacity="1" stroke-miterlimit="10" d="M 107.13755 -186.124032 L 107.13755 -199.084638 " transform="matrix(0.816778, 0, 0, -0.816778, 16.097881, 16.970184)"/>
<g fill="rgb(0%, 0%, 0%)" fill-opacity="1">
<use xlink:href="#glyph-0-0" x="123.6512" y="176.311309"/>
<use xlink:href="#glyph-0-2" x="127.763746" y="176.311309"/>
<use xlink:href="#glyph-0-2" x="130.930747" y="176.311309"/>
</g>
<path fill="none" stroke-width="0.3985" stroke-linecap="butt" stroke-linejoin="miter" stroke="rgb(0%, 0%, 0%)" stroke-opacity="1" stroke-miterlimit="10" d="M -0.000275261 -203.044558 L -0.000275261 -216.000382 L 122.403327 -216.000382 L 122.403327 -203.044558 Z M -0.000275261 -203.044558 " transform="matrix(0.816778, 0, 0, -0.816778, 16.097881, 16.970184)"/>
<path fill="none" stroke-width="0.3985" stroke-linecap="butt" stroke-linejoin="miter" stroke="rgb(0%, 0%, 0%)" stroke-opacity="1" stroke-miterlimit="10" d="M 61.201526 -203.044558 L 61.201526 -216.000382 " transform="matrix(0.816778, 0, 0, -0.816778, 16.097881, 16.970184)"/>
<path fill="none" stroke-width="0.3985" stroke-linecap="butt" stroke-linejoin="miter" stroke="rgb(0%, 0%, 0%)" stroke-opacity="1" stroke-miterlimit="10" d="M 91.800035 -203.044558 L 91.800035 -216.000382 " transform="matrix(0.816778, 0, 0, -0.816778, 16.097881, 16.970184)"/>
<path fill="none" stroke-width="0.3985" stroke-linecap="butt" stroke-linejoin="miter" stroke="rgb(0%, 0%, 0%)" stroke-opacity="1" stroke-miterlimit="10" d="M 107.13755 -203.044558 L 107.13755 -216.000382 " transform="matrix(0.816778, 0, 0, -0.816778, 16.097881, 16.970184)"/>
<g fill="rgb(0%, 0%, 0%)" fill-opacity="1">
<use xlink:href="#glyph-0-0" x="123.6512" y="190.131192"/>
<use xlink:href="#glyph-0-2" x="127.763746" y="190.131192"/>
<use xlink:href="#glyph-0-3" x="130.930747" y="190.131192"/>
</g>
<path fill="none" stroke-width="0.3985" stroke-linecap="butt" stroke-linejoin="miter" stroke="rgb(0%, 0%, 0%)" stroke-opacity="1" stroke-miterlimit="10" d="M -0.000275261 -219.965084 L -0.000275261 -232.920908 L 122.403327 -232.920908 L 122.403327 -219.965084 Z M -0.000275261 -219.965084 " transform="matrix(0.816778, 0, 0, -0.816778, 16.097881, 16.970184)"/>
<path fill="none" stroke-width="0.3985" stroke-linecap="butt" stroke-linejoin="miter" stroke="rgb(0%, 0%, 0%)" stroke-opacity="1" stroke-miterlimit="10" d="M 61.201526 -219.965084 L 61.201526 -232.920908 " transform="matrix(0.816778, 0, 0, -0.816778, 16.097881, 16.970184)"/>
<path fill="none" stroke-width="0.3985" stroke-linecap="butt" stroke-linejoin="miter" stroke="rgb(0%, 0%, 0%)" stroke-opacity="1" stroke-miterlimit="10" d="M 91.800035 -219.965084 L 91.800035 -232.920908 " transform="matrix(0.816778, 0, 0, -0.816778, 16.097881, 16.970184)"/>
<path fill="none" stroke-width="0.3985" stroke-linecap="butt" stroke-linejoin="miter" stroke="rgb(0%, 0%, 0%)" stroke-opacity="1" stroke-miterlimit="10" d="M 107.13755 -219.965084 L 107.13755 -232.920908 " transform="matrix(0.816778, 0, 0, -0.816778, 16.097881, 16.970184)"/>
<g fill="rgb(0%, 0%, 0%)" fill-opacity="1">
<use xlink:href="#glyph-0-0" x="123.6512" y="203.893083"/>
<use xlink:href="#glyph-0-2" x="127.763746" y="203.893083"/>
<use xlink:href="#glyph-0-4" x="130.930747" y="203.893083"/>
</g>
<path fill="none" stroke-width="0.3985" stroke-linecap="butt" stroke-linejoin="miter" stroke="rgb(0%, 0%, 0%)" stroke-opacity="1" stroke-miterlimit="10" d="M -0.000275261 -236.88561 L -0.000275261 -249.841434 L 122.403327 -249.841434 L 122.403327 -236.88561 Z M -0.000275261 -236.88561 " transform="matrix(0.816778, 0, 0, -0.816778, 16.097881, 16.970184)"/>
<path fill="none" stroke-width="0.3985" stroke-linecap="butt" stroke-linejoin="miter" stroke="rgb(0%, 0%, 0%)" stroke-opacity="1" stroke-miterlimit="10" d="M 61.201526 -236.88561 L 61.201526 -249.841434 " transform="matrix(0.816778, 0, 0, -0.816778, 16.097881, 16.970184)"/>
<path fill="none" stroke-width="0.3985" stroke-linecap="butt" stroke-linejoin="miter" stroke="rgb(0%, 0%, 0%)" stroke-opacity="1" stroke-miterlimit="10" d="M 91.800035 -236.88561 L 91.800035 -249.841434 " transform="matrix(0.816778, 0, 0, -0.816778, 16.097881, 16.970184)"/>
<path fill="none" stroke-width="0.3985" stroke-linecap="butt" stroke-linejoin="miter" stroke="rgb(0%, 0%, 0%)" stroke-opacity="1" stroke-miterlimit="10" d="M 107.13755 -236.88561 L 107.13755 -249.841434 " transform="matrix(0.816778, 0, 0, -0.816778, 16.097881, 16.970184)"/>
<g fill="rgb(0%, 0%, 0%)" fill-opacity="1">
<use xlink:href="#glyph-0-0" x="123.6512" y="217.770957"/>
<use xlink:href="#glyph-0-2" x="127.763746" y="217.770957"/>
<use xlink:href="#glyph-0-5" x="130.930747" y="217.770957"/>
</g>
<path fill="none" stroke-width="0.3985" stroke-linecap="butt" stroke-linejoin="miter" stroke="rgb(0%, 0%, 0%)" stroke-opacity="1" stroke-miterlimit="10" d="M -0.000275261 -253.806136 L -0.000275261 -266.76196 L 122.403327 -266.76196 L 122.403327 -253.806136 Z M -0.000275261 -253.806136 " transform="matrix(0.816778, 0, 0, -0.816778, 16.097881, 16.970184)"/>
<path fill="none" stroke-width="0.3985" stroke-linecap="butt" stroke-linejoin="miter" stroke="rgb(0%, 0%, 0%)" stroke-opacity="1" stroke-miterlimit="10" d="M 61.201526 -253.806136 L 61.201526 -266.76196 " transform="matrix(0.816778, 0, 0, -0.816778, 16.097881, 16.970184)"/>
<path fill="none" stroke-width="0.3985" stroke-linecap="butt" stroke-linejoin="miter" stroke="rgb(0%, 0%, 0%)" stroke-opacity="1" stroke-miterlimit="10" d="M 91.800035 -253.806136 L 91.800035 -266.76196 " transform="matrix(0.816778, 0, 0, -0.816778, 16.097881, 16.970184)"/>
<path fill="none" stroke-width="0.3985" stroke-linecap="butt" stroke-linejoin="miter" stroke="rgb(0%, 0%, 0%)" stroke-opacity="1" stroke-miterlimit="10" d="M 107.13755 -253.806136 L 107.13755 -266.76196 " transform="matrix(0.816778, 0, 0, -0.816778, 16.097881, 16.970184)"/>
<g fill="rgb(0%, 0%, 0%)" fill-opacity="1">
<use xlink:href="#glyph-0-0" x="123.6512" y="231.532849"/>
<use xlink:href="#glyph-0-2" x="127.763746" y="231.532849"/>
<use xlink:href="#glyph-0-6" x="130.930747" y="231.532849"/>
</g>
<g fill="rgb(0%, 0%, 0%)" fill-opacity="1">
<use xlink:href="#glyph-0-7" x="12.931233" y="12.802166"/>
<use xlink:href="#glyph-0-4" x="16.098235" y="12.802166"/>
</g>
<g fill="rgb(0%, 0%, 0%)" fill-opacity="1">
<use xlink:href="#glyph-0-4" x="62.918043" y="12.802166"/>
<use xlink:href="#glyph-0-2" x="66.085045" y="12.802166"/>
</g>
<g fill="rgb(0%, 0%, 0%)" fill-opacity="1">
<use xlink:href="#glyph-0-2" x="87.910631" y="12.802166"/>
<use xlink:href="#glyph-0-6" x="91.077633" y="12.802166"/>
</g>
<g fill="rgb(0%, 0%, 0%)" fill-opacity="1">
<use xlink:href="#glyph-0-8" x="102.021287" y="12.918966"/>
</g>
<g fill="rgb(0%, 0%, 0%)" fill-opacity="1">
<use xlink:href="#glyph-0-1" x="114.487769" y="12.802166"/>
</g>
<path fill="none" stroke-width="0.3985" stroke-linecap="butt" stroke-linejoin="miter" stroke="rgb(0%, 0%, 0%)" stroke-opacity="1" stroke-miterlimit="10" d="M 164.164219 0.00175593 L 174.240971 0.00175593 L 174.240971 -266.76196 L 164.164219 -266.76196 " transform="matrix(0.816778, 0, 0, -0.816778, 16.097881, 16.970184)"/>
<g fill="rgb(0%, 0%, 0%)" fill-opacity="1">
<use xlink:href="#glyph-0-11" x="171.87377" y="121.11999"/>
<use xlink:href="#glyph-0-12" x="176.305294" y="121.11999"/>
<use xlink:href="#glyph-0-13" x="180.104556" y="121.11999"/>
<use xlink:href="#glyph-0-12" x="184.217102" y="121.11999"/>
<use xlink:href="#glyph-0-0" x="188.016364" y="121.11999"/>
<use xlink:href="#glyph-0-14" x="192.12891" y="121.11999"/>
<use xlink:href="#glyph-0-15" x="195.928172" y="121.11999"/>
</g>
<g fill="rgb(0%, 0%, 0%)" fill-opacity="1">
<use xlink:href="#glyph-0-0" x="171.87377" y="127.867392"/>
<use xlink:href="#glyph-0-12" x="175.986315" y="127.867392"/>
<use xlink:href="#glyph-0-11" x="179.785578" y="127.867392"/>
<use xlink:href="#glyph-0-16" x="184.217102" y="127.867392"/>
<use xlink:href="#glyph-0-17" x="185.800603" y="127.867392"/>
<use xlink:href="#glyph-0-18" x="189.599865" y="127.867392"/>
<use xlink:href="#glyph-0-12" x="193.080149" y="127.867392"/>
<use xlink:href="#glyph-0-0" x="196.879412" y="127.867392"/>
<use xlink:href="#glyph-0-17" x="200.991957" y="127.867392"/>
</g>
<g fill="rgb(0%, 0%, 0%)" fill-opacity="1">
<use xlink:href="#glyph-0-0" x="171.87377" y="134.48411"/>
<use xlink:href="#glyph-0-1" x="175.986315" y="134.48411"/>
<use xlink:href="#glyph-0-19" x="179.153317" y="134.48411"/>
<use xlink:href="#glyph-0-0" x="182.320318" y="134.48411"/>
<use xlink:href="#glyph-0-2" x="186.432864" y="134.48411"/>
<use xlink:href="#glyph-0-6" x="189.599865" y="134.48411"/>
</g>
<path fill="none" stroke-width="0.3985" stroke-linecap="butt" stroke-linejoin="miter" stroke="rgb(0%, 0%, 0%)" stroke-opacity="1" stroke-miterlimit="10" d="M -0.000275261 -291.602325 L -0.000275261 -304.562932 L 122.403327 -304.562932 L 122.403327 -291.602325 Z M -0.000275261 -291.602325 " transform="matrix(0.816778, 0, 0, -0.816778, 16.097881, 16.970184)"/>
<g fill="rgb(0%, 0%, 0%)" fill-opacity="1">
<use xlink:href="#glyph-0-17" x="123.6512" y="262.47158"/>
<use xlink:href="#glyph-0-20" x="127.450463" y="262.47158"/>
</g>
<path fill="none" stroke-width="0.3985" stroke-linecap="butt" stroke-linejoin="miter" stroke="rgb(0%, 0%, 0%)" stroke-opacity="1" stroke-miterlimit="10" d="M -0.000275261 -311.765394 L -0.000275261 -324.726001 L 122.403327 -324.726001 L 122.403327 -311.765394 Z M -0.000275261 -311.765394 " transform="matrix(0.816778, 0, 0, -0.816778, 16.097881, 16.970184)"/>
<g fill="rgb(0%, 0%, 0%)" fill-opacity="1">
<use xlink:href="#glyph-0-20" x="123.6512" y="278.937824"/>
<use xlink:href="#glyph-0-21" x="127.450463" y="278.937824"/>
</g>
<path fill="none" stroke-width="0.3985" stroke-linecap="butt" stroke-linejoin="miter" stroke="rgb(0%, 0%, 0%)" stroke-opacity="1" stroke-miterlimit="10" d="M 164.164219 -291.602325 L 174.240971 -291.602325 L 174.240971 -324.726001 L 164.164219 -324.726001 " transform="matrix(0.816778, 0, 0, -0.816778, 16.097881, 16.970184)"/>
<g fill="rgb(0%, 0%, 0%)" fill-opacity="1">
<use xlink:href="#glyph-0-17" x="171.87377" y="267.331409"/>
<use xlink:href="#glyph-0-20" x="175.673033" y="267.331409"/>
<use xlink:href="#glyph-0-12" x="179.472295" y="267.331409"/>
<use xlink:href="#glyph-0-21" x="183.271558" y="267.331409"/>
<use xlink:href="#glyph-0-16" x="187.384103" y="267.331409"/>
<use xlink:href="#glyph-0-14" x="188.967604" y="267.331409"/>
<use xlink:href="#glyph-0-15" x="192.766867" y="267.331409"/>
</g>
<g fill="rgb(0%, 0%, 0%)" fill-opacity="1">
<use xlink:href="#glyph-0-0" x="171.87377" y="274.078812"/>
<use xlink:href="#glyph-0-12" x="175.986315" y="274.078812"/>
<use xlink:href="#glyph-0-11" x="179.785578" y="274.078812"/>
<use xlink:href="#glyph-0-16" x="184.217102" y="274.078812"/>
<use xlink:href="#glyph-0-17" x="185.800603" y="274.078812"/>
<use xlink:href="#glyph-0-18" x="189.599865" y="274.078812"/>
<use xlink:href="#glyph-0-12" x="193.080149" y="274.078812"/>
<use xlink:href="#glyph-0-0" x="196.879412" y="274.078812"/>
<use xlink:href="#glyph-0-17" x="200.991957" y="274.078812"/>
</g>
<path fill="none" stroke-width="0.3985" stroke-linecap="butt" stroke-linejoin="miter" stroke="rgb(0%, 0%, 0%)" stroke-opacity="1" stroke-miterlimit="10" d="M 91.800035 -349.925055 L 91.800035 -362.885661 L 122.403327 -362.885661 L 122.403327 -349.925055 Z M 91.800035 -349.925055 " transform="matrix(0.816778, 0, 0, -0.816778, 16.097881, 16.970184)"/>
<g fill="rgb(0%, 0%, 0%)" fill-opacity="1">
<use xlink:href="#glyph-0-22" x="123.6512" y="310.10607"/>
<use xlink:href="#glyph-0-15" x="127.131484" y="310.10607"/>
<use xlink:href="#glyph-0-14" x="130.298486" y="310.10607"/>
</g>
<g fill="rgb(0%, 0%, 0%)" fill-opacity="1">
<use xlink:href="#glyph-0-11" x="133.926867" y="310.10607"/>
<use xlink:href="#glyph-0-17" x="138.358391" y="310.10607"/>
</g>
<path fill="none" stroke-width="0.3985" stroke-linecap="butt" stroke-linejoin="miter" stroke="rgb(0%, 0%, 0%)" stroke-opacity="1" stroke-miterlimit="10" d="M 91.800035 -369.365965 L 91.800035 -382.326571 L 122.403327 -382.326571 L 122.403327 -369.365965 Z M 91.800035 -369.365965 " transform="matrix(0.816778, 0, 0, -0.816778, 16.097881, 16.970184)"/>
<g fill="rgb(0%, 0%, 0%)" fill-opacity="1">
<use xlink:href="#glyph-0-17" x="123.6512" y="325.984233"/>
<use xlink:href="#glyph-0-18" x="127.450463" y="325.984233"/>
</g>
<g fill="rgb(0%, 0%, 0%)" fill-opacity="1">
<use xlink:href="#glyph-0-14" x="130.247222" y="325.984233"/>
</g>
<g fill="rgb(0%, 0%, 0%)" fill-opacity="1">
<use xlink:href="#glyph-0-18" x="133.362959" y="325.984233"/>
<use xlink:href="#glyph-0-23" x="136.843243" y="325.984233"/>
<use xlink:href="#glyph-0-17" x="140.955788" y="325.984233"/>
</g>
<path fill="none" stroke-width="0.3985" stroke-linecap="butt" stroke-linejoin="miter" stroke="rgb(0%, 0%, 0%)" stroke-opacity="1" stroke-miterlimit="10" d="M 164.164219 -349.925055 L 174.240971 -349.925055 L 174.240971 -382.326571 L 164.164219 -382.326571 " transform="matrix(0.816778, 0, 0, -0.816778, 16.097881, 16.970184)"/>
<g fill="rgb(0%, 0%, 0%)" fill-opacity="1">
<use xlink:href="#glyph-0-16" x="171.87377" y="314.377818"/>
<use xlink:href="#glyph-0-13" x="173.457271" y="314.377818"/>
<use xlink:href="#glyph-0-18" x="177.569816" y="314.377818"/>
<use xlink:href="#glyph-0-12" x="181.0501" y="314.377818"/>
<use xlink:href="#glyph-0-11" x="184.849363" y="314.377818"/>
<use xlink:href="#glyph-0-12" x="189.280887" y="314.377818"/>
<use xlink:href="#glyph-0-0" x="193.080149" y="314.377818"/>
</g>
<g fill="rgb(0%, 0%, 0%)" fill-opacity="1">
<use xlink:href="#glyph-0-17" x="171.87377" y="321.125221"/>
<use xlink:href="#glyph-0-18" x="175.673033" y="321.125221"/>
</g>
<g fill="rgb(0%, 0%, 0%)" fill-opacity="1">
<use xlink:href="#glyph-0-14" x="178.469791" y="321.125221"/>
</g>
<g fill="rgb(0%, 0%, 0%)" fill-opacity="1">
<use xlink:href="#glyph-0-18" x="181.585528" y="321.125221"/>
<use xlink:href="#glyph-0-12" x="185.065813" y="321.125221"/>
</g>
<path fill="none" stroke-width="0.3985" stroke-linecap="butt" stroke-linejoin="miter" stroke="rgb(0%, 0%, 0%)" stroke-opacity="1" stroke-miterlimit="10" d="M 248.403379 0.00175593 L 248.403379 -12.958851 L 370.802199 -12.958851 L 370.802199 0.00175593 Z M 248.403379 0.00175593 " transform="matrix(0.816778, 0, 0, -0.816778, 16.097881, 16.970184)"/>
<path fill="none" stroke-width="0.3985" stroke-linecap="butt" stroke-linejoin="miter" stroke="rgb(0%, 0%, 0%)" stroke-opacity="1" stroke-miterlimit="10" d="M 309.60518 0.00175593 L 309.60518 -12.958851 " transform="matrix(0.816778, 0, 0, -0.816778, 16.097881, 16.970184)"/>
<g fill="rgb(0%, 0%, 0%)" fill-opacity="1">
<use xlink:href="#glyph-0-22" x="326.538841" y="24.23379"/>
<use xlink:href="#glyph-0-1" x="330.019125" y="24.23379"/>
</g>
<path fill="none" stroke-width="0.3985" stroke-linecap="butt" stroke-linejoin="miter" stroke="rgb(0%, 0%, 0%)" stroke-opacity="1" stroke-miterlimit="10" d="M 248.403379 -16.91877 L 248.403379 -29.879377 L 370.802199 -29.879377 L 370.802199 -16.91877 Z M 248.403379 -16.91877 " transform="matrix(0.816778, 0, 0, -0.816778, 16.097881, 16.970184)"/>
<path fill="none" stroke-width="0.3985" stroke-linecap="butt" stroke-linejoin="miter" stroke="rgb(0%, 0%, 0%)" stroke-opacity="1" stroke-miterlimit="10" d="M 309.60518 -16.91877 L 309.60518 -29.879377 " transform="matrix(0.816778, 0, 0, -0.816778, 16.097881, 16.970184)"/>
<g fill="rgb(0%, 0%, 0%)" fill-opacity="1">
<use xlink:href="#glyph-0-22" x="326.538841" y="38.111664"/>
<use xlink:href="#glyph-0-2" x="330.019125" y="38.111664"/>
</g>
<path fill="none" stroke-width="0.3985" stroke-linecap="butt" stroke-linejoin="miter" stroke="rgb(0%, 0%, 0%)" stroke-opacity="1" stroke-miterlimit="10" d="M 248.403379 -33.839296 L 248.403379 -46.799903 L 370.802199 -46.799903 L 370.802199 -33.839296 Z M 248.403379 -33.839296 " transform="matrix(0.816778, 0, 0, -0.816778, 16.097881, 16.970184)"/>
<path fill="none" stroke-width="0.3985" stroke-linecap="butt" stroke-linejoin="miter" stroke="rgb(0%, 0%, 0%)" stroke-opacity="1" stroke-miterlimit="10" d="M 309.60518 -33.839296 L 309.60518 -46.799903 " transform="matrix(0.816778, 0, 0, -0.816778, 16.097881, 16.970184)"/>
<g fill="rgb(0%, 0%, 0%)" fill-opacity="1">
<use xlink:href="#glyph-0-22" x="326.538841" y="51.932364"/>
<use xlink:href="#glyph-0-3" x="330.019125" y="51.932364"/>
</g>
<path fill="none" stroke-width="0.3985" stroke-linecap="butt" stroke-linejoin="miter" stroke="rgb(0%, 0%, 0%)" stroke-opacity="1" stroke-miterlimit="10" d="M 248.403379 -50.759822 L 248.403379 -63.720429 L 370.802199 -63.720429 L 370.802199 -50.759822 Z M 248.403379 -50.759822 " transform="matrix(0.816778, 0, 0, -0.816778, 16.097881, 16.970184)"/>
<path fill="none" stroke-width="0.3985" stroke-linecap="butt" stroke-linejoin="miter" stroke="rgb(0%, 0%, 0%)" stroke-opacity="1" stroke-miterlimit="10" d="M 309.60518 -50.759822 L 309.60518 -63.720429 " transform="matrix(0.816778, 0, 0, -0.816778, 16.097881, 16.970184)"/>
<g fill="rgb(0%, 0%, 0%)" fill-opacity="1">
<use xlink:href="#glyph-0-24" x="326.538841" y="64.024761"/>
<use xlink:href="#glyph-0-24" x="328.122342" y="64.024761"/>
<use xlink:href="#glyph-0-24" x="329.705843" y="64.024761"/>
</g>
<path fill="none" stroke-width="0.3985" stroke-linecap="butt" stroke-linejoin="miter" stroke="rgb(0%, 0%, 0%)" stroke-opacity="1" stroke-miterlimit="10" d="M 248.403379 -67.680349 L 248.403379 -80.640955 L 370.802199 -80.640955 L 370.802199 -67.680349 Z M 248.403379 -67.680349 " transform="matrix(0.816778, 0, 0, -0.816778, 16.097881, 16.970184)"/>
<path fill="none" stroke-width="0.3985" stroke-linecap="butt" stroke-linejoin="miter" stroke="rgb(0%, 0%, 0%)" stroke-opacity="1" stroke-miterlimit="10" d="M 309.60518 -67.680349 L 309.60518 -80.640955 " transform="matrix(0.816778, 0, 0, -0.816778, 16.097881, 16.970184)"/>
<g fill="rgb(0%, 0%, 0%)" fill-opacity="1">
<use xlink:href="#glyph-0-22" x="326.538841" y="79.513321"/>
<use xlink:href="#glyph-0-2" x="330.019125" y="79.513321"/>
<use xlink:href="#glyph-0-6" x="333.186127" y="79.513321"/>
</g>
<g fill="rgb(0%, 0%, 0%)" fill-opacity="1">
<use xlink:href="#glyph-0-7" x="215.818057" y="12.802166"/>
<use xlink:href="#glyph-0-4" x="218.985058" y="12.802166"/>
</g>
<g fill="rgb(0%, 0%, 0%)" fill-opacity="1">
<use xlink:href="#glyph-0-4" x="265.805684" y="12.802166"/>
<use xlink:href="#glyph-0-2" x="268.972685" y="12.802166"/>
</g>
<g fill="rgb(0%, 0%, 0%)" fill-opacity="1">
<use xlink:href="#glyph-0-1" x="317.375409" y="12.802166"/>
</g>
<path fill="none" stroke-width="0.3985" stroke-linecap="butt" stroke-linejoin="miter" stroke="rgb(0%, 0%, 0%)" stroke-opacity="1" stroke-miterlimit="10" d="M 412.56309 0.00175593 L 422.644625 0.00175593 L 422.644625 -80.640955 L 412.56309 -80.640955 " transform="matrix(0.816778, 0, 0, -0.816778, 16.097881, 16.970184)"/>
<g fill="rgb(0%, 0%, 0%)" fill-opacity="1">
<use xlink:href="#glyph-0-22" x="374.761411" y="48.565605"/>
<use xlink:href="#glyph-0-15" x="378.241695" y="48.565605"/>
<use xlink:href="#glyph-0-25" x="381.408696" y="48.565605"/>
</g>
<g fill="rgb(0%, 0%, 0%)" fill-opacity="1">
<use xlink:href="#glyph-0-14" x="385.726299" y="48.565605"/>
</g>
<g fill="rgb(0%, 0%, 0%)" fill-opacity="1">
<use xlink:href="#glyph-0-18" x="388.842036" y="48.565605"/>
<use xlink:href="#glyph-0-16" x="392.32232" y="48.565605"/>
<use xlink:href="#glyph-0-13" x="393.905821" y="48.565605"/>
<use xlink:href="#glyph-0-11" x="398.018366" y="48.565605"/>
<use xlink:href="#glyph-0-26" x="402.44989" y="48.565605"/>
<use xlink:href="#glyph-0-20" x="404.346674" y="48.565605"/>
<use xlink:href="#glyph-0-25" x="408.145936" y="48.565605"/>
<use xlink:href="#glyph-0-16" x="412.57746" y="48.565605"/>
<use xlink:href="#glyph-0-13" x="414.160961" y="48.565605"/>
<use xlink:href="#glyph-0-18" x="418.273506" y="48.565605"/>
</g>
<g fill="rgb(0%, 0%, 0%)" fill-opacity="1">
<use xlink:href="#glyph-0-0" x="374.761411" y="55.313008"/>
<use xlink:href="#glyph-0-12" x="378.873956" y="55.313008"/>
<use xlink:href="#glyph-0-11" x="382.673219" y="55.313008"/>
<use xlink:href="#glyph-0-16" x="387.104742" y="55.313008"/>
<use xlink:href="#glyph-0-17" x="388.688243" y="55.313008"/>
<use xlink:href="#glyph-0-18" x="392.487506" y="55.313008"/>
<use xlink:href="#glyph-0-12" x="395.96779" y="55.313008"/>
<use xlink:href="#glyph-0-0" x="399.767053" y="55.313008"/>
<use xlink:href="#glyph-0-17" x="403.879598" y="55.313008"/>
</g>
<path fill="none" stroke-width="0.3985" stroke-linecap="butt" stroke-linejoin="miter" stroke="rgb(0%, 0%, 0%)" stroke-opacity="1" stroke-miterlimit="10" d="M 340.203689 -104.400473 L 340.203689 -117.361079 L 370.802199 -117.361079 L 370.802199 -104.400473 Z M 340.203689 -104.400473 " transform="matrix(0.816778, 0, 0, -0.816778, 16.097881, 16.970184)"/>
<g fill="rgb(0%, 0%, 0%)" fill-opacity="1">
<use xlink:href="#glyph-0-22" x="326.538841" y="109.57075"/>
<use xlink:href="#glyph-0-22" x="330.019125" y="109.57075"/>
<use xlink:href="#glyph-0-15" x="333.499409" y="109.57075"/>
<use xlink:href="#glyph-0-14" x="336.666411" y="109.57075"/>
</g>
<g fill="rgb(0%, 0%, 0%)" fill-opacity="1">
<use xlink:href="#glyph-0-11" x="340.294792" y="109.57075"/>
<use xlink:href="#glyph-0-17" x="344.726316" y="109.57075"/>
</g>
<path fill="none" stroke-width="0.3985" stroke-linecap="butt" stroke-linejoin="miter" stroke="rgb(0%, 0%, 0%)" stroke-opacity="1" stroke-miterlimit="10" d="M 340.203689 -123.841383 L 340.203689 -136.801989 L 370.802199 -136.801989 L 370.802199 -123.841383 Z M 340.203689 -123.841383 " transform="matrix(0.816778, 0, 0, -0.816778, 16.097881, 16.970184)"/>
<g fill="rgb(0%, 0%, 0%)" fill-opacity="1">
<use xlink:href="#glyph-0-22" x="326.538841" y="125.448913"/>
<use xlink:href="#glyph-0-17" x="330.019125" y="125.448913"/>
<use xlink:href="#glyph-0-18" x="333.818388" y="125.448913"/>
</g>
<g fill="rgb(0%, 0%, 0%)" fill-opacity="1">
<use xlink:href="#glyph-0-14" x="336.615146" y="125.448913"/>
</g>
<g fill="rgb(0%, 0%, 0%)" fill-opacity="1">
<use xlink:href="#glyph-0-18" x="339.730884" y="125.448913"/>
<use xlink:href="#glyph-0-23" x="343.211168" y="125.448913"/>
<use xlink:href="#glyph-0-17" x="347.323713" y="125.448913"/>
</g>
<path fill="none" stroke-width="0.3985" stroke-linecap="butt" stroke-linejoin="miter" stroke="rgb(0%, 0%, 0%)" stroke-opacity="1" stroke-miterlimit="10" d="M 412.56309 -104.400473 L 422.644625 -104.400473 L 422.644625 -136.801989 L 412.56309 -136.801989 " transform="matrix(0.816778, 0, 0, -0.816778, 16.097881, 16.970184)"/>
<g fill="rgb(0%, 0%, 0%)" fill-opacity="1">
<use xlink:href="#glyph-0-22" x="374.761411" y="114.071196"/>
<use xlink:href="#glyph-0-20" x="378.241695" y="114.071196"/>
<use xlink:href="#glyph-0-23" x="382.040957" y="114.071196"/>
</g>
<g fill="rgb(0%, 0%, 0%)" fill-opacity="1">
<use xlink:href="#glyph-0-17" x="374.761411" y="120.818599"/>
<use xlink:href="#glyph-0-18" x="378.560673" y="120.818599"/>
</g>
<g fill="rgb(0%, 0%, 0%)" fill-opacity="1">
<use xlink:href="#glyph-0-14" x="381.357432" y="120.818599"/>
</g>
<g fill="rgb(0%, 0%, 0%)" fill-opacity="1">
<use xlink:href="#glyph-0-18" x="384.473169" y="120.818599"/>
<use xlink:href="#glyph-0-12" x="387.953453" y="120.818599"/>
</g>
<path fill="none" stroke-width="0.3985" stroke-linecap="butt" stroke-linejoin="miter" stroke="rgb(0%, 0%, 0%)" stroke-opacity="1" stroke-miterlimit="10" d="M 248.403379 -162.001043 L 248.403379 -174.961649 L 370.802199 -174.961649 L 370.802199 -162.001043 Z M 248.403379 -162.001043 " transform="matrix(0.816778, 0, 0, -0.816778, 16.097881, 16.970184)"/>
<g fill="rgb(0%, 0%, 0%)" fill-opacity="1">
<use xlink:href="#glyph-0-21" x="326.538841" y="156.617159"/>
<use xlink:href="#glyph-0-17" x="330.651386" y="156.617159"/>
</g>
<path fill="none" stroke-width="0.3985" stroke-linecap="butt" stroke-linejoin="miter" stroke="rgb(0%, 0%, 0%)" stroke-opacity="1" stroke-miterlimit="10" d="M 248.403379 -178.921569 L 248.403379 -191.882176 L 370.802199 -191.882176 L 370.802199 -178.921569 Z M 248.403379 -178.921569 " transform="matrix(0.816778, 0, 0, -0.816778, 16.097881, 16.970184)"/>
<g fill="rgb(0%, 0%, 0%)" fill-opacity="1">
<use xlink:href="#glyph-0-27" x="326.538841" y="170.437042"/>
<use xlink:href="#glyph-0-17" x="330.651386" y="170.437042"/>
</g>
<path fill="none" stroke-width="0.3985" stroke-linecap="butt" stroke-linejoin="miter" stroke="rgb(0%, 0%, 0%)" stroke-opacity="1" stroke-miterlimit="10" d="M 248.403379 -195.842095 L 248.403379 -208.802702 L 370.802199 -208.802702 L 370.802199 -195.842095 Z M 248.403379 -195.842095 " transform="matrix(0.816778, 0, 0, -0.816778, 16.097881, 16.970184)"/>
<g fill="rgb(0%, 0%, 0%)" fill-opacity="1">
<use xlink:href="#glyph-0-17" x="326.538841" y="184.256925"/>
<use xlink:href="#glyph-0-17" x="330.338104" y="184.256925"/>
</g>
<path fill="none" stroke-width="0.3985" stroke-linecap="butt" stroke-linejoin="miter" stroke="rgb(0%, 0%, 0%)" stroke-opacity="1" stroke-miterlimit="10" d="M 248.403379 -212.762621 L 248.403379 -225.723228 L 370.802199 -225.723228 L 370.802199 -212.762621 Z M 248.403379 -212.762621 " transform="matrix(0.816778, 0, 0, -0.816778, 16.097881, 16.970184)"/>
<g fill="rgb(0%, 0%, 0%)" fill-opacity="1">
<use xlink:href="#glyph-0-11" x="326.538841" y="198.076807"/>
<use xlink:href="#glyph-0-17" x="330.970365" y="198.076807"/>
<use xlink:href="#glyph-0-1" x="334.769627" y="198.076807"/>
</g>
<path fill="none" stroke-width="0.3985" stroke-linecap="butt" stroke-linejoin="miter" stroke="rgb(0%, 0%, 0%)" stroke-opacity="1" stroke-miterlimit="10" d="M 248.403379 -229.683147 L 248.403379 -242.643754 L 370.802199 -242.643754 L 370.802199 -229.683147 Z M 248.403379 -229.683147 " transform="matrix(0.816778, 0, 0, -0.816778, 16.097881, 16.970184)"/>
<g fill="rgb(0%, 0%, 0%)" fill-opacity="1">
<use xlink:href="#glyph-0-11" x="326.538841" y="211.89669"/>
<use xlink:href="#glyph-0-17" x="330.970365" y="211.89669"/>
<use xlink:href="#glyph-0-2" x="334.769627" y="211.89669"/>
</g>
<path fill="none" stroke-width="0.3985" stroke-linecap="butt" stroke-linejoin="miter" stroke="rgb(0%, 0%, 0%)" stroke-opacity="1" stroke-miterlimit="10" d="M 248.403379 -246.603674 L 248.403379 -259.56428 L 370.802199 -259.56428 L 370.802199 -246.603674 Z M 248.403379 -246.603674 " transform="matrix(0.816778, 0, 0, -0.816778, 16.097881, 16.970184)"/>
<g fill="rgb(0%, 0%, 0%)" fill-opacity="1">
<use xlink:href="#glyph-0-11" x="326.538841" y="225.716573"/>
<use xlink:href="#glyph-0-17" x="330.970365" y="225.716573"/>
<use xlink:href="#glyph-0-3" x="334.769627" y="225.716573"/>
</g>
<path fill="none" stroke-width="0.3985" stroke-linecap="butt" stroke-linejoin="miter" stroke="rgb(0%, 0%, 0%)" stroke-opacity="1" stroke-miterlimit="10" d="M 248.403379 -263.5242 L 248.403379 -276.484806 L 370.802199 -276.484806 L 370.802199 -263.5242 Z M 248.403379 -263.5242 " transform="matrix(0.816778, 0, 0, -0.816778, 16.097881, 16.970184)"/>
<g fill="rgb(0%, 0%, 0%)" fill-opacity="1">
<use xlink:href="#glyph-0-11" x="326.538841" y="239.536456"/>
<use xlink:href="#glyph-0-17" x="330.970365" y="239.536456"/>
<use xlink:href="#glyph-0-4" x="334.769627" y="239.536456"/>
</g>
<path fill="none" stroke-width="0.3985" stroke-linecap="butt" stroke-linejoin="miter" stroke="rgb(0%, 0%, 0%)" stroke-opacity="1" stroke-miterlimit="10" d="M 248.403379 -280.444726 L 248.403379 -293.405332 L 370.802199 -293.405332 L 370.802199 -280.444726 Z M 248.403379 -280.444726 " transform="matrix(0.816778, 0, 0, -0.816778, 16.097881, 16.970184)"/>
<g fill="rgb(0%, 0%, 0%)" fill-opacity="1">
<use xlink:href="#glyph-0-11" x="326.538841" y="253.356339"/>
<use xlink:href="#glyph-0-17" x="330.970365" y="253.356339"/>
<use xlink:href="#glyph-0-5" x="334.769627" y="253.356339"/>
</g>
<path fill="none" stroke-width="0.3985" stroke-linecap="butt" stroke-linejoin="miter" stroke="rgb(0%, 0%, 0%)" stroke-opacity="1" stroke-miterlimit="10" d="M 248.403379 -297.365252 L 248.403379 -310.325858 L 370.802199 -310.325858 L 370.802199 -297.365252 Z M 248.403379 -297.365252 " transform="matrix(0.816778, 0, 0, -0.816778, 16.097881, 16.970184)"/>
<g fill="rgb(0%, 0%, 0%)" fill-opacity="1">
<use xlink:href="#glyph-0-11" x="326.538841" y="267.176221"/>
<use xlink:href="#glyph-0-17" x="330.970365" y="267.176221"/>
<use xlink:href="#glyph-0-6" x="334.769627" y="267.176221"/>
</g>
<path fill="none" stroke-width="0.3985" stroke-linecap="butt" stroke-linejoin="miter" stroke="rgb(0%, 0%, 0%)" stroke-opacity="1" stroke-miterlimit="10" d="M 412.56309 -162.001043 L 422.644625 -162.001043 L 422.644625 -312.482771 L 412.56309 -312.482771 " transform="matrix(0.816778, 0, 0, -0.816778, 16.097881, 16.970184)"/>
<g fill="rgb(0%, 0%, 0%)" fill-opacity="1">
<use xlink:href="#glyph-0-17" x="374.761411" y="209.405517"/>
<use xlink:href="#glyph-0-12" x="378.560673" y="209.405517"/>
<use xlink:href="#glyph-0-11" x="382.359936" y="209.405517"/>
<use xlink:href="#glyph-0-28" x="386.79146" y="209.405517"/>
<use xlink:href="#glyph-0-12" x="391.536266" y="209.405517"/>
<use xlink:href="#glyph-0-13" x="395.335529" y="209.405517"/>
<use xlink:href="#glyph-0-18" x="399.448074" y="209.405517"/>
</g>
<g fill="rgb(0%, 0%, 0%)" fill-opacity="1">
<use xlink:href="#glyph-0-0" x="374.761411" y="216.15292"/>
<use xlink:href="#glyph-0-12" x="378.873956" y="216.15292"/>
<use xlink:href="#glyph-0-11" x="382.673219" y="216.15292"/>
<use xlink:href="#glyph-0-16" x="387.104742" y="216.15292"/>
<use xlink:href="#glyph-0-17" x="388.688243" y="216.15292"/>
<use xlink:href="#glyph-0-18" x="392.487506" y="216.15292"/>
<use xlink:href="#glyph-0-12" x="395.96779" y="216.15292"/>
<use xlink:href="#glyph-0-0" x="399.767053" y="216.15292"/>
<use xlink:href="#glyph-0-17" x="403.879598" y="216.15292"/>
</g>
<path fill="none" stroke-width="0.3985" stroke-linecap="butt" stroke-linejoin="miter" stroke="rgb(0%, 0%, 0%)" stroke-opacity="1" stroke-miterlimit="10" d="M 248.403379 -316.801379 L 248.403379 -363.603038 L 370.802199 -363.603038 L 370.802199 -316.801379 Z M 248.403379 -316.801379 " transform="matrix(0.816778, 0, 0, -0.816778, 16.097881, 16.970184)"/>
<g fill="rgb(0%, 0%, 0%)" fill-opacity="1">
<use xlink:href="#glyph-0-21" x="249.346791" y="293.620224"/>
<use xlink:href="#glyph-0-0" x="253.459337" y="293.620224"/>
</g>
<g fill="rgb(0%, 0%, 0%)" fill-opacity="1">
<use xlink:href="#glyph-0-29" x="259.155383" y="293.620224"/>
<use xlink:href="#glyph-0-30" x="262.322384" y="293.620224"/>
<use xlink:href="#glyph-0-31" x="265.489386" y="293.620224"/>
<use xlink:href="#glyph-0-32" x="270.234192" y="293.620224"/>
<use xlink:href="#glyph-0-33" x="273.401194" y="293.620224"/>
<use xlink:href="#glyph-0-34" x="276.249217" y="293.620224"/>
<use xlink:href="#glyph-0-30" x="279.416218" y="293.620224"/>
<use xlink:href="#glyph-0-35" x="282.58322" y="293.620224"/>
<use xlink:href="#glyph-0-32" x="285.431243" y="293.620224"/>
</g>
<g fill="rgb(0%, 0%, 0%)" fill-opacity="1">
<use xlink:href="#glyph-0-33" x="244.132481" y="300.129944"/>
<use xlink:href="#glyph-0-32" x="246.980504" y="300.129944"/>
<use xlink:href="#glyph-0-32" x="250.147506" y="300.129944"/>
</g>
<g fill="rgb(0%, 0%, 0%)" fill-opacity="1">
<use xlink:href="#glyph-0-0" x="254.898008" y="300.129944"/>
<use xlink:href="#glyph-0-27" x="259.010553" y="300.129944"/>
<use xlink:href="#glyph-0-21" x="263.123098" y="300.129944"/>
<use xlink:href="#glyph-0-0" x="267.235644" y="300.129944"/>
</g>
<g fill="rgb(0%, 0%, 0%)" fill-opacity="1">
<use xlink:href="#glyph-0-36" x="272.93169" y="300.129944"/>
</g>
<g fill="rgb(0%, 0%, 0%)" fill-opacity="1">
<use xlink:href="#glyph-0-37" x="276.098691" y="300.129944"/>
<use xlink:href="#glyph-0-0" x="281.475759" y="300.129944"/>
<use xlink:href="#glyph-0-21" x="285.588304" y="300.129944"/>
<use xlink:href="#glyph-0-0" x="289.700849" y="300.129944"/>
</g>
<path fill="none" stroke-width="0.3985" stroke-linecap="butt" stroke-linejoin="miter" stroke="rgb(0%, 0%, 0%)" stroke-opacity="1" stroke-miterlimit="10" d="M 412.56309 -316.801379 L 422.644625 -316.801379 L 422.644625 -363.603038 L 412.56309 -363.603038 " transform="matrix(0.816778, 0, 0, -0.816778, 16.097881, 16.970184)"/>
<g fill="rgb(0%, 0%, 0%)" fill-opacity="1">
<use xlink:href="#glyph-0-21" x="374.761411" y="293.500974"/>
<use xlink:href="#glyph-0-25" x="378.873956" y="293.500974"/>
<use xlink:href="#glyph-0-13" x="383.30548" y="293.500974"/>
<use xlink:href="#glyph-0-18" x="387.418025" y="293.500974"/>
<use xlink:href="#glyph-0-0" x="390.898309" y="293.500974"/>
</g>
<g fill="rgb(0%, 0%, 0%)" fill-opacity="1">
<use xlink:href="#glyph-0-25" x="394.896933" y="293.500974"/>
<use xlink:href="#glyph-0-15" x="399.328457" y="293.500974"/>
</g>
<g fill="rgb(0%, 0%, 0%)" fill-opacity="1">
<use xlink:href="#glyph-0-0" x="374.761411" y="300.248377"/>
<use xlink:href="#glyph-0-12" x="378.873956" y="300.248377"/>
<use xlink:href="#glyph-0-11" x="382.673219" y="300.248377"/>
<use xlink:href="#glyph-0-16" x="387.104742" y="300.248377"/>
<use xlink:href="#glyph-0-17" x="388.688243" y="300.248377"/>
<use xlink:href="#glyph-0-18" x="392.487506" y="300.248377"/>
<use xlink:href="#glyph-0-12" x="395.96779" y="300.248377"/>
<use xlink:href="#glyph-0-0" x="399.767053" y="300.248377"/>
<use xlink:href="#glyph-0-17" x="403.879598" y="300.248377"/>
</g>
</svg>
