<?xml version="1.0" encoding="UTF-8"?>
<svg xmlns="http://www.w3.org/2000/svg" xmlns:xlink="http://www.w3.org/1999/xlink" width="437.474" height="68.359" viewBox="0 0 437.474 68.359">
<defs>
<g>
<g id="glyph-0-0">
<path d="M 3.484375 -2.53125 C 3.46875 -3.3125 2.859375 -3.796875 1.859375 -3.796875 C 0.921875 -3.796875 0.328125 -3.3125 0.328125 -2.546875 C 0.328125 -2.296875 0.40625 -2.078125 0.53125 -1.9375 C 0.671875 -1.8125 0.78125 -1.75 1.140625 -1.625 L 2.296875 -1.265625 C 2.546875 -1.1875 2.625 -1.125 2.625 -0.96875 C 2.625 -0.734375 2.359375 -0.59375 1.90625 -0.59375 C 1.65625 -0.59375 1.453125 -0.65625 1.328125 -0.734375 C 1.234375 -0.8125 1.1875 -0.890625 1.140625 -1.078125 L 0.203125 -1.078125 C 0.234375 -0.265625 0.828125 0.15625 1.96875 0.15625 C 2.484375 0.15625 2.875 0.046875 3.15625 -0.171875 C 3.421875 -0.390625 3.59375 -0.734375 3.59375 -1.109375 C 3.59375 -1.59375 3.34375 -1.90625 2.859375 -2.046875 L 1.640625 -2.390625 C 1.375 -2.484375 1.296875 -2.53125 1.296875 -2.6875 C 1.296875 -2.890625 1.515625 -3.03125 1.859375 -3.03125 C 2.328125 -3.03125 2.546875 -2.859375 2.5625 -2.53125 Z M 3.484375 -2.53125 "/>
</g>
<g id="glyph-0-1">
<path d="M 2.078125 -3.796875 C 0.9375 -3.796875 0.234375 -3.03125 0.234375 -1.8125 C 0.234375 -0.59375 0.9375 0.15625 2.078125 0.15625 C 3.21875 0.15625 3.921875 -0.59375 3.921875 -1.78125 C 3.921875 -3.046875 3.25 -3.796875 2.078125 -3.796875 Z M 2.078125 -3.015625 C 2.625 -3.015625 2.96875 -2.53125 2.96875 -1.796875 C 2.96875 -1.109375 2.609375 -0.625 2.078125 -0.625 C 1.5625 -0.625 1.203125 -1.109375 1.203125 -1.8125 C 1.203125 -2.53125 1.5625 -3.015625 2.078125 -3.015625 Z M 2.078125 -3.015625 "/>
</g>
<g id="glyph-0-2">
<path d="M 3.734375 0 L 3.734375 -3.734375 L 2.765625 -3.734375 L 2.765625 -1.390625 C 2.765625 -0.953125 2.453125 -0.65625 1.984375 -0.65625 C 1.578125 -0.65625 1.375 -0.890625 1.375 -1.328125 L 1.375 -3.734375 L 0.40625 -3.734375 L 0.40625 -1.125 C 0.40625 -0.3125 0.859375 0.15625 1.65625 0.15625 C 2.15625 0.15625 2.5 -0.03125 2.765625 -0.4375 L 2.765625 0 Z M 3.734375 0 "/>
</g>
<g id="glyph-0-3">
<path d="M 0.4375 -3.734375 L 0.4375 0 L 1.40625 0 L 1.40625 -1.984375 C 1.40625 -2.546875 1.6875 -2.828125 2.25 -2.828125 C 2.359375 -2.828125 2.421875 -2.828125 2.5625 -2.796875 L 2.5625 -3.78125 C 2.5 -3.796875 2.46875 -3.796875 2.4375 -3.796875 C 2 -3.796875 1.609375 -3.5 1.40625 -3 L 1.40625 -3.734375 Z M 0.4375 -3.734375 "/>
</g>
<g id="glyph-0-4">
<path d="M 3.609375 -2.328125 C 3.53125 -3.25 2.921875 -3.796875 2 -3.796875 C 0.890625 -3.796875 0.234375 -3.0625 0.234375 -1.78125 C 0.234375 -0.5625 0.875 0.15625 1.984375 0.15625 C 2.890625 0.15625 3.515625 -0.40625 3.609375 -1.296875 L 2.671875 -1.296875 C 2.5625 -0.8125 2.359375 -0.625 1.984375 -0.625 C 1.5 -0.625 1.203125 -1.0625 1.203125 -1.78125 C 1.203125 -2.140625 1.265625 -2.46875 1.390625 -2.6875 C 1.5 -2.90625 1.71875 -3.015625 1.984375 -3.015625 C 2.375 -3.015625 2.5625 -2.828125 2.671875 -2.328125 Z M 3.609375 -2.328125 "/>
</g>
<g id="glyph-0-5">
<path d="M 3.625 -1.5625 C 3.625 -1.640625 3.625 -1.671875 3.625 -1.734375 C 3.625 -2.09375 3.578125 -2.4375 3.484375 -2.703125 C 3.234375 -3.390625 2.625 -3.796875 1.875 -3.796875 C 0.8125 -3.796875 0.15625 -3.015625 0.15625 -1.765625 C 0.15625 -0.578125 0.796875 0.15625 1.859375 0.15625 C 2.6875 0.15625 3.375 -0.3125 3.578125 -1.046875 L 2.625 -1.046875 C 2.515625 -0.75 2.25 -0.578125 1.890625 -0.578125 C 1.609375 -0.578125 1.390625 -0.703125 1.25 -0.90625 C 1.171875 -1.046875 1.125 -1.203125 1.125 -1.5625 Z M 1.125 -2.203125 C 1.1875 -2.765625 1.4375 -3.046875 1.859375 -3.046875 C 2.109375 -3.046875 2.328125 -2.9375 2.46875 -2.734375 C 2.5625 -2.609375 2.59375 -2.453125 2.625 -2.203125 Z M 1.125 -2.203125 "/>
</g>
<g id="glyph-0-6">
<path d="M 1.5625 -1.796875 L 2.859375 -1.796875 C 3.78125 -1.796875 4.375 -2.453125 4.375 -3.46875 C 4.375 -4.484375 3.796875 -5.03125 2.75 -5.03125 L 0.53125 -5.03125 L 0.53125 0 L 1.5625 0 Z M 1.5625 -2.65625 L 1.5625 -4.171875 L 2.53125 -4.171875 C 3.078125 -4.171875 3.328125 -3.921875 3.328125 -3.40625 C 3.328125 -2.90625 3.078125 -2.65625 2.53125 -2.65625 Z M 1.5625 -2.65625 "/>
</g>
<g id="glyph-0-7">
<path d="M 3.625 -0.125 C 3.453125 -0.28125 3.390625 -0.375 3.390625 -0.578125 L 3.390625 -2.640625 C 3.390625 -3.40625 2.875 -3.796875 1.875 -3.796875 C 0.859375 -3.796875 0.34375 -3.359375 0.28125 -2.5 L 1.203125 -2.5 C 1.25 -2.890625 1.421875 -3.015625 1.890625 -3.015625 C 2.265625 -3.015625 2.453125 -2.890625 2.453125 -2.640625 C 2.453125 -2.515625 2.390625 -2.40625 2.28125 -2.34375 C 2.15625 -2.28125 2.15625 -2.28125 1.671875 -2.203125 L 1.296875 -2.140625 C 0.546875 -2.015625 0.1875 -1.625 0.1875 -0.953125 C 0.1875 -0.640625 0.28125 -0.375 0.453125 -0.1875 C 0.671875 0.03125 1 0.15625 1.328125 0.15625 C 1.734375 0.15625 2.125 -0.015625 2.453125 -0.375 C 2.453125 -0.171875 2.484375 -0.109375 2.5625 0 L 3.625 0 Z M 2.453125 -1.5 C 2.453125 -0.9375 2.171875 -0.625 1.6875 -0.625 C 1.359375 -0.625 1.15625 -0.796875 1.15625 -1.078125 C 1.15625 -1.359375 1.3125 -1.5 1.71875 -1.578125 L 2.046875 -1.640625 C 2.296875 -1.6875 2.34375 -1.703125 2.453125 -1.765625 Z M 2.453125 -1.5 "/>
</g>
<g id="glyph-0-8">
<path d="M 0.4375 -3.734375 L 0.4375 0 L 1.40625 0 L 1.40625 -2.234375 C 1.40625 -2.671875 1.71875 -2.96875 2.1875 -2.96875 C 2.59375 -2.96875 2.796875 -2.734375 2.796875 -2.296875 L 2.796875 0 L 3.765625 0 L 3.765625 -2.5 C 3.765625 -3.328125 3.3125 -3.796875 2.515625 -3.796875 C 2.015625 -3.796875 1.671875 -3.609375 1.40625 -3.1875 L 1.40625 -3.734375 Z M 0.4375 -3.734375 "/>
</g>
<g id="glyph-0-9">
<path d="M 4.234375 0 L 5.296875 -3.734375 L 4.28125 -3.734375 L 3.71875 -1.125 L 3.15625 -3.734375 L 2.203125 -3.734375 L 1.625 -1.125 L 1.03125 -3.734375 L 0.03125 -3.734375 L 1.078125 0 L 2.078125 0 L 2.671875 -2.625 L 3.234375 0 Z M 4.234375 0 "/>
</g>
<g id="glyph-0-10">
<path d="M 2.796875 0 L 3.765625 0 L 3.765625 -5.03125 L 2.796875 -5.03125 L 2.796875 -3.25 C 2.5625 -3.625 2.234375 -3.796875 1.765625 -3.796875 C 0.875 -3.796875 0.203125 -2.9375 0.203125 -1.8125 C 0.203125 -1.3125 0.359375 -0.796875 0.59375 -0.4375 C 0.859375 -0.078125 1.3125 0.15625 1.765625 0.15625 C 2.234375 0.15625 2.5625 -0.015625 2.796875 -0.375 Z M 1.984375 -2.984375 C 2.46875 -2.984375 2.796875 -2.5 2.796875 -1.796875 C 2.796875 -1.125 2.46875 -0.65625 1.984375 -0.65625 C 1.5 -0.65625 1.171875 -1.125 1.171875 -1.8125 C 1.171875 -2.5 1.5 -2.984375 1.984375 -2.984375 Z M 1.984375 -2.984375 "/>
</g>
<g id="glyph-0-11">
<path d="M 0.40625 -5.03125 L 0.40625 0 L 1.375 0 L 1.375 -0.375 C 1.609375 -0.015625 1.9375 0.15625 2.40625 0.15625 C 3.296875 0.15625 3.96875 -0.6875 3.96875 -1.8125 C 3.96875 -2.328125 3.8125 -2.828125 3.578125 -3.1875 C 3.3125 -3.5625 2.859375 -3.796875 2.40625 -3.796875 C 1.9375 -3.796875 1.609375 -3.625 1.375 -3.25 L 1.375 -5.03125 Z M 2.1875 -2.984375 C 2.671875 -2.984375 3 -2.5 3 -1.8125 C 3 -1.125 2.671875 -0.65625 2.1875 -0.65625 C 1.703125 -0.65625 1.375 -1.125 1.375 -1.828125 C 1.375 -2.5 1.703125 -2.984375 2.1875 -2.984375 Z M 2.1875 -2.984375 "/>
</g>
<g id="glyph-1-0">
<path d="M 2.640625 -0.234375 C 2.59375 -0.234375 2.578125 -0.234375 2.546875 -0.234375 C 2.40625 -0.234375 2.328125 -0.3125 2.328125 -0.4375 L 2.328125 -1.953125 C 2.328125 -2.421875 2 -2.65625 1.359375 -2.65625 C 0.984375 -2.65625 0.671875 -2.546875 0.5 -2.359375 C 0.375 -2.234375 0.328125 -2.078125 0.328125 -1.828125 L 0.734375 -1.828125 C 0.765625 -2.140625 0.953125 -2.28125 1.34375 -2.28125 C 1.71875 -2.28125 1.921875 -2.140625 1.921875 -1.890625 L 1.921875 -1.78125 C 1.921875 -1.609375 1.8125 -1.546875 1.484375 -1.5 C 0.90625 -1.421875 0.8125 -1.40625 0.65625 -1.34375 C 0.359375 -1.21875 0.203125 -0.984375 0.203125 -0.65625 C 0.203125 -0.1875 0.53125 0.109375 1.0625 0.109375 C 1.375 0.109375 1.640625 0 1.9375 -0.265625 C 1.96875 0 2.09375 0.109375 2.359375 0.109375 C 2.4375 0.109375 2.515625 0.109375 2.640625 0.0625 Z M 1.921875 -0.8125 C 1.921875 -0.671875 1.875 -0.59375 1.75 -0.484375 C 1.59375 -0.328125 1.390625 -0.25 1.140625 -0.25 C 0.828125 -0.25 0.640625 -0.40625 0.640625 -0.65625 C 0.640625 -0.9375 0.8125 -1.078125 1.265625 -1.140625 C 1.6875 -1.1875 1.78125 -1.21875 1.921875 -1.28125 Z M 1.921875 -0.8125 "/>
</g>
<g id="glyph-1-1">
<path d="M 1.234375 -3.59375 L 0.3125 -3.59375 L 0.3125 1.046875 L 1.234375 1.046875 L 1.234375 0.6875 L 0.71875 0.6875 L 0.71875 -3.25 L 1.234375 -3.25 Z M 1.234375 -3.59375 "/>
</g>
<g id="glyph-1-2">
<path d="M 1.359375 -3.5 C 1.03125 -3.5 0.734375 -3.359375 0.546875 -3.109375 C 0.328125 -2.8125 0.21875 -2.34375 0.21875 -1.6875 C 0.21875 -0.515625 0.609375 0.109375 1.359375 0.109375 C 2.09375 0.109375 2.5 -0.515625 2.5 -1.65625 C 2.5 -2.34375 2.390625 -2.796875 2.15625 -3.109375 C 1.984375 -3.359375 1.6875 -3.5 1.359375 -3.5 Z M 1.359375 -3.109375 C 1.828125 -3.109375 2.0625 -2.640625 2.0625 -1.703125 C 2.0625 -0.71875 1.828125 -0.25 1.34375 -0.25 C 0.890625 -0.25 0.65625 -0.734375 0.65625 -1.6875 C 0.65625 -2.640625 0.890625 -3.109375 1.359375 -3.109375 Z M 1.359375 -3.109375 "/>
</g>
<g id="glyph-1-3">
<path d="M 0.109375 1.046875 L 1.03125 1.046875 L 1.03125 -3.59375 L 0.109375 -3.59375 L 0.109375 -3.25 L 0.625 -3.25 L 0.625 0.6875 L 0.109375 0.6875 Z M 0.109375 1.046875 "/>
</g>
<g id="glyph-1-4">
<path d="M 1.4375 -1.34375 L 2.3125 -2.59375 L 1.84375 -2.59375 L 1.21875 -1.65625 L 0.609375 -2.59375 L 0.140625 -2.59375 L 1 -1.3125 L 0.078125 0 L 0.546875 0 L 1.203125 -1 L 1.859375 0 L 2.328125 0 Z M 1.4375 -1.34375 "/>
</g>
<g id="glyph-1-5">
<path d="M 1.28125 -2.5 L 1.28125 0 L 1.71875 0 L 1.71875 -3.5 L 1.421875 -3.5 C 1.28125 -2.96875 1.171875 -2.890625 0.5 -2.796875 L 0.5 -2.5 Z M 1.28125 -2.5 "/>
</g>
<g id="glyph-1-6">
<path d="M 2.5 -0.421875 L 0.65625 -0.421875 C 0.703125 -0.71875 0.859375 -0.90625 1.28125 -1.15625 L 1.78125 -1.421875 C 2.265625 -1.6875 2.515625 -2.046875 2.515625 -2.46875 C 2.515625 -2.765625 2.40625 -3.03125 2.203125 -3.21875 C 1.984375 -3.40625 1.734375 -3.5 1.40625 -3.5 C 0.953125 -3.5 0.625 -3.34375 0.4375 -3.046875 C 0.3125 -2.859375 0.25 -2.640625 0.25 -2.28125 L 0.6875 -2.28125 C 0.703125 -2.515625 0.71875 -2.671875 0.78125 -2.78125 C 0.90625 -2.984375 1.125 -3.125 1.390625 -3.125 C 1.78125 -3.125 2.078125 -2.84375 2.078125 -2.46875 C 2.078125 -2.1875 1.921875 -1.953125 1.609375 -1.765625 L 1.15625 -1.515625 C 0.421875 -1.09375 0.203125 -0.765625 0.171875 0 L 2.5 0 Z M 2.5 -0.421875 "/>
</g>
<g id="glyph-1-7">
<path d="M 1.09375 -1.609375 L 1.328125 -1.609375 C 1.8125 -1.609375 2.046875 -1.390625 2.046875 -0.96875 C 2.046875 -0.53125 1.78125 -0.265625 1.328125 -0.265625 C 0.859375 -0.265625 0.625 -0.515625 0.59375 -1.015625 L 0.15625 -1.015625 C 0.171875 -0.734375 0.234375 -0.546875 0.3125 -0.390625 C 0.484375 -0.0625 0.828125 0.109375 1.3125 0.109375 C 2.03125 0.109375 2.5 -0.3125 2.5 -0.984375 C 2.5 -1.421875 2.328125 -1.671875 1.90625 -1.8125 C 2.234375 -1.9375 2.390625 -2.1875 2.390625 -2.53125 C 2.390625 -3.140625 2 -3.5 1.328125 -3.5 C 0.625 -3.5 0.25 -3.109375 0.234375 -2.375 L 0.671875 -2.375 C 0.671875 -2.578125 0.6875 -2.703125 0.75 -2.8125 C 0.84375 -3 1.0625 -3.125 1.328125 -3.125 C 1.71875 -3.125 1.953125 -2.890625 1.953125 -2.515625 C 1.953125 -2.28125 1.859375 -2.125 1.671875 -2.046875 C 1.546875 -2 1.390625 -1.984375 1.09375 -1.96875 Z M 1.09375 -1.609375 "/>
</g>
<g id="glyph-1-8">
<path d="M 1.609375 -0.84375 L 1.609375 0 L 2.046875 0 L 2.046875 -0.84375 L 2.5625 -0.84375 L 2.5625 -1.234375 L 2.046875 -1.234375 L 2.046875 -3.5 L 1.734375 -3.5 L 0.140625 -1.296875 L 0.140625 -0.84375 Z M 1.609375 -1.234375 L 0.515625 -1.234375 L 1.609375 -2.765625 Z M 1.609375 -1.234375 "/>
</g>
<g id="glyph-1-9">
<path d="M 2.34375 -3.5 L 0.546875 -3.5 L 0.28125 -1.59375 L 0.6875 -1.59375 C 0.890625 -1.84375 1.046875 -1.921875 1.328125 -1.921875 C 1.796875 -1.921875 2.09375 -1.59375 2.09375 -1.078125 C 2.09375 -0.578125 1.796875 -0.265625 1.328125 -0.265625 C 0.9375 -0.265625 0.71875 -0.46875 0.609375 -0.859375 L 0.171875 -0.859375 C 0.234375 -0.578125 0.28125 -0.4375 0.390625 -0.3125 C 0.578125 -0.046875 0.9375 0.109375 1.328125 0.109375 C 2.046875 0.109375 2.53125 -0.40625 2.53125 -1.140625 C 2.53125 -1.828125 2.078125 -2.3125 1.40625 -2.3125 C 1.15625 -2.3125 0.953125 -2.234375 0.75 -2.09375 L 0.890625 -3.078125 L 2.34375 -3.078125 Z M 2.34375 -3.5 "/>
</g>
<g id="glyph-1-10">
<path d="M 2.453125 -2.59375 C 2.375 -3.15625 2 -3.5 1.46875 -3.5 C 1.078125 -3.5 0.734375 -3.3125 0.53125 -3 C 0.3125 -2.65625 0.21875 -2.234375 0.21875 -1.59375 C 0.21875 -1 0.296875 -0.625 0.515625 -0.328125 C 0.703125 -0.046875 1 0.109375 1.390625 0.109375 C 2.046875 0.109375 2.53125 -0.375 2.53125 -1.0625 C 2.53125 -1.71875 2.09375 -2.171875 1.46875 -2.171875 C 1.109375 -2.171875 0.84375 -2.046875 0.65625 -1.78125 C 0.65625 -2.640625 0.9375 -3.109375 1.4375 -3.109375 C 1.75 -3.109375 1.953125 -2.921875 2.03125 -2.59375 Z M 1.40625 -1.796875 C 1.828125 -1.796875 2.09375 -1.5 2.09375 -1.03125 C 2.09375 -0.59375 1.796875 -0.265625 1.390625 -0.265625 C 0.984375 -0.265625 0.6875 -0.609375 0.6875 -1.0625 C 0.6875 -1.484375 0.984375 -1.796875 1.40625 -1.796875 Z M 1.40625 -1.796875 "/>
</g>
<g id="glyph-1-11">
<path d="M 2.5625 -3.5 L 0.234375 -3.5 L 0.234375 -3.078125 L 2.125 -3.078125 C 1.28125 -1.875 0.9375 -1.15625 0.6875 0 L 1.140625 0 C 1.34375 -1.125 1.78125 -2.078125 2.5625 -3.140625 Z M 2.5625 -3.5 "/>
</g>
<g id="glyph-1-12">
<path d="M 0.265625 -3.59375 L 0.265625 0 L 0.640625 0 L 0.640625 -0.328125 C 0.828125 -0.03125 1.09375 0.109375 1.453125 0.109375 C 2.140625 0.109375 2.578125 -0.4375 2.578125 -1.296875 C 2.578125 -2.140625 2.15625 -2.65625 1.46875 -2.65625 C 1.125 -2.65625 0.875 -2.53125 0.671875 -2.234375 L 0.671875 -3.59375 Z M 1.390625 -2.28125 C 1.859375 -2.28125 2.15625 -1.875 2.15625 -1.265625 C 2.15625 -0.671875 1.84375 -0.265625 1.390625 -0.265625 C 0.96875 -0.265625 0.671875 -0.671875 0.671875 -1.28125 C 0.671875 -1.875 0.96875 -2.28125 1.390625 -2.28125 Z M 1.390625 -2.28125 "/>
</g>
<g id="glyph-2-0">
<path d="M 1.5625 -1.734375 C 1.5625 -1.96875 1.359375 -2.125 1.171875 -2.125 C 0.953125 -2.125 0.78125 -1.9375 0.78125 -1.734375 C 0.78125 -1.484375 0.984375 -1.328125 1.171875 -1.328125 C 1.390625 -1.328125 1.5625 -1.515625 1.5625 -1.734375 Z M 1.5625 -1.734375 "/>
</g>
</g>
</defs>
<g fill="rgb(0%, 0%, 0%)" fill-opacity="1">
<use xlink:href="#glyph-0-0" x="311.115767" y="14.640715"/>
<use xlink:href="#glyph-0-1" x="314.957179" y="14.640715"/>
<use xlink:href="#glyph-0-2" x="319.178587" y="14.640715"/>
<use xlink:href="#glyph-0-3" x="323.399995" y="14.640715"/>
</g>
<g fill="rgb(0%, 0%, 0%)" fill-opacity="1">
<use xlink:href="#glyph-0-4" x="325.949421" y="14.640715"/>
<use xlink:href="#glyph-0-5" x="329.790833" y="14.640715"/>
</g>
<g fill="rgb(0%, 0%, 0%)" fill-opacity="1">
<use xlink:href="#glyph-0-6" x="335.552951" y="14.640715"/>
</g>
<g fill="rgb(0%, 0%, 0%)" fill-opacity="1">
<use xlink:href="#glyph-0-7" x="339.953994" y="14.640715"/>
</g>
<path fill-rule="nonzero" fill="rgb(92.999268%, 92.999268%, 92.999268%)" fill-opacity="1" stroke-width="0.44832" stroke-linecap="butt" stroke-linejoin="miter" stroke="rgb(17.999268%, 17.999268%, 17.999268%)" stroke-opacity="1" stroke-miterlimit="10" d="M 161.5771 43.65307 L 161.5771 55.954852 L 172.349045 55.954852 L 172.349045 43.65307 Z M 161.5771 43.65307 " transform="matrix(0.99071, 0, 0, -0.99071, 132.189552, 61.57957)"/>
<g fill="rgb(0%, 0%, 0%)" fill-opacity="1">
<use xlink:href="#glyph-1-0" x="293.482118" y="13.512296"/>
<use xlink:href="#glyph-1-1" x="296.225991" y="13.512296"/>
<use xlink:href="#glyph-1-2" x="297.597928" y="13.512296"/>
<use xlink:href="#glyph-1-3" x="300.341802" y="13.512296"/>
</g>
<path fill-rule="nonzero" fill="rgb(100%, 100%, 100%)" fill-opacity="1" stroke-width="0.37859" stroke-linecap="butt" stroke-linejoin="miter" stroke="rgb(17.999268%, 17.999268%, 17.999268%)" stroke-opacity="1" stroke-miterlimit="10" d="M 150.805156 43.65307 L 150.805156 55.954852 L 161.5771 55.954852 L 161.5771 43.65307 Z M 150.805156 43.65307 " transform="matrix(0.99071, 0, 0, -0.99071, 132.189552, 61.57957)"/>
<g fill="rgb(0%, 0%, 0%)" fill-opacity="1">
<use xlink:href="#glyph-1-4" x="285.692164" y="13.555887"/>
</g>
<path fill-rule="nonzero" fill="rgb(92.999268%, 92.999268%, 92.999268%)" fill-opacity="1" stroke-width="0.44832" stroke-linecap="butt" stroke-linejoin="miter" stroke="rgb(17.999268%, 17.999268%, 17.999268%)" stroke-opacity="1" stroke-miterlimit="10" d="M 140.033211 43.65307 L 140.033211 55.954852 L 150.805156 55.954852 L 150.805156 43.65307 Z M 140.033211 43.65307 " transform="matrix(0.99071, 0, 0, -0.99071, 132.189552, 61.57957)"/>
<g fill="rgb(0%, 0%, 0%)" fill-opacity="1">
<use xlink:href="#glyph-1-0" x="272.138258" y="13.512296"/>
<use xlink:href="#glyph-1-1" x="274.882132" y="13.512296"/>
<use xlink:href="#glyph-1-5" x="276.254069" y="13.512296"/>
<use xlink:href="#glyph-1-3" x="278.997942" y="13.512296"/>
</g>
<path fill-rule="nonzero" fill="rgb(100%, 100%, 100%)" fill-opacity="1" stroke-width="0.37859" stroke-linecap="butt" stroke-linejoin="miter" stroke="rgb(17.999268%, 17.999268%, 17.999268%)" stroke-opacity="1" stroke-miterlimit="10" d="M 129.261266 43.65307 L 129.261266 55.954852 L 140.033211 55.954852 L 140.033211 43.65307 Z M 129.261266 43.65307 " transform="matrix(0.99071, 0, 0, -0.99071, 132.189552, 61.57957)"/>
<g fill="rgb(0%, 0%, 0%)" fill-opacity="1">
<use xlink:href="#glyph-1-4" x="264.349295" y="13.555887"/>
</g>
<path fill-rule="nonzero" fill="rgb(92.999268%, 92.999268%, 92.999268%)" fill-opacity="1" stroke-width="0.44832" stroke-linecap="butt" stroke-linejoin="miter" stroke="rgb(17.999268%, 17.999268%, 17.999268%)" stroke-opacity="1" stroke-miterlimit="10" d="M 118.489321 43.65307 L 118.489321 55.954852 L 129.261266 55.954852 L 129.261266 43.65307 Z M 118.489321 43.65307 " transform="matrix(0.99071, 0, 0, -0.99071, 132.189552, 61.57957)"/>
<g fill="rgb(0%, 0%, 0%)" fill-opacity="1">
<use xlink:href="#glyph-1-0" x="250.79539" y="13.512296"/>
<use xlink:href="#glyph-1-1" x="253.539263" y="13.512296"/>
<use xlink:href="#glyph-1-6" x="254.9112" y="13.512296"/>
<use xlink:href="#glyph-1-3" x="257.655074" y="13.512296"/>
</g>
<path fill-rule="nonzero" fill="rgb(100%, 100%, 100%)" fill-opacity="1" stroke-width="0.37859" stroke-linecap="butt" stroke-linejoin="miter" stroke="rgb(17.999268%, 17.999268%, 17.999268%)" stroke-opacity="1" stroke-miterlimit="10" d="M 107.717376 43.65307 L 107.717376 55.954852 L 118.489321 55.954852 L 118.489321 43.65307 Z M 107.717376 43.65307 " transform="matrix(0.99071, 0, 0, -0.99071, 132.189552, 61.57957)"/>
<g fill="rgb(0%, 0%, 0%)" fill-opacity="1">
<use xlink:href="#glyph-1-4" x="243.006426" y="13.555887"/>
</g>
<path fill-rule="nonzero" fill="rgb(92.999268%, 92.999268%, 92.999268%)" fill-opacity="1" stroke-width="0.44832" stroke-linecap="butt" stroke-linejoin="miter" stroke="rgb(17.999268%, 17.999268%, 17.999268%)" stroke-opacity="1" stroke-miterlimit="10" d="M 96.945432 43.65307 L 96.945432 55.954852 L 107.717376 55.954852 L 107.717376 43.65307 Z M 96.945432 43.65307 " transform="matrix(0.99071, 0, 0, -0.99071, 132.189552, 61.57957)"/>
<g fill="rgb(0%, 0%, 0%)" fill-opacity="1">
<use xlink:href="#glyph-1-0" x="229.452521" y="13.512296"/>
<use xlink:href="#glyph-1-1" x="232.196395" y="13.512296"/>
<use xlink:href="#glyph-1-7" x="233.568331" y="13.512296"/>
<use xlink:href="#glyph-1-3" x="236.312205" y="13.512296"/>
</g>
<path fill-rule="nonzero" fill="rgb(100%, 100%, 100%)" fill-opacity="1" stroke-width="0.37859" stroke-linecap="butt" stroke-linejoin="miter" stroke="rgb(17.999268%, 17.999268%, 17.999268%)" stroke-opacity="1" stroke-miterlimit="10" d="M 86.173487 43.65307 L 86.173487 55.954852 L 96.945432 55.954852 L 96.945432 43.65307 Z M 86.173487 43.65307 " transform="matrix(0.99071, 0, 0, -0.99071, 132.189552, 61.57957)"/>
<g fill="rgb(0%, 0%, 0%)" fill-opacity="1">
<use xlink:href="#glyph-1-4" x="221.663558" y="13.555887"/>
</g>
<path fill-rule="nonzero" fill="rgb(92.999268%, 92.999268%, 92.999268%)" fill-opacity="1" stroke-width="0.44832" stroke-linecap="butt" stroke-linejoin="miter" stroke="rgb(17.999268%, 17.999268%, 17.999268%)" stroke-opacity="1" stroke-miterlimit="10" d="M 75.401542 43.65307 L 75.401542 55.954852 L 86.173487 55.954852 L 86.173487 43.65307 Z M 75.401542 43.65307 " transform="matrix(0.99071, 0, 0, -0.99071, 132.189552, 61.57957)"/>
<g fill="rgb(0%, 0%, 0%)" fill-opacity="1">
<use xlink:href="#glyph-1-0" x="208.109652" y="13.512296"/>
<use xlink:href="#glyph-1-1" x="210.853526" y="13.512296"/>
<use xlink:href="#glyph-1-8" x="212.225463" y="13.512296"/>
<use xlink:href="#glyph-1-3" x="214.969336" y="13.512296"/>
</g>
<path fill-rule="nonzero" fill="rgb(100%, 100%, 100%)" fill-opacity="1" stroke-width="0.37859" stroke-linecap="butt" stroke-linejoin="miter" stroke="rgb(17.999268%, 17.999268%, 17.999268%)" stroke-opacity="1" stroke-miterlimit="10" d="M 64.629597 43.65307 L 64.629597 55.954852 L 75.401542 55.954852 L 75.401542 43.65307 Z M 64.629597 43.65307 " transform="matrix(0.99071, 0, 0, -0.99071, 132.189552, 61.57957)"/>
<g fill="rgb(0%, 0%, 0%)" fill-opacity="1">
<use xlink:href="#glyph-1-4" x="200.319698" y="13.555887"/>
</g>
<path fill-rule="nonzero" fill="rgb(92.999268%, 92.999268%, 92.999268%)" fill-opacity="1" stroke-width="0.44832" stroke-linecap="butt" stroke-linejoin="miter" stroke="rgb(17.999268%, 17.999268%, 17.999268%)" stroke-opacity="1" stroke-miterlimit="10" d="M 53.857652 43.65307 L 53.857652 55.954852 L 64.629597 55.954852 L 64.629597 43.65307 Z M 53.857652 43.65307 " transform="matrix(0.99071, 0, 0, -0.99071, 132.189552, 61.57957)"/>
<g fill="rgb(0%, 0%, 0%)" fill-opacity="1">
<use xlink:href="#glyph-1-0" x="186.766784" y="13.512296"/>
<use xlink:href="#glyph-1-1" x="189.510657" y="13.512296"/>
<use xlink:href="#glyph-1-9" x="190.882594" y="13.512296"/>
<use xlink:href="#glyph-1-3" x="193.626468" y="13.512296"/>
</g>
<path fill-rule="nonzero" fill="rgb(100%, 100%, 100%)" fill-opacity="1" stroke-width="0.37859" stroke-linecap="butt" stroke-linejoin="miter" stroke="rgb(17.999268%, 17.999268%, 17.999268%)" stroke-opacity="1" stroke-miterlimit="10" d="M 43.085708 43.65307 L 43.085708 55.954852 L 53.857652 55.954852 L 53.857652 43.65307 Z M 43.085708 43.65307 " transform="matrix(0.99071, 0, 0, -0.99071, 132.189552, 61.57957)"/>
<g fill="rgb(0%, 0%, 0%)" fill-opacity="1">
<use xlink:href="#glyph-1-4" x="178.97683" y="13.555887"/>
</g>
<path fill-rule="nonzero" fill="rgb(92.999268%, 92.999268%, 92.999268%)" fill-opacity="1" stroke-width="0.44832" stroke-linecap="butt" stroke-linejoin="miter" stroke="rgb(17.999268%, 17.999268%, 17.999268%)" stroke-opacity="1" stroke-miterlimit="10" d="M 32.313763 43.65307 L 32.313763 55.954852 L 43.085708 55.954852 L 43.085708 43.65307 Z M 32.313763 43.65307 " transform="matrix(0.99071, 0, 0, -0.99071, 132.189552, 61.57957)"/>
<g fill="rgb(0%, 0%, 0%)" fill-opacity="1">
<use xlink:href="#glyph-1-0" x="165.423915" y="13.512296"/>
<use xlink:href="#glyph-1-1" x="168.167789" y="13.512296"/>
<use xlink:href="#glyph-1-10" x="169.539725" y="13.512296"/>
<use xlink:href="#glyph-1-3" x="172.283599" y="13.512296"/>
</g>
<path fill-rule="nonzero" fill="rgb(100%, 100%, 100%)" fill-opacity="1" stroke-width="0.37859" stroke-linecap="butt" stroke-linejoin="miter" stroke="rgb(17.999268%, 17.999268%, 17.999268%)" stroke-opacity="1" stroke-miterlimit="10" d="M 21.541818 43.65307 L 21.541818 55.954852 L 32.313763 55.954852 L 32.313763 43.65307 Z M 21.541818 43.65307 " transform="matrix(0.99071, 0, 0, -0.99071, 132.189552, 61.57957)"/>
<g fill="rgb(0%, 0%, 0%)" fill-opacity="1">
<use xlink:href="#glyph-1-4" x="157.633961" y="13.555887"/>
</g>
<path fill-rule="nonzero" fill="rgb(92.999268%, 92.999268%, 92.999268%)" fill-opacity="1" stroke-width="0.44832" stroke-linecap="butt" stroke-linejoin="miter" stroke="rgb(17.999268%, 17.999268%, 17.999268%)" stroke-opacity="1" stroke-miterlimit="10" d="M 10.769873 43.65307 L 10.769873 55.954852 L 21.541818 55.954852 L 21.541818 43.65307 Z M 10.769873 43.65307 " transform="matrix(0.99071, 0, 0, -0.99071, 132.189552, 61.57957)"/>
<g fill="rgb(0%, 0%, 0%)" fill-opacity="1">
<use xlink:href="#glyph-1-0" x="144.081046" y="13.512296"/>
<use xlink:href="#glyph-1-1" x="146.82492" y="13.512296"/>
<use xlink:href="#glyph-1-11" x="148.196857" y="13.512296"/>
<use xlink:href="#glyph-1-3" x="150.94073" y="13.512296"/>
</g>
<path fill-rule="nonzero" fill="rgb(100%, 100%, 100%)" fill-opacity="1" stroke-width="0.37859" stroke-linecap="butt" stroke-linejoin="miter" stroke="rgb(17.999268%, 17.999268%, 17.999268%)" stroke-opacity="1" stroke-miterlimit="10" d="M 0.00187118 43.65307 L 0.00187118 55.954852 L 10.769873 55.954852 L 10.769873 43.65307 Z M 0.00187118 43.65307 " transform="matrix(0.99071, 0, 0, -0.99071, 132.189552, 61.57957)"/>
<g fill="rgb(0%, 0%, 0%)" fill-opacity="1">
<use xlink:href="#glyph-1-4" x="136.291092" y="13.555887"/>
</g>
<path fill="none" stroke-width="0.44832" stroke-linecap="butt" stroke-linejoin="miter" stroke="rgb(17.999268%, 17.999268%, 17.999268%)" stroke-opacity="1" stroke-dasharray="2.98883 1.99255" stroke-miterlimit="10" d="M -43.085908 43.65307 L 0.00187118 43.65307 " transform="matrix(0.99071, 0, 0, -0.99071, 132.189552, 61.57957)"/>
<path fill="none" stroke-width="0.44832" stroke-linecap="butt" stroke-linejoin="miter" stroke="rgb(17.999268%, 17.999268%, 17.999268%)" stroke-opacity="1" stroke-dasharray="2.98883 1.99255" stroke-miterlimit="10" d="M -43.085908 55.954852 L 0.00187118 55.954852 " transform="matrix(0.99071, 0, 0, -0.99071, 132.189552, 61.57957)"/>
<g fill="rgb(37.998962%, 37.998962%, 37.998962%)" fill-opacity="1">
<use xlink:href="#glyph-2-0" x="105.307623" y="13.845174"/>
</g>
<g fill="rgb(37.998962%, 37.998962%, 37.998962%)" fill-opacity="1">
<use xlink:href="#glyph-2-0" x="108.99911" y="13.845174"/>
</g>
<g fill="rgb(37.998962%, 37.998962%, 37.998962%)" fill-opacity="1">
<use xlink:href="#glyph-2-0" x="112.690596" y="13.845174"/>
</g>
<g fill="rgb(0%, 0%, 0%)" fill-opacity="1">
<use xlink:href="#glyph-0-8" x="311.115767" y="36.264945"/>
<use xlink:href="#glyph-0-5" x="315.337175" y="36.264945"/>
</g>
<g fill="rgb(0%, 0%, 0%)" fill-opacity="1">
<use xlink:href="#glyph-0-9" x="319.074952" y="36.264945"/>
</g>
<g fill="rgb(0%, 0%, 0%)" fill-opacity="1">
<use xlink:href="#glyph-0-6" x="326.370871" y="36.264945"/>
<use xlink:href="#glyph-0-10" x="330.979184" y="36.264945"/>
</g>
<path fill="none" stroke-width="0.69739" stroke-linecap="butt" stroke-linejoin="miter" stroke="rgb(37.998962%, 37.998962%, 37.998962%)" stroke-opacity="1" stroke-miterlimit="10" d="M 161.5771 21.825293 L 161.5771 34.131018 L 172.349045 34.131018 L 172.349045 21.825293 Z M 161.5771 21.825293 " transform="matrix(0.99071, 0, 0, -0.99071, 132.189552, 61.57957)"/>
<g fill="rgb(0%, 0%, 0%)" fill-opacity="1">
<use xlink:href="#glyph-1-0" x="293.482118" y="35.136526"/>
<use xlink:href="#glyph-1-1" x="296.225991" y="35.136526"/>
<use xlink:href="#glyph-1-2" x="297.597928" y="35.136526"/>
<use xlink:href="#glyph-1-3" x="300.341802" y="35.136526"/>
</g>
<path fill-rule="nonzero" fill="rgb(85.998535%, 85.998535%, 85.998535%)" fill-opacity="1" stroke-width="0.44832" stroke-linecap="butt" stroke-linejoin="miter" stroke="rgb(17.999268%, 17.999268%, 17.999268%)" stroke-opacity="1" stroke-miterlimit="10" d="M 150.805156 21.825293 L 150.805156 34.131018 L 161.5771 34.131018 L 161.5771 21.825293 Z M 150.805156 21.825293 " transform="matrix(0.99071, 0, 0, -0.99071, 132.189552, 61.57957)"/>
<g fill="rgb(0%, 0%, 0%)" fill-opacity="1">
<use xlink:href="#glyph-1-2" x="285.554455" y="35.569466"/>
</g>
<path fill="none" stroke-width="0.69739" stroke-linecap="butt" stroke-linejoin="miter" stroke="rgb(37.998962%, 37.998962%, 37.998962%)" stroke-opacity="1" stroke-miterlimit="10" d="M 140.033211 21.825293 L 140.033211 34.131018 L 150.805156 34.131018 L 150.805156 21.825293 Z M 140.033211 21.825293 " transform="matrix(0.99071, 0, 0, -0.99071, 132.189552, 61.57957)"/>
<g fill="rgb(0%, 0%, 0%)" fill-opacity="1">
<use xlink:href="#glyph-1-12" x="272.138258" y="35.136526"/>
<use xlink:href="#glyph-1-1" x="274.882132" y="35.136526"/>
<use xlink:href="#glyph-1-2" x="276.254069" y="35.136526"/>
<use xlink:href="#glyph-1-3" x="278.997942" y="35.136526"/>
</g>
<path fill-rule="nonzero" fill="rgb(85.998535%, 85.998535%, 85.998535%)" fill-opacity="1" stroke-width="0.44832" stroke-linecap="butt" stroke-linejoin="miter" stroke="rgb(17.999268%, 17.999268%, 17.999268%)" stroke-opacity="1" stroke-miterlimit="10" d="M 129.261266 21.825293 L 129.261266 34.131018 L 140.033211 34.131018 L 140.033211 21.825293 Z M 129.261266 21.825293 " transform="matrix(0.99071, 0, 0, -0.99071, 132.189552, 61.57957)"/>
<g fill="rgb(0%, 0%, 0%)" fill-opacity="1">
<use xlink:href="#glyph-1-2" x="264.210596" y="35.569466"/>
</g>
<path fill="none" stroke-width="0.69739" stroke-linecap="butt" stroke-linejoin="miter" stroke="rgb(37.998962%, 37.998962%, 37.998962%)" stroke-opacity="1" stroke-miterlimit="10" d="M 118.489321 21.825293 L 118.489321 34.131018 L 129.261266 34.131018 L 129.261266 21.825293 Z M 118.489321 21.825293 " transform="matrix(0.99071, 0, 0, -0.99071, 132.189552, 61.57957)"/>
<g fill="rgb(0%, 0%, 0%)" fill-opacity="1">
<use xlink:href="#glyph-1-0" x="250.79539" y="35.136526"/>
<use xlink:href="#glyph-1-1" x="253.539263" y="35.136526"/>
<use xlink:href="#glyph-1-5" x="254.9112" y="35.136526"/>
<use xlink:href="#glyph-1-3" x="257.655074" y="35.136526"/>
</g>
<path fill-rule="nonzero" fill="rgb(85.998535%, 85.998535%, 85.998535%)" fill-opacity="1" stroke-width="0.44832" stroke-linecap="butt" stroke-linejoin="miter" stroke="rgb(17.999268%, 17.999268%, 17.999268%)" stroke-opacity="1" stroke-miterlimit="10" d="M 107.717376 21.825293 L 107.717376 34.131018 L 118.489321 34.131018 L 118.489321 21.825293 Z M 107.717376 21.825293 " transform="matrix(0.99071, 0, 0, -0.99071, 132.189552, 61.57957)"/>
<g fill="rgb(0%, 0%, 0%)" fill-opacity="1">
<use xlink:href="#glyph-1-2" x="242.867727" y="35.569466"/>
</g>
<path fill="none" stroke-width="0.69739" stroke-linecap="butt" stroke-linejoin="miter" stroke="rgb(37.998962%, 37.998962%, 37.998962%)" stroke-opacity="1" stroke-miterlimit="10" d="M 96.945432 21.825293 L 96.945432 34.131018 L 107.717376 34.131018 L 107.717376 21.825293 Z M 96.945432 21.825293 " transform="matrix(0.99071, 0, 0, -0.99071, 132.189552, 61.57957)"/>
<g fill="rgb(0%, 0%, 0%)" fill-opacity="1">
<use xlink:href="#glyph-1-12" x="229.452521" y="35.136526"/>
<use xlink:href="#glyph-1-1" x="232.196395" y="35.136526"/>
<use xlink:href="#glyph-1-5" x="233.568331" y="35.136526"/>
<use xlink:href="#glyph-1-3" x="236.312205" y="35.136526"/>
</g>
<path fill-rule="nonzero" fill="rgb(85.998535%, 85.998535%, 85.998535%)" fill-opacity="1" stroke-width="0.44832" stroke-linecap="butt" stroke-linejoin="miter" stroke="rgb(17.999268%, 17.999268%, 17.999268%)" stroke-opacity="1" stroke-miterlimit="10" d="M 86.173487 21.825293 L 86.173487 34.131018 L 96.945432 34.131018 L 96.945432 21.825293 Z M 86.173487 21.825293 " transform="matrix(0.99071, 0, 0, -0.99071, 132.189552, 61.57957)"/>
<g fill="rgb(0%, 0%, 0%)" fill-opacity="1">
<use xlink:href="#glyph-1-2" x="221.524858" y="35.569466"/>
</g>
<path fill="none" stroke-width="0.69739" stroke-linecap="butt" stroke-linejoin="miter" stroke="rgb(37.998962%, 37.998962%, 37.998962%)" stroke-opacity="1" stroke-miterlimit="10" d="M 75.401542 21.825293 L 75.401542 34.131018 L 86.173487 34.131018 L 86.173487 21.825293 Z M 75.401542 21.825293 " transform="matrix(0.99071, 0, 0, -0.99071, 132.189552, 61.57957)"/>
<g fill="rgb(0%, 0%, 0%)" fill-opacity="1">
<use xlink:href="#glyph-1-0" x="208.109652" y="35.136526"/>
<use xlink:href="#glyph-1-1" x="210.853526" y="35.136526"/>
<use xlink:href="#glyph-1-6" x="212.225463" y="35.136526"/>
<use xlink:href="#glyph-1-3" x="214.969336" y="35.136526"/>
</g>
<path fill-rule="nonzero" fill="rgb(85.998535%, 85.998535%, 85.998535%)" fill-opacity="1" stroke-width="0.44832" stroke-linecap="butt" stroke-linejoin="miter" stroke="rgb(17.999268%, 17.999268%, 17.999268%)" stroke-opacity="1" stroke-miterlimit="10" d="M 64.629597 21.825293 L 64.629597 34.131018 L 75.401542 34.131018 L 75.401542 21.825293 Z M 64.629597 21.825293 " transform="matrix(0.99071, 0, 0, -0.99071, 132.189552, 61.57957)"/>
<g fill="rgb(0%, 0%, 0%)" fill-opacity="1">
<use xlink:href="#glyph-1-2" x="200.18199" y="35.569466"/>
</g>
<path fill="none" stroke-width="0.69739" stroke-linecap="butt" stroke-linejoin="miter" stroke="rgb(37.998962%, 37.998962%, 37.998962%)" stroke-opacity="1" stroke-miterlimit="10" d="M 53.857652 21.825293 L 53.857652 34.131018 L 64.629597 34.131018 L 64.629597 21.825293 Z M 53.857652 21.825293 " transform="matrix(0.99071, 0, 0, -0.99071, 132.189552, 61.57957)"/>
<g fill="rgb(0%, 0%, 0%)" fill-opacity="1">
<use xlink:href="#glyph-1-12" x="186.766784" y="35.136526"/>
<use xlink:href="#glyph-1-1" x="189.510657" y="35.136526"/>
<use xlink:href="#glyph-1-6" x="190.882594" y="35.136526"/>
<use xlink:href="#glyph-1-3" x="193.626468" y="35.136526"/>
</g>
<path fill-rule="nonzero" fill="rgb(85.998535%, 85.998535%, 85.998535%)" fill-opacity="1" stroke-width="0.44832" stroke-linecap="butt" stroke-linejoin="miter" stroke="rgb(17.999268%, 17.999268%, 17.999268%)" stroke-opacity="1" stroke-miterlimit="10" d="M 43.085708 21.825293 L 43.085708 34.131018 L 53.857652 34.131018 L 53.857652 21.825293 Z M 43.085708 21.825293 " transform="matrix(0.99071, 0, 0, -0.99071, 132.189552, 61.57957)"/>
<g fill="rgb(0%, 0%, 0%)" fill-opacity="1">
<use xlink:href="#glyph-1-2" x="178.839121" y="35.569466"/>
</g>
<path fill="none" stroke-width="0.69739" stroke-linecap="butt" stroke-linejoin="miter" stroke="rgb(37.998962%, 37.998962%, 37.998962%)" stroke-opacity="1" stroke-miterlimit="10" d="M 32.313763 21.825293 L 32.313763 34.131018 L 43.085708 34.131018 L 43.085708 21.825293 Z M 32.313763 21.825293 " transform="matrix(0.99071, 0, 0, -0.99071, 132.189552, 61.57957)"/>
<g fill="rgb(0%, 0%, 0%)" fill-opacity="1">
<use xlink:href="#glyph-1-0" x="165.423915" y="35.136526"/>
<use xlink:href="#glyph-1-1" x="168.167789" y="35.136526"/>
<use xlink:href="#glyph-1-7" x="169.539725" y="35.136526"/>
<use xlink:href="#glyph-1-3" x="172.283599" y="35.136526"/>
</g>
<path fill-rule="nonzero" fill="rgb(85.998535%, 85.998535%, 85.998535%)" fill-opacity="1" stroke-width="0.44832" stroke-linecap="butt" stroke-linejoin="miter" stroke="rgb(17.999268%, 17.999268%, 17.999268%)" stroke-opacity="1" stroke-miterlimit="10" d="M 21.541818 21.825293 L 21.541818 34.131018 L 32.313763 34.131018 L 32.313763 21.825293 Z M 21.541818 21.825293 " transform="matrix(0.99071, 0, 0, -0.99071, 132.189552, 61.57957)"/>
<g fill="rgb(0%, 0%, 0%)" fill-opacity="1">
<use xlink:href="#glyph-1-2" x="157.496252" y="35.569466"/>
</g>
<path fill="none" stroke-width="0.69739" stroke-linecap="butt" stroke-linejoin="miter" stroke="rgb(37.998962%, 37.998962%, 37.998962%)" stroke-opacity="1" stroke-miterlimit="10" d="M 10.769873 21.825293 L 10.769873 34.131018 L 21.541818 34.131018 L 21.541818 21.825293 Z M 10.769873 21.825293 " transform="matrix(0.99071, 0, 0, -0.99071, 132.189552, 61.57957)"/>
<g fill="rgb(0%, 0%, 0%)" fill-opacity="1">
<use xlink:href="#glyph-1-12" x="144.081046" y="35.136526"/>
<use xlink:href="#glyph-1-1" x="146.82492" y="35.136526"/>
<use xlink:href="#glyph-1-7" x="148.196857" y="35.136526"/>
<use xlink:href="#glyph-1-3" x="150.94073" y="35.136526"/>
</g>
<path fill-rule="nonzero" fill="rgb(85.998535%, 85.998535%, 85.998535%)" fill-opacity="1" stroke-width="0.44832" stroke-linecap="butt" stroke-linejoin="miter" stroke="rgb(17.999268%, 17.999268%, 17.999268%)" stroke-opacity="1" stroke-miterlimit="10" d="M 0.00187118 21.825293 L 0.00187118 34.131018 L 10.769873 34.131018 L 10.769873 21.825293 Z M 0.00187118 21.825293 " transform="matrix(0.99071, 0, 0, -0.99071, 132.189552, 61.57957)"/>
<g fill="rgb(0%, 0%, 0%)" fill-opacity="1">
<use xlink:href="#glyph-1-2" x="136.153384" y="35.569466"/>
</g>
<path fill="none" stroke-width="0.44832" stroke-linecap="butt" stroke-linejoin="miter" stroke="rgb(17.999268%, 17.999268%, 17.999268%)" stroke-opacity="1" stroke-dasharray="2.98883 1.99255" stroke-miterlimit="10" d="M -43.085908 21.825293 L 0.00187118 21.825293 " transform="matrix(0.99071, 0, 0, -0.99071, 132.189552, 61.57957)"/>
<path fill="none" stroke-width="0.44832" stroke-linecap="butt" stroke-linejoin="miter" stroke="rgb(17.999268%, 17.999268%, 17.999268%)" stroke-opacity="1" stroke-dasharray="2.98883 1.99255" stroke-miterlimit="10" d="M -43.085908 34.131018 L 0.00187118 34.131018 " transform="matrix(0.99071, 0, 0, -0.99071, 132.189552, 61.57957)"/>
<g fill="rgb(37.998962%, 37.998962%, 37.998962%)" fill-opacity="1">
<use xlink:href="#glyph-2-0" x="105.307623" y="35.469405"/>
</g>
<g fill="rgb(37.998962%, 37.998962%, 37.998962%)" fill-opacity="1">
<use xlink:href="#glyph-2-0" x="108.99911" y="35.469405"/>
</g>
<g fill="rgb(37.998962%, 37.998962%, 37.998962%)" fill-opacity="1">
<use xlink:href="#glyph-2-0" x="112.690596" y="35.469405"/>
</g>
<g fill="rgb(0%, 0%, 0%)" fill-opacity="1">
<use xlink:href="#glyph-0-0" x="311.115767" y="57.888184"/>
<use xlink:href="#glyph-0-1" x="314.957179" y="57.888184"/>
<use xlink:href="#glyph-0-2" x="319.178587" y="57.888184"/>
<use xlink:href="#glyph-0-3" x="323.399995" y="57.888184"/>
</g>
<g fill="rgb(0%, 0%, 0%)" fill-opacity="1">
<use xlink:href="#glyph-0-4" x="325.949421" y="57.888184"/>
<use xlink:href="#glyph-0-5" x="329.790833" y="57.888184"/>
</g>
<g fill="rgb(0%, 0%, 0%)" fill-opacity="1">
<use xlink:href="#glyph-0-6" x="335.552951" y="57.888184"/>
<use xlink:href="#glyph-0-11" x="340.161264" y="57.888184"/>
</g>
<path fill-rule="nonzero" fill="rgb(92.999268%, 92.999268%, 92.999268%)" fill-opacity="1" stroke-width="0.44832" stroke-linecap="butt" stroke-linejoin="miter" stroke="rgb(17.999268%, 17.999268%, 17.999268%)" stroke-opacity="1" stroke-miterlimit="10" d="M 161.5771 0.00145903 L 161.5771 12.303241 L 172.349045 12.303241 L 172.349045 0.00145903 Z M 161.5771 0.00145903 " transform="matrix(0.99071, 0, 0, -0.99071, 132.189552, 61.57957)"/>
<g fill="rgb(0%, 0%, 0%)" fill-opacity="1">
<use xlink:href="#glyph-1-12" x="293.482118" y="56.760756"/>
<use xlink:href="#glyph-1-1" x="296.225991" y="56.760756"/>
<use xlink:href="#glyph-1-2" x="297.597928" y="56.760756"/>
<use xlink:href="#glyph-1-3" x="300.341802" y="56.760756"/>
</g>
<path fill-rule="nonzero" fill="rgb(100%, 100%, 100%)" fill-opacity="1" stroke-width="0.37859" stroke-linecap="butt" stroke-linejoin="miter" stroke="rgb(17.999268%, 17.999268%, 17.999268%)" stroke-opacity="1" stroke-miterlimit="10" d="M 150.805156 0.00145903 L 150.805156 12.303241 L 161.5771 12.303241 L 161.5771 0.00145903 Z M 150.805156 0.00145903 " transform="matrix(0.99071, 0, 0, -0.99071, 132.189552, 61.57957)"/>
<g fill="rgb(0%, 0%, 0%)" fill-opacity="1">
<use xlink:href="#glyph-1-4" x="285.692164" y="56.803357"/>
</g>
<path fill-rule="nonzero" fill="rgb(92.999268%, 92.999268%, 92.999268%)" fill-opacity="1" stroke-width="0.44832" stroke-linecap="butt" stroke-linejoin="miter" stroke="rgb(17.999268%, 17.999268%, 17.999268%)" stroke-opacity="1" stroke-miterlimit="10" d="M 140.033211 0.00145903 L 140.033211 12.303241 L 150.805156 12.303241 L 150.805156 0.00145903 Z M 140.033211 0.00145903 " transform="matrix(0.99071, 0, 0, -0.99071, 132.189552, 61.57957)"/>
<g fill="rgb(0%, 0%, 0%)" fill-opacity="1">
<use xlink:href="#glyph-1-12" x="272.139249" y="56.760756"/>
<use xlink:href="#glyph-1-1" x="274.883123" y="56.760756"/>
<use xlink:href="#glyph-1-5" x="276.255059" y="56.760756"/>
<use xlink:href="#glyph-1-3" x="278.998933" y="56.760756"/>
</g>
<path fill-rule="nonzero" fill="rgb(100%, 100%, 100%)" fill-opacity="1" stroke-width="0.37859" stroke-linecap="butt" stroke-linejoin="miter" stroke="rgb(17.999268%, 17.999268%, 17.999268%)" stroke-opacity="1" stroke-miterlimit="10" d="M 129.261266 0.00145903 L 129.261266 12.303241 L 140.033211 12.303241 L 140.033211 0.00145903 Z M 129.261266 0.00145903 " transform="matrix(0.99071, 0, 0, -0.99071, 132.189552, 61.57957)"/>
<g fill="rgb(0%, 0%, 0%)" fill-opacity="1">
<use xlink:href="#glyph-1-4" x="264.349295" y="56.803357"/>
</g>
<path fill-rule="nonzero" fill="rgb(92.999268%, 92.999268%, 92.999268%)" fill-opacity="1" stroke-width="0.44832" stroke-linecap="butt" stroke-linejoin="miter" stroke="rgb(17.999268%, 17.999268%, 17.999268%)" stroke-opacity="1" stroke-miterlimit="10" d="M 118.489321 0.00145903 L 118.489321 12.303241 L 129.261266 12.303241 L 129.261266 0.00145903 Z M 118.489321 0.00145903 " transform="matrix(0.99071, 0, 0, -0.99071, 132.189552, 61.57957)"/>
<g fill="rgb(0%, 0%, 0%)" fill-opacity="1">
<use xlink:href="#glyph-1-12" x="250.79539" y="56.760756"/>
<use xlink:href="#glyph-1-1" x="253.539263" y="56.760756"/>
<use xlink:href="#glyph-1-6" x="254.9112" y="56.760756"/>
<use xlink:href="#glyph-1-3" x="257.655074" y="56.760756"/>
</g>
<path fill-rule="nonzero" fill="rgb(100%, 100%, 100%)" fill-opacity="1" stroke-width="0.37859" stroke-linecap="butt" stroke-linejoin="miter" stroke="rgb(17.999268%, 17.999268%, 17.999268%)" stroke-opacity="1" stroke-miterlimit="10" d="M 107.717376 0.00145903 L 107.717376 12.303241 L 118.489321 12.303241 L 118.489321 0.00145903 Z M 107.717376 0.00145903 " transform="matrix(0.99071, 0, 0, -0.99071, 132.189552, 61.57957)"/>
<g fill="rgb(0%, 0%, 0%)" fill-opacity="1">
<use xlink:href="#glyph-1-4" x="243.006426" y="56.803357"/>
</g>
<path fill-rule="nonzero" fill="rgb(92.999268%, 92.999268%, 92.999268%)" fill-opacity="1" stroke-width="0.44832" stroke-linecap="butt" stroke-linejoin="miter" stroke="rgb(17.999268%, 17.999268%, 17.999268%)" stroke-opacity="1" stroke-miterlimit="10" d="M 96.945432 0.00145903 L 96.945432 12.303241 L 107.717376 12.303241 L 107.717376 0.00145903 Z M 96.945432 0.00145903 " transform="matrix(0.99071, 0, 0, -0.99071, 132.189552, 61.57957)"/>
<g fill="rgb(0%, 0%, 0%)" fill-opacity="1">
<use xlink:href="#glyph-1-12" x="229.452521" y="56.760756"/>
<use xlink:href="#glyph-1-1" x="232.196395" y="56.760756"/>
<use xlink:href="#glyph-1-7" x="233.568331" y="56.760756"/>
<use xlink:href="#glyph-1-3" x="236.312205" y="56.760756"/>
</g>
<path fill-rule="nonzero" fill="rgb(100%, 100%, 100%)" fill-opacity="1" stroke-width="0.37859" stroke-linecap="butt" stroke-linejoin="miter" stroke="rgb(17.999268%, 17.999268%, 17.999268%)" stroke-opacity="1" stroke-miterlimit="10" d="M 86.173487 0.00145903 L 86.173487 12.303241 L 96.945432 12.303241 L 96.945432 0.00145903 Z M 86.173487 0.00145903 " transform="matrix(0.99071, 0, 0, -0.99071, 132.189552, 61.57957)"/>
<g fill="rgb(0%, 0%, 0%)" fill-opacity="1">
<use xlink:href="#glyph-1-4" x="221.663558" y="56.803357"/>
</g>
<path fill-rule="nonzero" fill="rgb(92.999268%, 92.999268%, 92.999268%)" fill-opacity="1" stroke-width="0.44832" stroke-linecap="butt" stroke-linejoin="miter" stroke="rgb(17.999268%, 17.999268%, 17.999268%)" stroke-opacity="1" stroke-miterlimit="10" d="M 75.401542 0.00145903 L 75.401542 12.303241 L 86.173487 12.303241 L 86.173487 0.00145903 Z M 75.401542 0.00145903 " transform="matrix(0.99071, 0, 0, -0.99071, 132.189552, 61.57957)"/>
<g fill="rgb(0%, 0%, 0%)" fill-opacity="1">
<use xlink:href="#glyph-1-12" x="208.109652" y="56.760756"/>
<use xlink:href="#glyph-1-1" x="210.853526" y="56.760756"/>
<use xlink:href="#glyph-1-8" x="212.225463" y="56.760756"/>
<use xlink:href="#glyph-1-3" x="214.969336" y="56.760756"/>
</g>
<path fill-rule="nonzero" fill="rgb(100%, 100%, 100%)" fill-opacity="1" stroke-width="0.37859" stroke-linecap="butt" stroke-linejoin="miter" stroke="rgb(17.999268%, 17.999268%, 17.999268%)" stroke-opacity="1" stroke-miterlimit="10" d="M 64.629597 0.00145903 L 64.629597 12.303241 L 75.401542 12.303241 L 75.401542 0.00145903 Z M 64.629597 0.00145903 " transform="matrix(0.99071, 0, 0, -0.99071, 132.189552, 61.57957)"/>
<g fill="rgb(0%, 0%, 0%)" fill-opacity="1">
<use xlink:href="#glyph-1-4" x="200.320689" y="56.803357"/>
</g>
<path fill-rule="nonzero" fill="rgb(92.999268%, 92.999268%, 92.999268%)" fill-opacity="1" stroke-width="0.44832" stroke-linecap="butt" stroke-linejoin="miter" stroke="rgb(17.999268%, 17.999268%, 17.999268%)" stroke-opacity="1" stroke-miterlimit="10" d="M 53.857652 0.00145903 L 53.857652 12.303241 L 64.629597 12.303241 L 64.629597 0.00145903 Z M 53.857652 0.00145903 " transform="matrix(0.99071, 0, 0, -0.99071, 132.189552, 61.57957)"/>
<g fill="rgb(0%, 0%, 0%)" fill-opacity="1">
<use xlink:href="#glyph-1-12" x="186.766784" y="56.760756"/>
<use xlink:href="#glyph-1-1" x="189.510657" y="56.760756"/>
<use xlink:href="#glyph-1-9" x="190.882594" y="56.760756"/>
<use xlink:href="#glyph-1-3" x="193.626468" y="56.760756"/>
</g>
<path fill-rule="nonzero" fill="rgb(100%, 100%, 100%)" fill-opacity="1" stroke-width="0.37859" stroke-linecap="butt" stroke-linejoin="miter" stroke="rgb(17.999268%, 17.999268%, 17.999268%)" stroke-opacity="1" stroke-miterlimit="10" d="M 43.085708 0.00145903 L 43.085708 12.303241 L 53.857652 12.303241 L 53.857652 0.00145903 Z M 43.085708 0.00145903 " transform="matrix(0.99071, 0, 0, -0.99071, 132.189552, 61.57957)"/>
<g fill="rgb(0%, 0%, 0%)" fill-opacity="1">
<use xlink:href="#glyph-1-4" x="178.97683" y="56.803357"/>
</g>
<path fill-rule="nonzero" fill="rgb(92.999268%, 92.999268%, 92.999268%)" fill-opacity="1" stroke-width="0.44832" stroke-linecap="butt" stroke-linejoin="miter" stroke="rgb(17.999268%, 17.999268%, 17.999268%)" stroke-opacity="1" stroke-miterlimit="10" d="M 32.313763 0.00145903 L 32.313763 12.303241 L 43.085708 12.303241 L 43.085708 0.00145903 Z M 32.313763 0.00145903 " transform="matrix(0.99071, 0, 0, -0.99071, 132.189552, 61.57957)"/>
<g fill="rgb(0%, 0%, 0%)" fill-opacity="1">
<use xlink:href="#glyph-1-12" x="165.423915" y="56.760756"/>
<use xlink:href="#glyph-1-1" x="168.167789" y="56.760756"/>
<use xlink:href="#glyph-1-10" x="169.539725" y="56.760756"/>
<use xlink:href="#glyph-1-3" x="172.283599" y="56.760756"/>
</g>
<path fill-rule="nonzero" fill="rgb(100%, 100%, 100%)" fill-opacity="1" stroke-width="0.37859" stroke-linecap="butt" stroke-linejoin="miter" stroke="rgb(17.999268%, 17.999268%, 17.999268%)" stroke-opacity="1" stroke-miterlimit="10" d="M 21.541818 0.00145903 L 21.541818 12.303241 L 32.313763 12.303241 L 32.313763 0.00145903 Z M 21.541818 0.00145903 " transform="matrix(0.99071, 0, 0, -0.99071, 132.189552, 61.57957)"/>
<g fill="rgb(0%, 0%, 0%)" fill-opacity="1">
<use xlink:href="#glyph-1-4" x="157.633961" y="56.803357"/>
</g>
<path fill-rule="nonzero" fill="rgb(92.999268%, 92.999268%, 92.999268%)" fill-opacity="1" stroke-width="0.44832" stroke-linecap="butt" stroke-linejoin="miter" stroke="rgb(17.999268%, 17.999268%, 17.999268%)" stroke-opacity="1" stroke-miterlimit="10" d="M 10.769873 0.00145903 L 10.769873 12.303241 L 21.541818 12.303241 L 21.541818 0.00145903 Z M 10.769873 0.00145903 " transform="matrix(0.99071, 0, 0, -0.99071, 132.189552, 61.57957)"/>
<g fill="rgb(0%, 0%, 0%)" fill-opacity="1">
<use xlink:href="#glyph-1-12" x="144.081046" y="56.760756"/>
<use xlink:href="#glyph-1-1" x="146.82492" y="56.760756"/>
<use xlink:href="#glyph-1-11" x="148.196857" y="56.760756"/>
<use xlink:href="#glyph-1-3" x="150.94073" y="56.760756"/>
</g>
<path fill-rule="nonzero" fill="rgb(100%, 100%, 100%)" fill-opacity="1" stroke-width="0.37859" stroke-linecap="butt" stroke-linejoin="miter" stroke="rgb(17.999268%, 17.999268%, 17.999268%)" stroke-opacity="1" stroke-miterlimit="10" d="M 0.00187118 0.00145903 L 0.00187118 12.303241 L 10.769873 12.303241 L 10.769873 0.00145903 Z M 0.00187118 0.00145903 " transform="matrix(0.99071, 0, 0, -0.99071, 132.189552, 61.57957)"/>
<g fill="rgb(0%, 0%, 0%)" fill-opacity="1">
<use xlink:href="#glyph-1-4" x="136.291092" y="56.803357"/>
</g>
<path fill="none" stroke-width="0.44832" stroke-linecap="butt" stroke-linejoin="miter" stroke="rgb(17.999268%, 17.999268%, 17.999268%)" stroke-opacity="1" stroke-dasharray="2.98883 1.99255" stroke-miterlimit="10" d="M -43.085908 0.00145903 L 0.00187118 0.00145903 " transform="matrix(0.99071, 0, 0, -0.99071, 132.189552, 61.57957)"/>
<path fill="none" stroke-width="0.44832" stroke-linecap="butt" stroke-linejoin="miter" stroke="rgb(17.999268%, 17.999268%, 17.999268%)" stroke-opacity="1" stroke-dasharray="2.98883 1.99255" stroke-miterlimit="10" d="M -43.085908 12.303241 L 0.00187118 12.303241 " transform="matrix(0.99071, 0, 0, -0.99071, 132.189552, 61.57957)"/>
<g fill="rgb(37.998962%, 37.998962%, 37.998962%)" fill-opacity="1">
<use xlink:href="#glyph-2-0" x="105.307623" y="57.093635"/>
</g>
<g fill="rgb(37.998962%, 37.998962%, 37.998962%)" fill-opacity="1">
<use xlink:href="#glyph-2-0" x="108.99911" y="57.093635"/>
</g>
<g fill="rgb(37.998962%, 37.998962%, 37.998962%)" fill-opacity="1">
<use xlink:href="#glyph-2-0" x="112.690596" y="57.093635"/>
</g>
<path fill="none" stroke-width="0.41843" stroke-linecap="butt" stroke-linejoin="miter" stroke="rgb(37.998962%, 37.998962%, 37.998962%)" stroke-opacity="1" stroke-miterlimit="10" d="M 166.963073 43.258782 L 166.963073 39.221274 " transform="matrix(0.99071, 0, 0, -0.99071, 132.189552, 61.57957)"/>
<path fill-rule="nonzero" fill="rgb(37.998962%, 37.998962%, 37.998962%)" fill-opacity="1" stroke-width="0.41843" stroke-linecap="butt" stroke-linejoin="miter" stroke="rgb(37.998962%, 37.998962%, 37.998962%)" stroke-opacity="1" stroke-miterlimit="10" d="M 3.008162 0.0015528 C 2.641475 0.0882961 1.017009 0.589042 -0.000254181 1.129216 L -0.000254181 -1.130053 C 1.017009 -0.585936 2.641475 -0.0891334 3.008162 0.0015528 Z M 3.008162 0.0015528 " transform="matrix(0, 0.99071, 0.99071, 0, 297.600024, 22.722908)"/>
<path fill="none" stroke-width="0.41843" stroke-linecap="butt" stroke-linejoin="miter" stroke="rgb(37.998962%, 37.998962%, 37.998962%)" stroke-opacity="1" stroke-miterlimit="10" d="M 166.963073 12.697529 L 149.078175 19.286079 " transform="matrix(0.99071, 0, 0, -0.99071, 132.189552, 61.57957)"/>
<path fill-rule="nonzero" fill="rgb(37.998962%, 37.998962%, 37.998962%)" fill-opacity="1" stroke-width="0.41843" stroke-linecap="butt" stroke-linejoin="miter" stroke="rgb(37.998962%, 37.998962%, 37.998962%)" stroke-opacity="1" stroke-miterlimit="10" d="M 3.008731 0.000851399 C 2.640492 0.0879052 1.015648 0.586068 -0.000653561 1.131928 L 0.0000762504 -1.128537 C 1.014843 -0.586616 2.638541 -0.0893021 3.008731 0.000851399 Z M 3.008731 0.000851399 " transform="matrix(-0.929593, -0.342459, -0.342459, 0.929593, 279.883125, 42.470981)"/>
<path fill="none" stroke-width="0.41843" stroke-linecap="butt" stroke-linejoin="miter" stroke="rgb(37.998962%, 37.998962%, 37.998962%)" stroke-opacity="1" stroke-miterlimit="10" d="M 145.419183 43.258782 L 127.534285 36.670232 " transform="matrix(0.99071, 0, 0, -0.99071, 132.189552, 61.57957)"/>
<path fill-rule="nonzero" fill="rgb(37.998962%, 37.998962%, 37.998962%)" fill-opacity="1" stroke-width="0.41843" stroke-linecap="butt" stroke-linejoin="miter" stroke="rgb(37.998962%, 37.998962%, 37.998962%)" stroke-opacity="1" stroke-miterlimit="10" d="M 3.009146 -0.00111172 C 2.638956 0.0890418 1.015259 0.586355 0.000491494 1.128276 L -0.000238317 -1.132188 C 1.016063 -0.586329 2.640907 -0.0881655 3.009146 -0.00111172 Z M 3.009146 -0.00111172 " transform="matrix(-0.929593, 0.342459, 0.342459, 0.929593, 258.53985, 25.251775)"/>
<path fill="none" stroke-width="0.41843" stroke-linecap="butt" stroke-linejoin="miter" stroke="rgb(37.998962%, 37.998962%, 37.998962%)" stroke-opacity="1" stroke-miterlimit="10" d="M 145.419183 12.697529 L 106.167825 19.928768 " transform="matrix(0.99071, 0, 0, -0.99071, 132.189552, 61.57957)"/>
<path fill-rule="nonzero" fill="rgb(37.998962%, 37.998962%, 37.998962%)" fill-opacity="1" stroke-width="0.41843" stroke-linecap="butt" stroke-linejoin="miter" stroke="rgb(37.998962%, 37.998962%, 37.998962%)" stroke-opacity="1" stroke-miterlimit="10" d="M 3.010465 0.00207439 C 2.642073 0.0865752 1.01401 0.588572 -0.000133906 1.13148 L -0.000574288 -1.129899 C 1.013891 -0.586203 2.637887 -0.0865999 3.010465 0.00207439 Z M 3.010465 0.00207439 " transform="matrix(-0.974274, -0.179457, -0.179457, 0.974274, 237.370891, 41.835104)"/>
<path fill="none" stroke-width="0.41843" stroke-linecap="butt" stroke-linejoin="miter" stroke="rgb(37.998962%, 37.998962%, 37.998962%)" stroke-opacity="1" stroke-miterlimit="10" d="M 123.875294 43.258782 L 84.623935 36.027542 " transform="matrix(0.99071, 0, 0, -0.99071, 132.189552, 61.57957)"/>
<path fill-rule="nonzero" fill="rgb(37.998962%, 37.998962%, 37.998962%)" fill-opacity="1" stroke-width="0.41843" stroke-linecap="butt" stroke-linejoin="miter" stroke="rgb(37.998962%, 37.998962%, 37.998962%)" stroke-opacity="1" stroke-miterlimit="10" d="M 3.011609 0.00160144 C 2.638317 0.0863979 1.014321 0.586001 -0.000144129 1.129697 L 0.000296253 -1.131682 C 1.01444 -0.588774 2.638626 -0.0860629 3.011609 0.00160144 Z M 3.011609 0.00160144 " transform="matrix(-0.974274, 0.179457, 0.179457, 0.974274, 216.027596, 25.887672)"/>
<path fill="none" stroke-width="0.41843" stroke-linecap="butt" stroke-linejoin="miter" stroke="rgb(37.998962%, 37.998962%, 37.998962%)" stroke-opacity="1" stroke-miterlimit="10" d="M 123.875294 12.697529 L 63.115532 20.161398 " transform="matrix(0.99071, 0, 0, -0.99071, 132.189552, 61.57957)"/>
<path fill-rule="nonzero" fill="rgb(37.998962%, 37.998962%, 37.998962%)" fill-opacity="1" stroke-width="0.41843" stroke-linecap="butt" stroke-linejoin="miter" stroke="rgb(37.998962%, 37.998962%, 37.998962%)" stroke-opacity="1" stroke-miterlimit="10" d="M 3.008109 -0.000662647 C 2.639555 0.0891496 1.016972 0.589082 0.000914845 1.131706 L 0.0003874 -1.128719 C 1.014408 -0.587097 2.641611 -0.0893611 3.008109 -0.000662647 Z M 3.008109 -0.000662647 " transform="matrix(-0.983319, -0.120738, -0.120738, 0.983319, 194.719571, 41.606032)"/>
<path fill="none" stroke-width="0.41843" stroke-linecap="butt" stroke-linejoin="miter" stroke="rgb(37.998962%, 37.998962%, 37.998962%)" stroke-opacity="1" stroke-miterlimit="10" d="M 102.331404 43.258782 L 41.571642 35.794913 " transform="matrix(0.99071, 0, 0, -0.99071, 132.189552, 61.57957)"/>
<path fill-rule="nonzero" fill="rgb(37.998962%, 37.998962%, 37.998962%)" fill-opacity="1" stroke-width="0.41843" stroke-linecap="butt" stroke-linejoin="miter" stroke="rgb(37.998962%, 37.998962%, 37.998962%)" stroke-opacity="1" stroke-miterlimit="10" d="M 3.008563 0.000505441 C 2.638151 0.0896844 1.014861 0.58694 0.000841239 1.128562 L 0.00136868 -1.131863 C 1.013513 -0.588758 2.640009 -0.0893068 3.008563 0.000505441 Z M 3.008563 0.000505441 " transform="matrix(-0.983319, 0.120738, 0.120738, 0.983319, 173.376286, 26.116724)"/>
<path fill="none" stroke-width="0.41843" stroke-linecap="butt" stroke-linejoin="miter" stroke="rgb(37.998962%, 37.998962%, 37.998962%)" stroke-opacity="1" stroke-miterlimit="10" d="M 102.331404 12.697529 L 20.043524 20.279685 " transform="matrix(0.99071, 0, 0, -0.99071, 132.189552, 61.57957)"/>
<path fill-rule="nonzero" fill="rgb(37.998962%, 37.998962%, 37.998962%)" fill-opacity="1" stroke-width="0.41843" stroke-linecap="butt" stroke-linejoin="miter" stroke="rgb(37.998962%, 37.998962%, 37.998962%)" stroke-opacity="1" stroke-miterlimit="10" d="M 3.00798 -0.00133007 C 2.639461 0.0874889 1.013493 0.58717 0.00114368 1.131475 L -0.000507392 -1.129715 C 1.014863 -0.588761 2.639663 -0.0867231 3.00798 -0.00133007 Z M 3.00798 -0.00133007 " transform="matrix(-0.98648, -0.0908382, -0.0908382, 0.98648, 152.045316, 41.489395)"/>
</svg>
