<?xml version="1.0" encoding="UTF-8"?>
<svg xmlns="http://www.w3.org/2000/svg" xmlns:xlink="http://www.w3.org/1999/xlink" width="437.474" height="68.041" viewBox="0 0 437.474 68.041">
<defs>
<g>
<g id="glyph-0-0">
<path d="M 2.421875 -3.578125 L 2.015625 -3.578125 L 2.015625 -2.25 C 1.84375 -2.5 1.578125 -2.640625 1.234375 -2.640625 C 0.5625 -2.640625 0.125 -2.109375 0.125 -1.296875 C 0.125 -0.421875 0.546875 0.109375 1.25 0.109375 C 1.59375 0.109375 1.84375 -0.015625 2.0625 -0.34375 L 2.0625 0 L 2.421875 0 Z M 1.296875 -2.265625 C 1.734375 -2.265625 2.015625 -1.875 2.015625 -1.25 C 2.015625 -0.65625 1.734375 -0.265625 1.3125 -0.265625 C 0.859375 -0.265625 0.546875 -0.671875 0.546875 -1.265625 C 0.546875 -1.859375 0.859375 -2.265625 1.296875 -2.265625 Z M 1.296875 -2.265625 "/>
</g>
<g id="glyph-0-1">
<path d="M 1.34375 -3.484375 C 1.03125 -3.484375 0.734375 -3.34375 0.546875 -3.09375 C 0.328125 -2.796875 0.21875 -2.328125 0.21875 -1.6875 C 0.21875 -0.515625 0.609375 0.109375 1.34375 0.109375 C 2.078125 0.109375 2.484375 -0.515625 2.484375 -1.65625 C 2.484375 -2.328125 2.375 -2.78125 2.15625 -3.09375 C 1.96875 -3.34375 1.671875 -3.484375 1.34375 -3.484375 Z M 1.34375 -3.09375 C 1.8125 -3.09375 2.046875 -2.625 2.046875 -1.6875 C 2.046875 -0.703125 1.8125 -0.25 1.34375 -0.25 C 0.890625 -0.25 0.65625 -0.71875 0.65625 -1.671875 C 0.65625 -2.625 0.890625 -3.09375 1.34375 -3.09375 Z M 1.34375 -3.09375 "/>
</g>
<g id="glyph-0-2">
<path d="M 1.265625 -2.484375 L 1.265625 0 L 1.703125 0 L 1.703125 -3.484375 L 1.421875 -3.484375 C 1.265625 -2.9375 1.171875 -2.875 0.5 -2.78125 L 0.5 -2.484375 Z M 1.265625 -2.484375 "/>
</g>
<g id="glyph-0-3">
<path d="M 2.484375 -0.421875 L 0.65625 -0.421875 C 0.703125 -0.71875 0.859375 -0.890625 1.28125 -1.140625 L 1.765625 -1.40625 C 2.25 -1.671875 2.5 -2.03125 2.5 -2.453125 C 2.5 -2.75 2.390625 -3.015625 2.1875 -3.203125 C 1.984375 -3.390625 1.71875 -3.484375 1.390625 -3.484375 C 0.953125 -3.484375 0.625 -3.328125 0.4375 -3.03125 C 0.3125 -2.84375 0.25 -2.625 0.25 -2.265625 L 0.671875 -2.265625 C 0.6875 -2.5 0.71875 -2.65625 0.78125 -2.765625 C 0.890625 -2.96875 1.125 -3.09375 1.375 -3.09375 C 1.765625 -3.09375 2.0625 -2.828125 2.0625 -2.453125 C 2.0625 -2.171875 1.90625 -1.9375 1.59375 -1.765625 L 1.140625 -1.5 C 0.421875 -1.09375 0.203125 -0.765625 0.171875 0 L 2.484375 0 Z M 2.484375 -0.421875 "/>
</g>
<g id="glyph-0-4">
<path d="M 1.4375 -1.328125 L 2.296875 -2.578125 L 1.828125 -2.578125 L 1.21875 -1.640625 L 0.59375 -2.578125 L 0.125 -2.578125 L 0.984375 -1.3125 L 0.078125 0 L 0.546875 0 L 1.203125 -0.984375 L 1.84375 0 L 2.328125 0 Z M 1.4375 -1.328125 "/>
</g>
<g id="glyph-0-5">
<path d="M 1.609375 -0.828125 L 1.609375 0 L 2.03125 0 L 2.03125 -0.828125 L 2.546875 -0.828125 L 2.546875 -1.21875 L 2.03125 -1.21875 L 2.03125 -3.484375 L 1.71875 -3.484375 L 0.140625 -1.296875 L 0.140625 -0.828125 Z M 1.609375 -1.21875 L 0.515625 -1.21875 L 1.609375 -2.75 Z M 1.609375 -1.21875 "/>
</g>
<g id="glyph-0-6">
<path d="M 2.328125 -3.484375 L 0.546875 -3.484375 L 0.28125 -1.578125 L 0.671875 -1.578125 C 0.875 -1.828125 1.046875 -1.90625 1.3125 -1.90625 C 1.78125 -1.90625 2.078125 -1.59375 2.078125 -1.078125 C 2.078125 -0.578125 1.78125 -0.265625 1.3125 -0.265625 C 0.9375 -0.265625 0.703125 -0.46875 0.609375 -0.859375 L 0.171875 -0.859375 C 0.234375 -0.5625 0.28125 -0.4375 0.375 -0.296875 C 0.578125 -0.046875 0.9375 0.109375 1.328125 0.109375 C 2.03125 0.109375 2.515625 -0.390625 2.515625 -1.140625 C 2.515625 -1.8125 2.0625 -2.296875 1.390625 -2.296875 C 1.140625 -2.296875 0.953125 -2.234375 0.75 -2.078125 L 0.890625 -3.046875 L 2.328125 -3.046875 Z M 2.328125 -3.484375 "/>
</g>
<g id="glyph-0-7">
<path d="M 2.4375 -2.578125 C 2.359375 -3.140625 1.984375 -3.484375 1.453125 -3.484375 C 1.078125 -3.484375 0.734375 -3.296875 0.53125 -2.984375 C 0.3125 -2.640625 0.21875 -2.21875 0.21875 -1.578125 C 0.21875 -1 0.296875 -0.625 0.5 -0.3125 C 0.6875 -0.046875 1 0.109375 1.375 0.109375 C 2.046875 0.109375 2.515625 -0.375 2.515625 -1.0625 C 2.515625 -1.703125 2.078125 -2.15625 1.453125 -2.15625 C 1.109375 -2.15625 0.84375 -2.03125 0.65625 -1.78125 C 0.65625 -2.625 0.9375 -3.09375 1.421875 -3.09375 C 1.734375 -3.09375 1.9375 -2.90625 2.015625 -2.578125 Z M 1.390625 -1.78125 C 1.8125 -1.78125 2.078125 -1.484375 2.078125 -1.03125 C 2.078125 -0.59375 1.78125 -0.265625 1.390625 -0.265625 C 0.984375 -0.265625 0.671875 -0.609375 0.671875 -1.046875 C 0.671875 -1.484375 0.96875 -1.78125 1.390625 -1.78125 Z M 1.390625 -1.78125 "/>
</g>
<g id="glyph-0-8">
<path d="M 2.546875 -3.484375 L 0.21875 -3.484375 L 0.21875 -3.046875 L 2.109375 -3.046875 C 1.28125 -1.875 0.9375 -1.140625 0.671875 0 L 1.140625 0 C 1.328125 -1.109375 1.765625 -2.078125 2.546875 -3.109375 Z M 2.546875 -3.484375 "/>
</g>
<g id="glyph-0-9">
<path d="M 0.734375 -2.578125 L 0.328125 -2.578125 L 0.328125 0 L 0.734375 0 Z M 0.734375 -3.578125 L 0.328125 -3.578125 L 0.328125 -3.0625 L 0.734375 -3.0625 Z M 0.734375 -3.578125 "/>
</g>
<g id="glyph-1-0">
<path d="M 2.734375 0 L 4.453125 -5.015625 L 3.40625 -5.015625 L 2.3125 -1.234375 L 1.203125 -5.015625 L 0.171875 -5.015625 L 1.859375 0 Z M 2.734375 0 "/>
</g>
<g id="glyph-1-1">
<path d="M 2.78125 0 L 3.75 0 L 3.75 -5.015625 L 2.78125 -5.015625 L 2.78125 -3.234375 C 2.546875 -3.609375 2.21875 -3.78125 1.765625 -3.78125 C 0.875 -3.78125 0.203125 -2.921875 0.203125 -1.796875 C 0.203125 -1.296875 0.34375 -0.796875 0.59375 -0.4375 C 0.859375 -0.078125 1.3125 0.15625 1.765625 0.15625 C 2.21875 0.15625 2.546875 -0.015625 2.78125 -0.375 Z M 1.96875 -2.96875 C 2.46875 -2.96875 2.78125 -2.5 2.78125 -1.78125 C 2.78125 -1.109375 2.453125 -0.640625 1.96875 -0.640625 C 1.484375 -0.640625 1.15625 -1.125 1.15625 -1.796875 C 1.15625 -2.484375 1.484375 -2.96875 1.96875 -2.96875 Z M 1.96875 -2.96875 "/>
</g>
<g id="glyph-1-2">
<path d="M 3.46875 -2.515625 C 3.453125 -3.296875 2.859375 -3.78125 1.859375 -3.78125 C 0.921875 -3.78125 0.328125 -3.296875 0.328125 -2.53125 C 0.328125 -2.296875 0.40625 -2.078125 0.53125 -1.9375 C 0.671875 -1.796875 0.78125 -1.734375 1.140625 -1.625 L 2.296875 -1.265625 C 2.53125 -1.1875 2.609375 -1.109375 2.609375 -0.96875 C 2.609375 -0.734375 2.34375 -0.59375 1.890625 -0.59375 C 1.65625 -0.59375 1.453125 -0.640625 1.328125 -0.734375 C 1.21875 -0.796875 1.1875 -0.875 1.140625 -1.078125 L 0.203125 -1.078125 C 0.234375 -0.265625 0.828125 0.15625 1.953125 0.15625 C 2.46875 0.15625 2.859375 0.046875 3.140625 -0.171875 C 3.40625 -0.390625 3.578125 -0.734375 3.578125 -1.09375 C 3.578125 -1.578125 3.328125 -1.890625 2.84375 -2.03125 L 1.625 -2.390625 C 1.359375 -2.46875 1.296875 -2.515625 1.296875 -2.671875 C 1.296875 -2.875 1.515625 -3.015625 1.84375 -3.015625 C 2.3125 -3.015625 2.53125 -2.859375 2.546875 -2.515625 Z M 3.46875 -2.515625 "/>
</g>
<g id="glyph-1-3">
<path d="M 2.0625 -3.78125 C 0.9375 -3.78125 0.234375 -3.03125 0.234375 -1.8125 C 0.234375 -0.578125 0.9375 0.15625 2.078125 0.15625 C 3.203125 0.15625 3.90625 -0.59375 3.90625 -1.78125 C 3.90625 -3.03125 3.234375 -3.78125 2.0625 -3.78125 Z M 2.078125 -3 C 2.609375 -3 2.953125 -2.515625 2.953125 -1.796875 C 2.953125 -1.09375 2.59375 -0.625 2.078125 -0.625 C 1.546875 -0.625 1.203125 -1.09375 1.203125 -1.8125 C 1.203125 -2.515625 1.546875 -3 2.078125 -3 Z M 2.078125 -3 "/>
</g>
<g id="glyph-1-4">
<path d="M 3.71875 0 L 3.71875 -3.71875 L 2.75 -3.71875 L 2.75 -1.390625 C 2.75 -0.953125 2.453125 -0.65625 1.984375 -0.65625 C 1.5625 -0.65625 1.359375 -0.875 1.359375 -1.328125 L 1.359375 -3.71875 L 0.40625 -3.71875 L 0.40625 -1.125 C 0.40625 -0.3125 0.859375 0.15625 1.640625 0.15625 C 2.140625 0.15625 2.484375 -0.03125 2.75 -0.4375 L 2.75 0 Z M 3.71875 0 "/>
</g>
<g id="glyph-1-5">
<path d="M 0.4375 -3.71875 L 0.4375 0 L 1.390625 0 L 1.390625 -1.96875 C 1.390625 -2.53125 1.671875 -2.8125 2.234375 -2.8125 C 2.34375 -2.8125 2.40625 -2.8125 2.546875 -2.796875 L 2.546875 -3.765625 C 2.484375 -3.78125 2.453125 -3.78125 2.421875 -3.78125 C 1.984375 -3.78125 1.609375 -3.484375 1.390625 -2.984375 L 1.390625 -3.71875 Z M 0.4375 -3.71875 "/>
</g>
<g id="glyph-1-6">
<path d="M 3.59375 -2.328125 C 3.515625 -3.234375 2.921875 -3.78125 1.984375 -3.78125 C 0.875 -3.78125 0.234375 -3.046875 0.234375 -1.78125 C 0.234375 -0.5625 0.875 0.15625 1.96875 0.15625 C 2.875 0.15625 3.5 -0.40625 3.59375 -1.28125 L 2.671875 -1.28125 C 2.546875 -0.796875 2.34375 -0.625 1.984375 -0.625 C 1.484375 -0.625 1.203125 -1.0625 1.203125 -1.78125 C 1.203125 -2.125 1.265625 -2.46875 1.375 -2.6875 C 1.484375 -2.890625 1.703125 -3 1.984375 -3 C 2.375 -3 2.5625 -2.8125 2.671875 -2.328125 Z M 3.59375 -2.328125 "/>
</g>
<g id="glyph-1-7">
<path d="M 3.609375 -1.546875 C 3.609375 -1.640625 3.609375 -1.671875 3.609375 -1.71875 C 3.609375 -2.09375 3.546875 -2.4375 3.46875 -2.6875 C 3.21875 -3.375 2.625 -3.78125 1.875 -3.78125 C 0.796875 -3.78125 0.15625 -3 0.15625 -1.765625 C 0.15625 -0.578125 0.796875 0.15625 1.84375 0.15625 C 2.6875 0.15625 3.359375 -0.3125 3.5625 -1.046875 L 2.625 -1.046875 C 2.5 -0.75 2.234375 -0.578125 1.890625 -0.578125 C 1.609375 -0.578125 1.390625 -0.6875 1.25 -0.90625 C 1.15625 -1.03125 1.125 -1.203125 1.109375 -1.546875 Z M 1.125 -2.1875 C 1.1875 -2.75 1.4375 -3.03125 1.859375 -3.03125 C 2.09375 -3.03125 2.3125 -2.921875 2.453125 -2.734375 C 2.546875 -2.59375 2.578125 -2.453125 2.609375 -2.1875 Z M 1.125 -2.1875 "/>
</g>
<g id="glyph-1-8">
<path d="M 1.578125 -1.984375 L 2.765625 -1.984375 C 3.203125 -1.984375 3.40625 -1.8125 3.40625 -1.390625 C 3.40625 -1.34375 3.40625 -1.28125 3.390625 -1.1875 C 3.390625 -1.0625 3.390625 -0.9375 3.390625 -0.859375 C 3.390625 -0.390625 3.421875 -0.234375 3.546875 0 L 4.65625 0 L 4.65625 -0.1875 C 4.5 -0.28125 4.4375 -0.375 4.4375 -0.59375 C 4.40625 -2.078125 4.375 -2.140625 3.734375 -2.421875 C 4.296875 -2.640625 4.578125 -3.046875 4.578125 -3.65625 C 4.578125 -4.0625 4.453125 -4.421875 4.203125 -4.671875 C 3.984375 -4.90625 3.671875 -5.015625 3.234375 -5.015625 L 0.546875 -5.015625 L 0.546875 0 L 1.578125 0 Z M 1.578125 -2.84375 L 1.578125 -4.15625 L 2.828125 -4.15625 C 3.125 -4.15625 3.25 -4.125 3.375 -4.015625 C 3.5 -3.921875 3.546875 -3.75 3.546875 -3.515625 C 3.546875 -3.265625 3.484375 -3.078125 3.375 -2.984375 C 3.265625 -2.875 3.125 -2.84375 2.828125 -2.84375 Z M 1.578125 -2.84375 "/>
</g>
<g id="glyph-1-9">
<path d="M 0.4375 -3.71875 L 0.4375 0 L 1.390625 0 L 1.390625 -2.234375 C 1.390625 -2.671875 1.703125 -2.953125 2.171875 -2.953125 C 2.578125 -2.953125 2.796875 -2.734375 2.796875 -2.296875 L 2.796875 0 L 3.75 0 L 3.75 -2.484375 C 3.75 -3.3125 3.296875 -3.78125 2.515625 -3.78125 C 2 -3.78125 1.671875 -3.59375 1.390625 -3.171875 L 1.390625 -3.71875 Z M 0.4375 -3.71875 "/>
</g>
<g id="glyph-1-10">
<path d="M 1.421875 -3.71875 L 0.453125 -3.71875 L 0.453125 0 L 1.421875 0 Z M 1.421875 -5.015625 L 0.453125 -5.015625 L 0.453125 -4.15625 L 1.421875 -4.15625 Z M 1.421875 -5.015625 "/>
</g>
<g id="glyph-1-11">
<path d="M 2.4375 -1.875 L 3.65625 -3.71875 L 2.5 -3.71875 L 1.890625 -2.59375 L 1.296875 -3.71875 L 0.140625 -3.71875 L 1.34375 -1.875 L 0.109375 0 L 1.265625 0 L 1.890625 -1.15625 L 2.515625 0 L 3.671875 0 Z M 2.4375 -1.875 "/>
</g>
<g id="glyph-2-0">
<path d="M 1.5625 -1.71875 C 1.5625 -1.96875 1.359375 -2.125 1.171875 -2.125 C 0.9375 -2.125 0.765625 -1.9375 0.765625 -1.71875 C 0.765625 -1.484375 0.96875 -1.328125 1.15625 -1.328125 C 1.390625 -1.328125 1.5625 -1.515625 1.5625 -1.71875 Z M 1.5625 -1.71875 "/>
</g>
</g>
</defs>
<path fill-rule="nonzero" fill="rgb(96.998596%, 96.998596%, 96.998596%)" fill-opacity="1" stroke-width="0.44832" stroke-linecap="butt" stroke-linejoin="miter" stroke="rgb(17.999268%, 17.999268%, 17.999268%)" stroke-opacity="1" stroke-miterlimit="10" d="M 150.802479 0.000839971 L 150.802479 12.300696 L 172.348024 12.300696 L 172.348024 0.000839971 Z M 150.802479 0.000839971 " transform="matrix(0.986101, 0, 0, -0.986101, 132.402832, 60.758641)"/>
<g fill="rgb(0%, 0%, 0%)" fill-opacity="1">
<use xlink:href="#glyph-0-0" x="288.999687" y="56.39317"/>
<use xlink:href="#glyph-0-1" x="291.730796" y="56.39317"/>
</g>
<path fill-rule="nonzero" fill="rgb(96.998596%, 96.998596%, 96.998596%)" fill-opacity="1" stroke-width="0.44832" stroke-linecap="butt" stroke-linejoin="miter" stroke="rgb(17.999268%, 17.999268%, 17.999268%)" stroke-opacity="1" stroke-miterlimit="10" d="M 129.260895 0.000839971 L 129.260895 12.300696 L 150.802479 12.300696 L 150.802479 0.000839971 Z M 129.260895 0.000839971 " transform="matrix(0.986101, 0, 0, -0.986101, 132.402832, 60.758641)"/>
<g fill="rgb(0%, 0%, 0%)" fill-opacity="1">
<use xlink:href="#glyph-0-0" x="267.756103" y="56.414864"/>
<use xlink:href="#glyph-0-2" x="270.487212" y="56.414864"/>
</g>
<path fill-rule="nonzero" fill="rgb(96.998596%, 96.998596%, 96.998596%)" fill-opacity="1" stroke-width="0.44832" stroke-linecap="butt" stroke-linejoin="miter" stroke="rgb(17.999268%, 17.999268%, 17.999268%)" stroke-opacity="1" stroke-miterlimit="10" d="M 107.715349 0.000839971 L 107.715349 12.300696 L 129.260895 12.300696 L 129.260895 0.000839971 Z M 107.715349 0.000839971 " transform="matrix(0.986101, 0, 0, -0.986101, 132.402832, 60.758641)"/>
<g fill="rgb(0%, 0%, 0%)" fill-opacity="1">
<use xlink:href="#glyph-0-0" x="246.51252" y="56.414864"/>
<use xlink:href="#glyph-0-3" x="249.243629" y="56.414864"/>
</g>
<path fill-rule="nonzero" fill="rgb(92.999268%, 92.999268%, 92.999268%)" fill-opacity="1" stroke-width="0.89664" stroke-linecap="butt" stroke-linejoin="miter" stroke="rgb(17.999268%, 17.999268%, 17.999268%)" stroke-opacity="1" stroke-miterlimit="10" d="M 86.173765 0.000839971 L 86.173765 12.300696 L 107.715349 12.300696 L 107.715349 0.000839971 Z M 86.173765 0.000839971 " transform="matrix(0.986101, 0, 0, -0.986101, 132.402832, 60.758641)"/>
<g fill="rgb(0%, 0%, 0%)" fill-opacity="1">
<use xlink:href="#glyph-0-4" x="226.771755" y="56.004646"/>
</g>
<path fill-rule="nonzero" fill="rgb(96.998596%, 96.998596%, 96.998596%)" fill-opacity="1" stroke-width="0.44832" stroke-linecap="butt" stroke-linejoin="miter" stroke="rgb(17.999268%, 17.999268%, 17.999268%)" stroke-opacity="1" stroke-miterlimit="10" d="M 64.63218 0.000839971 L 64.63218 12.300696 L 86.173765 12.300696 L 86.173765 0.000839971 Z M 64.63218 0.000839971 " transform="matrix(0.986101, 0, 0, -0.986101, 132.402832, 60.758641)"/>
<g fill="rgb(0%, 0%, 0%)" fill-opacity="1">
<use xlink:href="#glyph-0-0" x="204.024366" y="56.414864"/>
<use xlink:href="#glyph-0-5" x="206.755476" y="56.414864"/>
</g>
<path fill-rule="nonzero" fill="rgb(96.998596%, 96.998596%, 96.998596%)" fill-opacity="1" stroke-width="0.44832" stroke-linecap="butt" stroke-linejoin="miter" stroke="rgb(17.999268%, 17.999268%, 17.999268%)" stroke-opacity="1" stroke-miterlimit="10" d="M 43.086635 0.000839971 L 43.086635 12.300696 L 64.63218 12.300696 L 64.63218 0.000839971 Z M 43.086635 0.000839971 " transform="matrix(0.986101, 0, 0, -0.986101, 132.402832, 60.758641)"/>
<g fill="rgb(0%, 0%, 0%)" fill-opacity="1">
<use xlink:href="#glyph-0-0" x="182.780783" y="56.39317"/>
<use xlink:href="#glyph-0-6" x="185.511892" y="56.39317"/>
</g>
<path fill-rule="nonzero" fill="rgb(96.998596%, 96.998596%, 96.998596%)" fill-opacity="1" stroke-width="0.44832" stroke-linecap="butt" stroke-linejoin="miter" stroke="rgb(17.999268%, 17.999268%, 17.999268%)" stroke-opacity="1" stroke-miterlimit="10" d="M 21.54505 0.000839971 L 21.54505 12.300696 L 43.086635 12.300696 L 43.086635 0.000839971 Z M 21.54505 0.000839971 " transform="matrix(0.986101, 0, 0, -0.986101, 132.402832, 60.758641)"/>
<g fill="rgb(0%, 0%, 0%)" fill-opacity="1">
<use xlink:href="#glyph-0-0" x="161.537199" y="56.39317"/>
<use xlink:href="#glyph-0-7" x="164.268309" y="56.39317"/>
</g>
<path fill-rule="nonzero" fill="rgb(96.998596%, 96.998596%, 96.998596%)" fill-opacity="1" stroke-width="0.44832" stroke-linecap="butt" stroke-linejoin="miter" stroke="rgb(17.999268%, 17.999268%, 17.999268%)" stroke-opacity="1" stroke-miterlimit="10" d="M -0.000495146 0.000839971 L -0.000495146 12.300696 L 21.54505 12.300696 L 21.54505 0.000839971 Z M -0.000495146 0.000839971 " transform="matrix(0.986101, 0, 0, -0.986101, 132.402832, 60.758641)"/>
<g fill="rgb(0%, 0%, 0%)" fill-opacity="1">
<use xlink:href="#glyph-0-0" x="140.293616" y="56.414864"/>
<use xlink:href="#glyph-0-8" x="143.024725" y="56.414864"/>
</g>
<g fill="rgb(0%, 0%, 0%)" fill-opacity="1">
<use xlink:href="#glyph-1-0" x="310.496698" y="57.084427"/>
<use xlink:href="#glyph-1-1" x="315.083573" y="57.084427"/>
</g>
<path fill="none" stroke-width="0.44832" stroke-linecap="butt" stroke-linejoin="miter" stroke="rgb(17.999268%, 17.999268%, 17.999268%)" stroke-opacity="1" stroke-dasharray="2.98883 1.99255" stroke-miterlimit="10" d="M -43.087625 0.000839971 L -0.000495146 0.000839971 " transform="matrix(0.986101, 0, 0, -0.986101, 132.402832, 60.758641)"/>
<path fill="none" stroke-width="0.44832" stroke-linecap="butt" stroke-linejoin="miter" stroke="rgb(17.999268%, 17.999268%, 17.999268%)" stroke-opacity="1" stroke-dasharray="2.98883 1.99255" stroke-miterlimit="10" d="M -43.087625 12.300696 L -0.000495146 12.300696 " transform="matrix(0.986101, 0, 0, -0.986101, 132.402832, 60.758641)"/>
<g fill="rgb(37.998962%, 37.998962%, 37.998962%)" fill-opacity="1">
<use xlink:href="#glyph-2-0" x="105.646941" y="56.292587"/>
</g>
<g fill="rgb(37.998962%, 37.998962%, 37.998962%)" fill-opacity="1">
<use xlink:href="#glyph-2-0" x="109.321255" y="56.292587"/>
</g>
<g fill="rgb(37.998962%, 37.998962%, 37.998962%)" fill-opacity="1">
<use xlink:href="#glyph-2-0" x="112.995569" y="56.292587"/>
</g>
<path fill-rule="nonzero" fill="rgb(92.999268%, 92.999268%, 92.999268%)" fill-opacity="1" stroke-width="0.3985" stroke-linecap="butt" stroke-linejoin="miter" stroke="rgb(17.999268%, 17.999268%, 17.999268%)" stroke-opacity="1" stroke-miterlimit="10" d="M 107.287528 55.189761 L 86.601586 55.189761 C 86.050964 55.189761 85.607298 54.746095 85.607298 54.195473 L 85.607298 45.417218 C 85.607298 44.866596 86.050964 44.418969 86.601586 44.418969 L 107.287528 44.418969 C 107.838149 44.418969 108.285777 44.866596 108.285777 45.417218 L 108.285777 54.195473 C 108.285777 54.746095 107.838149 55.189761 107.287528 55.189761 Z M 107.287528 55.189761 " transform="matrix(0.986101, 0, 0, -0.986101, 132.402832, 60.758641)"/>
<g fill="rgb(0%, 0%, 0%)" fill-opacity="1">
<use xlink:href="#glyph-0-4" x="226.771755" y="12.958359"/>
</g>
<g fill="rgb(0%, 0%, 0%)" fill-opacity="1">
<use xlink:href="#glyph-1-2" x="310.496698" y="14.03814"/>
<use xlink:href="#glyph-1-3" x="314.32024" y="14.03814"/>
<use xlink:href="#glyph-1-4" x="318.52201" y="14.03814"/>
<use xlink:href="#glyph-1-5" x="322.723781" y="14.03814"/>
</g>
<g fill="rgb(0%, 0%, 0%)" fill-opacity="1">
<use xlink:href="#glyph-1-6" x="325.261347" y="14.03814"/>
<use xlink:href="#glyph-1-7" x="329.084889" y="14.03814"/>
</g>
<g fill="rgb(0%, 0%, 0%)" fill-opacity="1">
<use xlink:href="#glyph-1-8" x="334.820203" y="14.03814"/>
<use xlink:href="#glyph-1-9" x="339.785306" y="14.03814"/>
</g>
<path fill-rule="nonzero" fill="rgb(100%, 100%, 100%)" fill-opacity="1" stroke-width="0.3985" stroke-linecap="butt" stroke-linejoin="miter" stroke="rgb(17.999268%, 17.999268%, 17.999268%)" stroke-opacity="1" stroke-miterlimit="10" d="M 119.900328 33.362963 L 106.305124 33.362963 C 105.754502 33.362963 105.306875 32.919296 105.306875 32.368675 L 105.306875 23.59042 C 105.306875 23.039798 105.754502 22.59217 106.305124 22.59217 L 119.900328 22.59217 C 120.450949 22.59217 120.898577 23.039798 120.898577 23.59042 L 120.898577 32.368675 C 120.898577 32.919296 120.450949 33.362963 119.900328 33.362963 Z M 119.900328 33.362963 " transform="matrix(0.986101, 0, 0, -0.986101, 132.402832, 60.758641)"/>
<g fill="rgb(0%, 0%, 0%)" fill-opacity="1">
<use xlink:href="#glyph-0-9" x="243.386578" y="34.919825"/>
</g>
<g fill="rgb(0%, 0%, 0%)" fill-opacity="1">
<use xlink:href="#glyph-1-10" x="310.496698" y="35.634748"/>
<use xlink:href="#glyph-1-9" x="312.408469" y="35.634748"/>
<use xlink:href="#glyph-1-1" x="316.610239" y="35.634748"/>
<use xlink:href="#glyph-1-7" x="320.81201" y="35.634748"/>
</g>
<g fill="rgb(0%, 0%, 0%)" fill-opacity="1">
<use xlink:href="#glyph-1-11" x="324.532399" y="35.634748"/>
</g>
<g fill="rgb(0%, 0%, 0%)" fill-opacity="1">
<use xlink:href="#glyph-1-8" x="330.267712" y="35.634748"/>
<use xlink:href="#glyph-1-9" x="335.232815" y="35.634748"/>
</g>
<path fill="none" stroke-width="0.41843" stroke-linecap="butt" stroke-linejoin="miter" stroke="rgb(37.998962%, 37.998962%, 37.998962%)" stroke-opacity="1" stroke-miterlimit="10" d="M 96.944557 44.220904 L 96.944557 16.202583 " transform="matrix(0.986101, 0, 0, -0.986101, 132.402832, 60.758641)"/>
<path fill-rule="nonzero" fill="rgb(37.998962%, 37.998962%, 37.998962%)" fill-opacity="1" stroke-width="0.41843" stroke-linecap="butt" stroke-linejoin="miter" stroke="rgb(37.998962%, 37.998962%, 37.998962%)" stroke-opacity="1" stroke-miterlimit="10" d="M 3.007478 -0.000833174 C 2.639077 0.0863156 1.014941 0.58544 0.000846778 1.1321 L 0.000846778 -1.129806 C 1.014941 -0.587107 2.639077 -0.0879819 3.007478 -0.000833174 Z M 3.007478 -0.000833174 " transform="matrix(0, 0.986101, 0.986101, 0, 228.000822, 44.780415)"/>
<path fill="none" stroke-width="0.37859" stroke-linecap="butt" stroke-linejoin="miter" stroke="rgb(37.998962%, 37.998962%, 37.998962%)" stroke-opacity="1" stroke-dasharray="0.37859 0.99628" stroke-miterlimit="10" d="M 113.102726 22.394105 L 99.788775 14.079323 " transform="matrix(0.986101, 0, 0, -0.986101, 132.402832, 60.758641)"/>
<path fill-rule="nonzero" fill="rgb(37.998962%, 37.998962%, 37.998962%)" fill-opacity="1" stroke-width="0.37859" stroke-linecap="butt" stroke-linejoin="miter" stroke="rgb(37.998962%, 37.998962%, 37.998962%)" stroke-opacity="1" stroke-miterlimit="10" d="M 2.585105 0.00110718 C 2.265114 0.0795164 0.871312 0.524962 -0.000570471 1.01342 L -0.000701274 -1.013435 C 0.872939 -0.526885 2.264329 -0.0787859 2.585105 0.00110718 Z M 2.585105 0.00110718 " transform="matrix(-0.836392, 0.522338, 0.522338, 0.836392, 230.806113, 46.875338)"/>
</svg>
