<?xml version="1.0" encoding="UTF-8"?>
<svg xmlns="http://www.w3.org/2000/svg" xmlns:xlink="http://www.w3.org/1999/xlink" width="437.474" height="64.414" viewBox="0 0 437.474 64.414">
<defs>
<g>
<g id="glyph-0-0">
<path d="M 2.078125 -3.796875 C 0.9375 -3.796875 0.234375 -3.03125 0.234375 -1.8125 C 0.234375 -0.59375 0.9375 0.15625 2.078125 0.15625 C 3.21875 0.15625 3.921875 -0.59375 3.921875 -1.78125 C 3.921875 -3.046875 3.25 -3.796875 2.078125 -3.796875 Z M 2.078125 -3.015625 C 2.625 -3.015625 2.96875 -2.53125 2.96875 -1.796875 C 2.96875 -1.109375 2.609375 -0.625 2.078125 -0.625 C 1.5625 -0.625 1.203125 -1.109375 1.203125 -1.8125 C 1.203125 -2.53125 1.5625 -3.015625 2.078125 -3.015625 Z M 2.078125 -3.015625 "/>
</g>
<g id="glyph-0-1">
<path d="M 1.421875 -5.03125 L 0.46875 -5.03125 L 0.46875 0 L 1.421875 0 Z M 1.421875 -5.03125 "/>
</g>
<g id="glyph-0-2">
<path d="M 2.796875 0 L 3.765625 0 L 3.765625 -5.03125 L 2.796875 -5.03125 L 2.796875 -3.25 C 2.5625 -3.625 2.234375 -3.796875 1.765625 -3.796875 C 0.875 -3.796875 0.203125 -2.9375 0.203125 -1.8125 C 0.203125 -1.3125 0.359375 -0.796875 0.59375 -0.4375 C 0.859375 -0.078125 1.3125 0.15625 1.765625 0.15625 C 2.234375 0.15625 2.5625 -0.015625 2.796875 -0.375 Z M 1.984375 -2.984375 C 2.46875 -2.984375 2.796875 -2.5 2.796875 -1.796875 C 2.796875 -1.125 2.46875 -0.65625 1.984375 -0.65625 C 1.5 -0.65625 1.171875 -1.125 1.171875 -1.8125 C 1.171875 -2.5 1.5 -2.984375 1.984375 -2.984375 Z M 1.984375 -2.984375 "/>
</g>
<g id="glyph-0-3">
<path d="M 2.734375 0 L 4.46875 -5.03125 L 3.421875 -5.03125 L 2.328125 -1.25 L 1.203125 -5.03125 L 0.171875 -5.03125 L 1.859375 0 Z M 2.734375 0 "/>
</g>
<g id="glyph-0-4">
<path d="M 1.421875 -3.734375 L 0.46875 -3.734375 L 0.46875 0 L 1.421875 0 Z M 1.421875 -5.03125 L 0.46875 -5.03125 L 0.46875 -4.171875 L 1.421875 -4.171875 Z M 1.421875 -5.03125 "/>
</g>
<g id="glyph-0-5">
<path d="M 0.4375 -3.734375 L 0.4375 0 L 1.40625 0 L 1.40625 -2.234375 C 1.40625 -2.671875 1.71875 -2.96875 2.1875 -2.96875 C 2.59375 -2.96875 2.796875 -2.734375 2.796875 -2.296875 L 2.796875 0 L 3.765625 0 L 3.765625 -2.5 C 3.765625 -3.328125 3.3125 -3.796875 2.515625 -3.796875 C 2.015625 -3.796875 1.671875 -3.609375 1.40625 -3.1875 L 1.40625 -3.734375 Z M 0.4375 -3.734375 "/>
</g>
<g id="glyph-0-6">
<path d="M 3.609375 -2.328125 C 3.53125 -3.25 2.921875 -3.796875 2 -3.796875 C 0.890625 -3.796875 0.234375 -3.0625 0.234375 -1.78125 C 0.234375 -0.5625 0.875 0.15625 1.984375 0.15625 C 2.890625 0.15625 3.515625 -0.40625 3.609375 -1.296875 L 2.671875 -1.296875 C 2.5625 -0.8125 2.359375 -0.625 1.984375 -0.625 C 1.5 -0.625 1.203125 -1.0625 1.203125 -1.78125 C 1.203125 -2.140625 1.265625 -2.46875 1.390625 -2.6875 C 1.5 -2.90625 1.71875 -3.015625 1.984375 -3.015625 C 2.375 -3.015625 2.5625 -2.828125 2.671875 -2.328125 Z M 3.609375 -2.328125 "/>
</g>
<g id="glyph-0-7">
<path d="M 3.625 -1.5625 C 3.625 -1.640625 3.625 -1.671875 3.625 -1.734375 C 3.625 -2.09375 3.578125 -2.4375 3.484375 -2.703125 C 3.234375 -3.390625 2.625 -3.796875 1.875 -3.796875 C 0.8125 -3.796875 0.15625 -3.015625 0.15625 -1.765625 C 0.15625 -0.578125 0.796875 0.15625 1.859375 0.15625 C 2.6875 0.15625 3.375 -0.3125 3.578125 -1.046875 L 2.625 -1.046875 C 2.515625 -0.75 2.25 -0.578125 1.890625 -0.578125 C 1.609375 -0.578125 1.390625 -0.703125 1.25 -0.90625 C 1.171875 -1.046875 1.125 -1.203125 1.125 -1.5625 Z M 1.125 -2.203125 C 1.1875 -2.765625 1.4375 -3.046875 1.859375 -3.046875 C 2.109375 -3.046875 2.328125 -2.9375 2.46875 -2.734375 C 2.5625 -2.609375 2.59375 -2.453125 2.625 -2.203125 Z M 1.125 -2.203125 "/>
</g>
<g id="glyph-0-8">
<path d="M 3.484375 -2.53125 C 3.46875 -3.3125 2.859375 -3.796875 1.859375 -3.796875 C 0.921875 -3.796875 0.328125 -3.3125 0.328125 -2.546875 C 0.328125 -2.296875 0.40625 -2.078125 0.53125 -1.9375 C 0.671875 -1.8125 0.78125 -1.75 1.140625 -1.625 L 2.296875 -1.265625 C 2.546875 -1.1875 2.625 -1.125 2.625 -0.96875 C 2.625 -0.734375 2.359375 -0.59375 1.90625 -0.59375 C 1.65625 -0.59375 1.453125 -0.65625 1.328125 -0.734375 C 1.234375 -0.8125 1.1875 -0.890625 1.140625 -1.078125 L 0.203125 -1.078125 C 0.234375 -0.265625 0.828125 0.15625 1.96875 0.15625 C 2.484375 0.15625 2.875 0.046875 3.15625 -0.171875 C 3.421875 -0.390625 3.59375 -0.734375 3.59375 -1.109375 C 3.59375 -1.59375 3.34375 -1.90625 2.859375 -2.046875 L 1.640625 -2.390625 C 1.375 -2.484375 1.296875 -2.53125 1.296875 -2.6875 C 1.296875 -2.890625 1.515625 -3.03125 1.859375 -3.03125 C 2.328125 -3.03125 2.546875 -2.859375 2.5625 -2.53125 Z M 3.484375 -2.53125 "/>
</g>
<g id="glyph-0-9">
<path d="M 4.234375 0 L 5.296875 -3.734375 L 4.28125 -3.734375 L 3.71875 -1.125 L 3.15625 -3.734375 L 2.203125 -3.734375 L 1.625 -1.125 L 1.03125 -3.734375 L 0.03125 -3.734375 L 1.078125 0 L 2.078125 0 L 2.671875 -2.625 L 3.234375 0 Z M 4.234375 0 "/>
</g>
<g id="glyph-1-0">
<path d="M 3.421875 -5.03125 L 2.84375 -5.03125 L 2.84375 -3.15625 C 2.609375 -3.53125 2.21875 -3.71875 1.734375 -3.71875 C 0.796875 -3.71875 0.171875 -2.96875 0.171875 -1.8125 C 0.171875 -0.59375 0.78125 0.15625 1.75 0.15625 C 2.25 0.15625 2.59375 -0.03125 2.90625 -0.46875 L 2.90625 0 L 3.421875 0 Z M 1.828125 -3.1875 C 2.453125 -3.1875 2.84375 -2.625 2.84375 -1.765625 C 2.84375 -0.9375 2.4375 -0.375 1.84375 -0.375 C 1.203125 -0.375 0.78125 -0.9375 0.78125 -1.78125 C 0.78125 -2.625 1.203125 -3.1875 1.828125 -3.1875 Z M 1.828125 -3.1875 "/>
</g>
<g id="glyph-1-1">
<path d="M 1.734375 -5.03125 L 0.4375 -5.03125 L 0.4375 1.46875 L 1.734375 1.46875 L 1.734375 0.96875 L 1.015625 0.96875 L 1.015625 -4.53125 L 1.734375 -4.53125 Z M 1.734375 -5.03125 "/>
</g>
<g id="glyph-1-2">
<path d="M 1.90625 -4.890625 C 1.4375 -4.890625 1.03125 -4.703125 0.78125 -4.359375 C 0.453125 -3.921875 0.296875 -3.28125 0.296875 -2.375 C 0.296875 -0.71875 0.84375 0.15625 1.90625 0.15625 C 2.9375 0.15625 3.5 -0.71875 3.5 -2.328125 C 3.5 -3.28125 3.34375 -3.921875 3.03125 -4.359375 C 2.765625 -4.703125 2.359375 -4.890625 1.90625 -4.890625 Z M 1.90625 -4.359375 C 2.5625 -4.359375 2.875 -3.6875 2.875 -2.375 C 2.875 -1 2.5625 -0.34375 1.890625 -0.34375 C 1.25 -0.34375 0.921875 -1.015625 0.921875 -2.359375 C 0.921875 -3.703125 1.25 -4.359375 1.90625 -4.359375 Z M 1.90625 -4.359375 "/>
</g>
<g id="glyph-1-3">
<path d="M 0.15625 1.46875 L 1.4375 1.46875 L 1.4375 -5.03125 L 0.15625 -5.03125 L 0.15625 -4.53125 L 0.875 -4.53125 L 0.875 0.96875 L 0.15625 0.96875 Z M 0.15625 1.46875 "/>
</g>
<g id="glyph-1-4">
<path d="M 1.78125 -3.484375 L 1.78125 0 L 2.390625 0 L 2.390625 -4.890625 L 2 -4.890625 C 1.78125 -4.140625 1.640625 -4.046875 0.703125 -3.921875 L 0.703125 -3.484375 Z M 1.78125 -3.484375 "/>
</g>
<g id="glyph-1-5">
<path d="M 3.5 -0.59375 L 0.921875 -0.59375 C 0.984375 -1 1.203125 -1.25 1.796875 -1.609375 L 2.5 -1.984375 C 3.171875 -2.359375 3.53125 -2.859375 3.53125 -3.453125 C 3.53125 -3.875 3.359375 -4.25 3.078125 -4.515625 C 2.78125 -4.765625 2.421875 -4.890625 1.96875 -4.890625 C 1.34375 -4.890625 0.875 -4.671875 0.609375 -4.265625 C 0.4375 -4 0.359375 -3.6875 0.34375 -3.203125 L 0.953125 -3.203125 C 0.96875 -3.53125 1.015625 -3.734375 1.09375 -3.890625 C 1.25 -4.1875 1.578125 -4.359375 1.9375 -4.359375 C 2.5 -4.359375 2.90625 -3.96875 2.90625 -3.453125 C 2.90625 -3.0625 2.671875 -2.734375 2.25 -2.484375 L 1.609375 -2.125 C 0.59375 -1.546875 0.296875 -1.078125 0.234375 0 L 3.5 0 Z M 3.5 -0.59375 "/>
</g>
<g id="glyph-1-6">
<path d="M 1.53125 -2.25 L 1.859375 -2.25 C 2.53125 -2.25 2.875 -1.953125 2.875 -1.359375 C 2.875 -0.75 2.5 -0.375 1.859375 -0.375 C 1.1875 -0.375 0.875 -0.71875 0.828125 -1.421875 L 0.21875 -1.421875 C 0.25 -1.03125 0.3125 -0.78125 0.4375 -0.546875 C 0.6875 -0.078125 1.171875 0.15625 1.84375 0.15625 C 2.84375 0.15625 3.5 -0.4375 3.5 -1.375 C 3.5 -1.984375 3.25 -2.328125 2.671875 -2.53125 C 3.125 -2.71875 3.34375 -3.0625 3.34375 -3.546875 C 3.34375 -4.390625 2.796875 -4.890625 1.859375 -4.890625 C 0.875 -4.890625 0.34375 -4.359375 0.328125 -3.3125 L 0.9375 -3.3125 C 0.9375 -3.609375 0.96875 -3.78125 1.046875 -3.921875 C 1.1875 -4.203125 1.484375 -4.359375 1.859375 -4.359375 C 2.40625 -4.359375 2.734375 -4.046875 2.734375 -3.53125 C 2.734375 -3.1875 2.609375 -2.984375 2.328125 -2.859375 C 2.171875 -2.796875 1.953125 -2.765625 1.53125 -2.765625 Z M 1.53125 -2.25 "/>
</g>
<g id="glyph-1-7">
<path d="M 2.265625 -1.171875 L 2.265625 0 L 2.859375 0 L 2.859375 -1.171875 L 3.59375 -1.171875 L 3.59375 -1.71875 L 2.859375 -1.71875 L 2.859375 -4.890625 L 2.421875 -4.890625 L 0.1875 -1.8125 L 0.1875 -1.171875 Z M 2.265625 -1.71875 L 0.71875 -1.71875 L 2.265625 -3.859375 Z M 2.265625 -1.71875 "/>
</g>
<g id="glyph-1-8">
<path d="M 3.28125 -4.890625 L 0.765625 -4.890625 L 0.390625 -2.234375 L 0.953125 -2.234375 C 1.234375 -2.5625 1.46875 -2.6875 1.84375 -2.6875 C 2.5 -2.6875 2.921875 -2.234375 2.921875 -1.515625 C 2.921875 -0.8125 2.515625 -0.375 1.84375 -0.375 C 1.3125 -0.375 1 -0.65625 0.84375 -1.203125 L 0.234375 -1.203125 C 0.328125 -0.796875 0.390625 -0.609375 0.53125 -0.421875 C 0.8125 -0.0625 1.3125 0.15625 1.859375 0.15625 C 2.859375 0.15625 3.546875 -0.5625 3.546875 -1.59375 C 3.546875 -2.5625 2.90625 -3.21875 1.96875 -3.21875 C 1.609375 -3.21875 1.34375 -3.140625 1.0625 -2.921875 L 1.25 -4.296875 L 3.28125 -4.296875 Z M 3.28125 -4.890625 "/>
</g>
<g id="glyph-1-9">
<path d="M 3.4375 -3.625 C 3.328125 -4.421875 2.796875 -4.890625 2.046875 -4.890625 C 1.515625 -4.890625 1.03125 -4.640625 0.734375 -4.203125 C 0.4375 -3.71875 0.296875 -3.125 0.296875 -2.234375 C 0.296875 -1.40625 0.421875 -0.890625 0.71875 -0.453125 C 0.96875 -0.0625 1.40625 0.15625 1.9375 0.15625 C 2.875 0.15625 3.546875 -0.53125 3.546875 -1.484375 C 3.546875 -2.40625 2.921875 -3.046875 2.046875 -3.046875 C 1.5625 -3.046875 1.1875 -2.859375 0.921875 -2.5 C 0.921875 -3.6875 1.3125 -4.359375 2.015625 -4.359375 C 2.4375 -4.359375 2.734375 -4.09375 2.828125 -3.625 Z M 1.96875 -2.5 C 2.5625 -2.5 2.921875 -2.09375 2.921875 -1.4375 C 2.921875 -0.828125 2.5 -0.375 1.953125 -0.375 C 1.375 -0.375 0.953125 -0.84375 0.953125 -1.484375 C 0.953125 -2.078125 1.375 -2.5 1.96875 -2.5 Z M 1.96875 -2.5 "/>
</g>
<g id="glyph-1-10">
<path d="M 3.59375 -4.890625 L 0.3125 -4.890625 L 0.3125 -4.296875 L 2.96875 -4.296875 C 1.796875 -2.625 1.3125 -1.609375 0.953125 0 L 1.609375 0 C 1.875 -1.5625 2.484375 -2.921875 3.59375 -4.390625 Z M 3.59375 -4.890625 "/>
</g>
<g id="glyph-2-0">
<path d="M 1.5625 -1.734375 C 1.5625 -1.96875 1.359375 -2.125 1.171875 -2.125 C 0.953125 -2.125 0.78125 -1.9375 0.78125 -1.734375 C 0.78125 -1.484375 0.984375 -1.328125 1.171875 -1.328125 C 1.390625 -1.328125 1.5625 -1.515625 1.5625 -1.734375 Z M 1.5625 -1.734375 "/>
</g>
</g>
</defs>
<path fill="none" stroke-width="0.41843" stroke-linecap="butt" stroke-linejoin="miter" stroke="rgb(37.998962%, 37.998962%, 37.998962%)" stroke-opacity="1" stroke-miterlimit="10" d="M 91.844161 41.158482 L 149.883029 15.974407 " transform="matrix(0.990985, 0, 0, -0.990985, 129.140099, 59.541329)"/>
<path fill-rule="nonzero" fill="rgb(37.998962%, 37.998962%, 37.998962%)" fill-opacity="1" stroke-width="0.41843" stroke-linecap="butt" stroke-linejoin="miter" stroke="rgb(37.998962%, 37.998962%, 37.998962%)" stroke-opacity="1" stroke-miterlimit="10" d="M 2.547118 -0.0013515 C 2.231556 0.072292 0.859056 0.48232 0.000403954 0.926223 L 0.000408015 -0.925832 C 0.859738 -0.479938 2.234275 -0.0726302 2.547118 -0.0013515 Z M 2.547118 -0.0013515 " transform="matrix(0.90904, 0.394412, 0.394412, -0.90904, 277.673382, 43.709002)"/>
<path fill="none" stroke-width="0.64757" stroke-linecap="butt" stroke-linejoin="miter" stroke="rgb(37.998962%, 37.998962%, 37.998962%)" stroke-opacity="1" stroke-miterlimit="10" d="M 132.661363 41.158482 L 132.661363 17.953184 " transform="matrix(0.990985, 0, 0, -0.990985, 129.140099, 59.541329)"/>
<path fill-rule="nonzero" fill="rgb(37.998962%, 37.998962%, 37.998962%)" fill-opacity="1" stroke-width="0.64757" stroke-linecap="butt" stroke-linejoin="miter" stroke="rgb(37.998962%, 37.998962%, 37.998962%)" stroke-opacity="1" stroke-miterlimit="10" d="M 1.920737 -0.00190699 C 1.684229 0.0572198 0.64754 0.380446 0.0010865 0.735207 L 0.0010865 -0.735079 C 0.64754 -0.380319 1.684229 -0.057092 1.920737 -0.00190699 Z M 1.920737 -0.00190699 " transform="matrix(0, 0.990985, 0.990985, 0, 260.607359, 41.748923)"/>
<path fill="none" stroke-width="0.41843" stroke-linecap="butt" stroke-linejoin="miter" stroke="rgb(37.998962%, 37.998962%, 37.998962%)" stroke-opacity="1" stroke-miterlimit="10" d="M 30.616388 41.158482 L 108.947574 15.666947 " transform="matrix(0.990985, 0, 0, -0.990985, 129.140099, 59.541329)"/>
<path fill-rule="nonzero" fill="rgb(37.998962%, 37.998962%, 37.998962%)" fill-opacity="1" stroke-width="0.41843" stroke-linecap="butt" stroke-linejoin="miter" stroke="rgb(37.998962%, 37.998962%, 37.998962%)" stroke-opacity="1" stroke-miterlimit="10" d="M 2.544036 0.00126494 C 2.230422 0.0733151 0.858393 0.480779 0.000219374 0.926949 L 0.00192723 -0.925434 C 0.860244 -0.480324 2.23188 -0.071295 2.544036 0.00126494 Z M 2.544036 0.00126494 " transform="matrix(0.942337, 0.30664, 0.30664, -0.942337, 237.106178, 44.014056)"/>
<path fill="none" stroke-width="0.64757" stroke-linecap="butt" stroke-linejoin="miter" stroke="rgb(37.998962%, 37.998962%, 37.998962%)" stroke-opacity="1" stroke-miterlimit="10" d="M 91.844161 41.158482 L 91.844161 17.953184 " transform="matrix(0.990985, 0, 0, -0.990985, 129.140099, 59.541329)"/>
<path fill-rule="nonzero" fill="rgb(37.998962%, 37.998962%, 37.998962%)" fill-opacity="1" stroke-width="0.64757" stroke-linecap="butt" stroke-linejoin="miter" stroke="rgb(37.998962%, 37.998962%, 37.998962%)" stroke-opacity="1" stroke-miterlimit="10" d="M 1.920737 0.000361487 C 1.684229 0.0555465 0.64754 0.382715 0.0010865 0.733534 L 0.0010865 -0.732811 C 0.64754 -0.381992 1.684229 -0.0587653 1.920737 0.000361487 Z M 1.920737 0.000361487 " transform="matrix(0, 0.990985, 0.990985, 0, 220.155892, 41.748923)"/>
<path fill="none" stroke-width="0.41843" stroke-linecap="butt" stroke-linejoin="miter" stroke="rgb(37.998962%, 37.998962%, 37.998962%)" stroke-opacity="1" stroke-miterlimit="10" d="M 10.205817 41.158482 L 68.244684 15.974407 " transform="matrix(0.990985, 0, 0, -0.990985, 129.140099, 59.541329)"/>
<path fill-rule="nonzero" fill="rgb(37.998962%, 37.998962%, 37.998962%)" fill-opacity="1" stroke-width="0.41843" stroke-linecap="butt" stroke-linejoin="miter" stroke="rgb(37.998962%, 37.998962%, 37.998962%)" stroke-opacity="1" stroke-miterlimit="10" d="M 2.547673 -0.0011106 C 2.232111 0.0725329 0.859611 0.482561 0.000959161 0.926464 L 0.000963222 -0.925591 C 0.860293 -0.479697 2.23483 -0.0723893 2.547673 -0.0011106 Z M 2.547673 -0.0011106 " transform="matrix(0.90904, 0.394412, 0.394412, -0.90904, 196.770439, 43.709002)"/>
<path fill="none" stroke-width="0.64757" stroke-linecap="butt" stroke-linejoin="miter" stroke="rgb(37.998962%, 37.998962%, 37.998962%)" stroke-opacity="1" stroke-miterlimit="10" d="M 51.023018 41.158482 L 51.023018 17.953184 " transform="matrix(0.990985, 0, 0, -0.990985, 129.140099, 59.541329)"/>
<path fill-rule="nonzero" fill="rgb(37.998962%, 37.998962%, 37.998962%)" fill-opacity="1" stroke-width="0.64757" stroke-linecap="butt" stroke-linejoin="miter" stroke="rgb(37.998962%, 37.998962%, 37.998962%)" stroke-opacity="1" stroke-miterlimit="10" d="M 1.920737 -0.00130182 C 1.684229 0.057825 0.64754 0.381051 0.0010865 0.731871 L 0.0010865 -0.734474 C 0.64754 -0.379713 1.684229 -0.0564868 1.920737 -0.00130182 Z M 1.920737 -0.00130182 " transform="matrix(0, 0.990985, 0.990985, 0, 179.704415, 41.748923)"/>
<path fill="none" stroke-width="0.41843" stroke-linecap="butt" stroke-linejoin="miter" stroke="rgb(37.998962%, 37.998962%, 37.998962%)" stroke-opacity="1" stroke-miterlimit="10" d="M 71.43359 41.158482 L 33.529369 16.490781 " transform="matrix(0.990985, 0, 0, -0.990985, 129.140099, 59.541329)"/>
<path fill-rule="nonzero" fill="rgb(37.998962%, 37.998962%, 37.998962%)" fill-opacity="1" stroke-width="0.41843" stroke-linecap="butt" stroke-linejoin="miter" stroke="rgb(37.998962%, 37.998962%, 37.998962%)" stroke-opacity="1" stroke-miterlimit="10" d="M 2.547305 0.000139943 C 2.232705 0.0732 0.8582 0.483334 -0.00168605 0.925392 L -0.000945662 -0.923464 C 0.860117 -0.482078 2.232124 -0.0722226 2.547305 0.000139943 Z M 2.547305 0.000139943 " transform="matrix(-0.830544, 0.540542, 0.540542, 0.830544, 162.365573, 43.201082)"/>
<path fill="none" stroke-width="0.64757" stroke-linecap="butt" stroke-linejoin="miter" stroke="rgb(37.998962%, 37.998962%, 37.998962%)" stroke-opacity="1" stroke-miterlimit="10" d="M 10.205817 41.158482 L 10.205817 17.953184 " transform="matrix(0.990985, 0, 0, -0.990985, 129.140099, 59.541329)"/>
<path fill-rule="nonzero" fill="rgb(37.998962%, 37.998962%, 37.998962%)" fill-opacity="1" stroke-width="0.64757" stroke-linecap="butt" stroke-linejoin="miter" stroke="rgb(37.998962%, 37.998962%, 37.998962%)" stroke-opacity="1" stroke-miterlimit="10" d="M 1.920737 0.000966659 C 1.684229 0.0561517 0.64754 0.379378 0.0010865 0.734139 L 0.0010865 -0.732206 C 0.64754 -0.381387 1.684229 -0.0581601 1.920737 0.000966659 Z M 1.920737 0.000966659 " transform="matrix(0, 0.990985, 0.990985, 0, 139.252948, 41.748923)"/>
<g fill="rgb(0%, 0%, 0%)" fill-opacity="1">
<use xlink:href="#glyph-0-0" x="310.612175" y="14.852877"/>
<use xlink:href="#glyph-0-1" x="314.834752" y="14.852877"/>
<use xlink:href="#glyph-0-2" x="316.75599" y="14.852877"/>
</g>
<g fill="rgb(0%, 0%, 0%)" fill-opacity="1">
<use xlink:href="#glyph-0-3" x="322.899806" y="14.852877"/>
<use xlink:href="#glyph-0-2" x="327.509395" y="14.852877"/>
</g>
<path fill-rule="nonzero" fill="rgb(96.998596%, 96.998596%, 96.998596%)" fill-opacity="1" stroke-width="0.44832" stroke-linecap="butt" stroke-linejoin="miter" stroke="rgb(17.999268%, 17.999268%, 17.999268%)" stroke-opacity="1" stroke-miterlimit="10" d="M 142.866649 41.158482 L 142.866649 53.882569 L 163.27722 53.882569 L 163.27722 41.158482 Z M 142.866649 41.158482 " transform="matrix(0.990985, 0, 0, -0.990985, 129.140099, 59.541329)"/>
<g fill="rgb(0%, 0%, 0%)" fill-opacity="1">
<use xlink:href="#glyph-1-0" x="275.067538" y="14.234503"/>
<use xlink:href="#glyph-1-1" x="278.910015" y="14.234503"/>
<use xlink:href="#glyph-1-2" x="280.831253" y="14.234503"/>
<use xlink:href="#glyph-1-3" x="284.673729" y="14.234503"/>
</g>
<path fill-rule="nonzero" fill="rgb(96.998596%, 96.998596%, 96.998596%)" fill-opacity="1" stroke-width="0.44832" stroke-linecap="butt" stroke-linejoin="miter" stroke="rgb(17.999268%, 17.999268%, 17.999268%)" stroke-opacity="1" stroke-miterlimit="10" d="M 122.460019 41.158482 L 122.460019 53.882569 L 142.866649 53.882569 L 142.866649 41.158482 Z M 122.460019 41.158482 " transform="matrix(0.990985, 0, 0, -0.990985, 129.140099, 59.541329)"/>
<g fill="rgb(0%, 0%, 0%)" fill-opacity="1">
<use xlink:href="#glyph-1-0" x="254.842533" y="14.234503"/>
<use xlink:href="#glyph-1-1" x="258.68501" y="14.234503"/>
<use xlink:href="#glyph-1-4" x="260.606248" y="14.234503"/>
<use xlink:href="#glyph-1-3" x="264.448724" y="14.234503"/>
</g>
<path fill-rule="nonzero" fill="rgb(96.998596%, 96.998596%, 96.998596%)" fill-opacity="1" stroke-width="0.44832" stroke-linecap="butt" stroke-linejoin="miter" stroke="rgb(17.999268%, 17.999268%, 17.999268%)" stroke-opacity="1" stroke-miterlimit="10" d="M 102.049447 41.158482 L 102.049447 53.882569 L 122.460019 53.882569 L 122.460019 41.158482 Z M 102.049447 41.158482 " transform="matrix(0.990985, 0, 0, -0.990985, 129.140099, 59.541329)"/>
<g fill="rgb(0%, 0%, 0%)" fill-opacity="1">
<use xlink:href="#glyph-1-0" x="234.616537" y="14.234503"/>
<use xlink:href="#glyph-1-1" x="238.459014" y="14.234503"/>
<use xlink:href="#glyph-1-5" x="240.380252" y="14.234503"/>
<use xlink:href="#glyph-1-3" x="244.222728" y="14.234503"/>
</g>
<path fill-rule="nonzero" fill="rgb(96.998596%, 96.998596%, 96.998596%)" fill-opacity="1" stroke-width="0.44832" stroke-linecap="butt" stroke-linejoin="miter" stroke="rgb(17.999268%, 17.999268%, 17.999268%)" stroke-opacity="1" stroke-miterlimit="10" d="M 81.638876 41.158482 L 81.638876 53.882569 L 102.049447 53.882569 L 102.049447 41.158482 Z M 81.638876 41.158482 " transform="matrix(0.990985, 0, 0, -0.990985, 129.140099, 59.541329)"/>
<g fill="rgb(0%, 0%, 0%)" fill-opacity="1">
<use xlink:href="#glyph-1-0" x="214.391532" y="14.234503"/>
<use xlink:href="#glyph-1-1" x="218.234009" y="14.234503"/>
<use xlink:href="#glyph-1-6" x="220.155247" y="14.234503"/>
<use xlink:href="#glyph-1-3" x="223.997723" y="14.234503"/>
</g>
<path fill-rule="nonzero" fill="rgb(96.998596%, 96.998596%, 96.998596%)" fill-opacity="1" stroke-width="0.44832" stroke-linecap="butt" stroke-linejoin="miter" stroke="rgb(17.999268%, 17.999268%, 17.999268%)" stroke-opacity="1" stroke-miterlimit="10" d="M 61.228304 41.158482 L 61.228304 53.882569 L 81.638876 53.882569 L 81.638876 41.158482 Z M 61.228304 41.158482 " transform="matrix(0.990985, 0, 0, -0.990985, 129.140099, 59.541329)"/>
<g fill="rgb(0%, 0%, 0%)" fill-opacity="1">
<use xlink:href="#glyph-1-0" x="194.165536" y="14.234503"/>
<use xlink:href="#glyph-1-1" x="198.008013" y="14.234503"/>
<use xlink:href="#glyph-1-7" x="199.929251" y="14.234503"/>
<use xlink:href="#glyph-1-3" x="203.771727" y="14.234503"/>
</g>
<path fill-rule="nonzero" fill="rgb(96.998596%, 96.998596%, 96.998596%)" fill-opacity="1" stroke-width="0.44832" stroke-linecap="butt" stroke-linejoin="miter" stroke="rgb(17.999268%, 17.999268%, 17.999268%)" stroke-opacity="1" stroke-miterlimit="10" d="M 40.817732 41.158482 L 40.817732 53.882569 L 61.228304 53.882569 L 61.228304 41.158482 Z M 40.817732 41.158482 " transform="matrix(0.990985, 0, 0, -0.990985, 129.140099, 59.541329)"/>
<g fill="rgb(0%, 0%, 0%)" fill-opacity="1">
<use xlink:href="#glyph-1-0" x="173.940531" y="14.234503"/>
<use xlink:href="#glyph-1-1" x="177.783008" y="14.234503"/>
<use xlink:href="#glyph-1-8" x="179.704246" y="14.234503"/>
<use xlink:href="#glyph-1-3" x="183.546722" y="14.234503"/>
</g>
<path fill-rule="nonzero" fill="rgb(96.998596%, 96.998596%, 96.998596%)" fill-opacity="1" stroke-width="0.44832" stroke-linecap="butt" stroke-linejoin="miter" stroke="rgb(17.999268%, 17.999268%, 17.999268%)" stroke-opacity="1" stroke-miterlimit="10" d="M 20.411102 41.158482 L 20.411102 53.882569 L 40.817732 53.882569 L 40.817732 41.158482 Z M 20.411102 41.158482 " transform="matrix(0.990985, 0, 0, -0.990985, 129.140099, 59.541329)"/>
<g fill="rgb(0%, 0%, 0%)" fill-opacity="1">
<use xlink:href="#glyph-1-0" x="153.714535" y="14.234503"/>
<use xlink:href="#glyph-1-1" x="157.557012" y="14.234503"/>
<use xlink:href="#glyph-1-9" x="159.47825" y="14.234503"/>
<use xlink:href="#glyph-1-3" x="163.320726" y="14.234503"/>
</g>
<path fill-rule="nonzero" fill="rgb(96.998596%, 96.998596%, 96.998596%)" fill-opacity="1" stroke-width="0.44832" stroke-linecap="butt" stroke-linejoin="miter" stroke="rgb(17.999268%, 17.999268%, 17.999268%)" stroke-opacity="1" stroke-miterlimit="10" d="M 0.000530832 41.158482 L 0.000530832 53.882569 L 20.411102 53.882569 L 20.411102 41.158482 Z M 0.000530832 41.158482 " transform="matrix(0.990985, 0, 0, -0.990985, 129.140099, 59.541329)"/>
<g fill="rgb(0%, 0%, 0%)" fill-opacity="1">
<use xlink:href="#glyph-1-0" x="133.48953" y="14.234503"/>
<use xlink:href="#glyph-1-1" x="137.332007" y="14.234503"/>
<use xlink:href="#glyph-1-10" x="139.253245" y="14.234503"/>
<use xlink:href="#glyph-1-3" x="143.095721" y="14.234503"/>
</g>
<path fill="none" stroke-width="0.41843" stroke-linecap="butt" stroke-linejoin="miter" stroke="rgb(37.998962%, 37.998962%, 37.998962%)" stroke-opacity="1" stroke-dasharray="2.98883 1.99255" stroke-miterlimit="10" d="M -40.820612 41.158482 L 0.000530832 41.158482 " transform="matrix(0.990985, 0, 0, -0.990985, 129.140099, 59.541329)"/>
<path fill="none" stroke-width="0.41843" stroke-linecap="butt" stroke-linejoin="miter" stroke="rgb(37.998962%, 37.998962%, 37.998962%)" stroke-opacity="1" stroke-dasharray="2.98883 1.99255" stroke-miterlimit="10" d="M -40.820612 53.882569 L 0.000530832 53.882569 " transform="matrix(0.990985, 0, 0, -0.990985, 129.140099, 59.541329)"/>
<g fill="rgb(37.998962%, 37.998962%, 37.998962%)" fill-opacity="1">
<use xlink:href="#glyph-2-0" x="103.374499" y="14.057117"/>
</g>
<g fill="rgb(37.998962%, 37.998962%, 37.998962%)" fill-opacity="1">
<use xlink:href="#glyph-2-0" x="107.067008" y="14.057117"/>
</g>
<g fill="rgb(37.998962%, 37.998962%, 37.998962%)" fill-opacity="1">
<use xlink:href="#glyph-2-0" x="110.759517" y="14.057117"/>
</g>
<g fill="rgb(0%, 0%, 0%)" fill-opacity="1">
<use xlink:href="#glyph-0-4" x="310.612175" y="34.394103"/>
<use xlink:href="#glyph-0-5" x="312.533413" y="34.394103"/>
<use xlink:href="#glyph-0-2" x="316.75599" y="34.394103"/>
<use xlink:href="#glyph-0-4" x="320.978567" y="34.394103"/>
<use xlink:href="#glyph-0-6" x="322.899806" y="34.394103"/>
<use xlink:href="#glyph-0-7" x="326.742282" y="34.394103"/>
<use xlink:href="#glyph-0-8" x="330.584758" y="34.394103"/>
</g>
<g fill="rgb(0%, 0%, 0%)" fill-opacity="1">
<use xlink:href="#glyph-0-3" x="336.348472" y="34.394103"/>
<use xlink:href="#glyph-0-5" x="340.958062" y="34.394103"/>
</g>
<path fill-rule="nonzero" fill="rgb(96.998596%, 96.998596%, 96.998596%)" fill-opacity="1" stroke-width="0.44832" stroke-linecap="butt" stroke-linejoin="miter" stroke="rgb(17.999268%, 17.999268%, 17.999268%)" stroke-opacity="1" stroke-miterlimit="10" d="M 142.866649 21.516559 L 142.866649 34.236704 L 163.27722 34.236704 L 163.27722 21.516559 Z M 142.866649 21.516559 " transform="matrix(0.990985, 0, 0, -0.990985, 129.140099, 59.541329)"/>
<g fill="rgb(0%, 0%, 0%)" fill-opacity="1">
<use xlink:href="#glyph-1-6" x="278.909586" y="34.307887"/>
</g>
<path fill-rule="nonzero" fill="rgb(100%, 100%, 100%)" fill-opacity="1" stroke-width="0.44832" stroke-linecap="butt" stroke-linejoin="miter" stroke="rgb(17.999268%, 17.999268%, 17.999268%)" stroke-opacity="1" stroke-dasharray="2.98883 1.99255" stroke-miterlimit="10" d="M 122.460019 21.516559 L 122.460019 34.236704 L 142.866649 34.236704 L 142.866649 21.516559 Z M 122.460019 21.516559 " transform="matrix(0.990985, 0, 0, -0.990985, 129.140099, 59.541329)"/>
<g fill="rgb(0%, 0%, 0%)" fill-opacity="1">
<use xlink:href="#glyph-1-2" x="258.684581" y="34.307887"/>
</g>
<path fill-rule="nonzero" fill="rgb(96.998596%, 96.998596%, 96.998596%)" fill-opacity="1" stroke-width="0.44832" stroke-linecap="butt" stroke-linejoin="miter" stroke="rgb(17.999268%, 17.999268%, 17.999268%)" stroke-opacity="1" stroke-miterlimit="10" d="M 102.049447 21.516559 L 102.049447 34.236704 L 122.460019 34.236704 L 122.460019 21.516559 Z M 102.049447 21.516559 " transform="matrix(0.990985, 0, 0, -0.990985, 129.140099, 59.541329)"/>
<g fill="rgb(0%, 0%, 0%)" fill-opacity="1">
<use xlink:href="#glyph-1-9" x="238.458585" y="34.307887"/>
</g>
<path fill-rule="nonzero" fill="rgb(100%, 100%, 100%)" fill-opacity="1" stroke-width="0.44832" stroke-linecap="butt" stroke-linejoin="miter" stroke="rgb(17.999268%, 17.999268%, 17.999268%)" stroke-opacity="1" stroke-dasharray="2.98883 1.99255" stroke-miterlimit="10" d="M 81.638876 21.516559 L 81.638876 34.236704 L 102.049447 34.236704 L 102.049447 21.516559 Z M 81.638876 21.516559 " transform="matrix(0.990985, 0, 0, -0.990985, 129.140099, 59.541329)"/>
<g fill="rgb(0%, 0%, 0%)" fill-opacity="1">
<use xlink:href="#glyph-1-4" x="218.23358" y="34.378247"/>
</g>
<path fill-rule="nonzero" fill="rgb(96.998596%, 96.998596%, 96.998596%)" fill-opacity="1" stroke-width="0.44832" stroke-linecap="butt" stroke-linejoin="miter" stroke="rgb(17.999268%, 17.999268%, 17.999268%)" stroke-opacity="1" stroke-miterlimit="10" d="M 61.228304 21.516559 L 61.228304 34.236704 L 81.638876 34.236704 L 81.638876 21.516559 Z M 61.228304 21.516559 " transform="matrix(0.990985, 0, 0, -0.990985, 129.140099, 59.541329)"/>
<g fill="rgb(0%, 0%, 0%)" fill-opacity="1">
<use xlink:href="#glyph-1-10" x="198.007584" y="34.261311"/>
</g>
<path fill-rule="nonzero" fill="rgb(100%, 100%, 100%)" fill-opacity="1" stroke-width="0.44832" stroke-linecap="butt" stroke-linejoin="miter" stroke="rgb(17.999268%, 17.999268%, 17.999268%)" stroke-opacity="1" stroke-dasharray="2.98883 1.99255" stroke-miterlimit="10" d="M 40.817732 21.516559 L 40.817732 34.236704 L 61.228304 34.236704 L 61.228304 21.516559 Z M 40.817732 21.516559 " transform="matrix(0.990985, 0, 0, -0.990985, 129.140099, 59.541329)"/>
<g fill="rgb(0%, 0%, 0%)" fill-opacity="1">
<use xlink:href="#glyph-1-5" x="177.782579" y="34.378247"/>
</g>
<path fill-rule="nonzero" fill="rgb(96.998596%, 96.998596%, 96.998596%)" fill-opacity="1" stroke-width="0.44832" stroke-linecap="butt" stroke-linejoin="miter" stroke="rgb(17.999268%, 17.999268%, 17.999268%)" stroke-opacity="1" stroke-miterlimit="10" d="M 20.411102 21.516559 L 20.411102 34.236704 L 40.817732 34.236704 L 40.817732 21.516559 Z M 20.411102 21.516559 " transform="matrix(0.990985, 0, 0, -0.990985, 129.140099, 59.541329)"/>
<g fill="rgb(0%, 0%, 0%)" fill-opacity="1">
<use xlink:href="#glyph-1-7" x="157.557574" y="34.378247"/>
</g>
<path fill-rule="nonzero" fill="rgb(100%, 100%, 100%)" fill-opacity="1" stroke-width="0.44832" stroke-linecap="butt" stroke-linejoin="miter" stroke="rgb(17.999268%, 17.999268%, 17.999268%)" stroke-opacity="1" stroke-dasharray="2.98883 1.99255" stroke-miterlimit="10" d="M 0.000530832 21.516559 L 0.000530832 34.236704 L 20.411102 34.236704 L 20.411102 21.516559 Z M 0.000530832 21.516559 " transform="matrix(0.990985, 0, 0, -0.990985, 129.140099, 59.541329)"/>
<g fill="rgb(0%, 0%, 0%)" fill-opacity="1">
<use xlink:href="#glyph-1-8" x="137.331578" y="34.18996"/>
</g>
<path fill="none" stroke-width="0.41843" stroke-linecap="butt" stroke-linejoin="miter" stroke="rgb(37.998962%, 37.998962%, 37.998962%)" stroke-opacity="1" stroke-dasharray="2.98883 1.99255" stroke-miterlimit="10" d="M -40.820612 21.516559 L 0.000530832 21.516559 " transform="matrix(0.990985, 0, 0, -0.990985, 129.140099, 59.541329)"/>
<path fill="none" stroke-width="0.41843" stroke-linecap="butt" stroke-linejoin="miter" stroke="rgb(37.998962%, 37.998962%, 37.998962%)" stroke-opacity="1" stroke-dasharray="2.98883 1.99255" stroke-miterlimit="10" d="M -40.820612 34.236704 L 0.000530832 34.236704 " transform="matrix(0.990985, 0, 0, -0.990985, 129.140099, 59.541329)"/>
<g fill="rgb(37.998962%, 37.998962%, 37.998962%)" fill-opacity="1">
<use xlink:href="#glyph-2-0" x="103.374499" y="33.524019"/>
</g>
<g fill="rgb(37.998962%, 37.998962%, 37.998962%)" fill-opacity="1">
<use xlink:href="#glyph-2-0" x="107.067008" y="33.524019"/>
</g>
<g fill="rgb(37.998962%, 37.998962%, 37.998962%)" fill-opacity="1">
<use xlink:href="#glyph-2-0" x="110.759517" y="33.524019"/>
</g>
<g fill="rgb(0%, 0%, 0%)" fill-opacity="1">
<use xlink:href="#glyph-0-5" x="310.612175" y="53.786681"/>
<use xlink:href="#glyph-0-7" x="314.834752" y="53.786681"/>
</g>
<g fill="rgb(0%, 0%, 0%)" fill-opacity="1">
<use xlink:href="#glyph-0-9" x="318.573564" y="53.786681"/>
</g>
<g fill="rgb(0%, 0%, 0%)" fill-opacity="1">
<use xlink:href="#glyph-0-3" x="325.871505" y="53.786681"/>
<use xlink:href="#glyph-0-2" x="330.481094" y="53.786681"/>
</g>
<path fill-rule="nonzero" fill="rgb(96.998596%, 96.998596%, 96.998596%)" fill-opacity="1" stroke-width="0.44832" stroke-linecap="butt" stroke-linejoin="miter" stroke="rgb(17.999268%, 17.999268%, 17.999268%)" stroke-opacity="1" stroke-miterlimit="10" d="M 142.866649 1.870694 L 142.866649 14.594781 L 163.27722 14.594781 L 163.27722 1.870694 Z M 142.866649 1.870694 " transform="matrix(0.990985, 0, 0, -0.990985, 129.140099, 59.541329)"/>
<g fill="rgb(0%, 0%, 0%)" fill-opacity="1">
<use xlink:href="#glyph-1-0" x="275.067538" y="53.168307"/>
<use xlink:href="#glyph-1-1" x="278.910015" y="53.168307"/>
<use xlink:href="#glyph-1-6" x="280.831253" y="53.168307"/>
<use xlink:href="#glyph-1-3" x="284.673729" y="53.168307"/>
</g>
<path fill-rule="nonzero" fill="rgb(100%, 100%, 100%)" fill-opacity="1" stroke-width="0.44832" stroke-linecap="butt" stroke-linejoin="miter" stroke="rgb(17.999268%, 17.999268%, 17.999268%)" stroke-opacity="1" stroke-dasharray="2.98883 1.99255" stroke-miterlimit="10" d="M 122.460019 1.870694 L 122.460019 14.594781 L 142.866649 14.594781 L 142.866649 1.870694 Z M 122.460019 1.870694 " transform="matrix(0.990985, 0, 0, -0.990985, 129.140099, 59.541329)"/>
<g fill="rgb(0%, 0%, 0%)" fill-opacity="1">
<use xlink:href="#glyph-1-0" x="254.842533" y="53.168307"/>
<use xlink:href="#glyph-1-1" x="258.68501" y="53.168307"/>
<use xlink:href="#glyph-1-4" x="260.606248" y="53.168307"/>
<use xlink:href="#glyph-1-3" x="264.448724" y="53.168307"/>
</g>
<path fill-rule="nonzero" fill="rgb(96.998596%, 96.998596%, 96.998596%)" fill-opacity="1" stroke-width="0.44832" stroke-linecap="butt" stroke-linejoin="miter" stroke="rgb(17.999268%, 17.999268%, 17.999268%)" stroke-opacity="1" stroke-miterlimit="10" d="M 102.049447 1.870694 L 102.049447 14.594781 L 122.460019 14.594781 L 122.460019 1.870694 Z M 102.049447 1.870694 " transform="matrix(0.990985, 0, 0, -0.990985, 129.140099, 59.541329)"/>
<g fill="rgb(0%, 0%, 0%)" fill-opacity="1">
<use xlink:href="#glyph-1-0" x="234.616537" y="53.168307"/>
<use xlink:href="#glyph-1-1" x="238.459014" y="53.168307"/>
<use xlink:href="#glyph-1-9" x="240.380252" y="53.168307"/>
<use xlink:href="#glyph-1-3" x="244.222728" y="53.168307"/>
</g>
<path fill-rule="nonzero" fill="rgb(100%, 100%, 100%)" fill-opacity="1" stroke-width="0.44832" stroke-linecap="butt" stroke-linejoin="miter" stroke="rgb(17.999268%, 17.999268%, 17.999268%)" stroke-opacity="1" stroke-dasharray="2.98883 1.99255" stroke-miterlimit="10" d="M 81.638876 1.870694 L 81.638876 14.594781 L 102.049447 14.594781 L 102.049447 1.870694 Z M 81.638876 1.870694 " transform="matrix(0.990985, 0, 0, -0.990985, 129.140099, 59.541329)"/>
<g fill="rgb(0%, 0%, 0%)" fill-opacity="1">
<use xlink:href="#glyph-1-0" x="214.391532" y="53.168307"/>
<use xlink:href="#glyph-1-1" x="218.234009" y="53.168307"/>
<use xlink:href="#glyph-1-6" x="220.155247" y="53.168307"/>
<use xlink:href="#glyph-1-3" x="223.997723" y="53.168307"/>
</g>
<path fill-rule="nonzero" fill="rgb(96.998596%, 96.998596%, 96.998596%)" fill-opacity="1" stroke-width="0.44832" stroke-linecap="butt" stroke-linejoin="miter" stroke="rgb(17.999268%, 17.999268%, 17.999268%)" stroke-opacity="1" stroke-miterlimit="10" d="M 61.228304 1.870694 L 61.228304 14.594781 L 81.638876 14.594781 L 81.638876 1.870694 Z M 61.228304 1.870694 " transform="matrix(0.990985, 0, 0, -0.990985, 129.140099, 59.541329)"/>
<g fill="rgb(0%, 0%, 0%)" fill-opacity="1">
<use xlink:href="#glyph-1-0" x="194.165536" y="53.168307"/>
<use xlink:href="#glyph-1-1" x="198.008013" y="53.168307"/>
<use xlink:href="#glyph-1-10" x="199.929251" y="53.168307"/>
<use xlink:href="#glyph-1-3" x="203.771727" y="53.168307"/>
</g>
<path fill-rule="nonzero" fill="rgb(100%, 100%, 100%)" fill-opacity="1" stroke-width="0.44832" stroke-linecap="butt" stroke-linejoin="miter" stroke="rgb(17.999268%, 17.999268%, 17.999268%)" stroke-opacity="1" stroke-dasharray="2.98883 1.99255" stroke-miterlimit="10" d="M 40.817732 1.870694 L 40.817732 14.594781 L 61.228304 14.594781 L 61.228304 1.870694 Z M 40.817732 1.870694 " transform="matrix(0.990985, 0, 0, -0.990985, 129.140099, 59.541329)"/>
<g fill="rgb(0%, 0%, 0%)" fill-opacity="1">
<use xlink:href="#glyph-1-0" x="173.940531" y="53.168307"/>
<use xlink:href="#glyph-1-1" x="177.783008" y="53.168307"/>
<use xlink:href="#glyph-1-8" x="179.704246" y="53.168307"/>
<use xlink:href="#glyph-1-3" x="183.546722" y="53.168307"/>
</g>
<path fill-rule="nonzero" fill="rgb(96.998596%, 96.998596%, 96.998596%)" fill-opacity="1" stroke-width="0.44832" stroke-linecap="butt" stroke-linejoin="miter" stroke="rgb(17.999268%, 17.999268%, 17.999268%)" stroke-opacity="1" stroke-miterlimit="10" d="M 20.411102 1.870694 L 20.411102 14.594781 L 40.817732 14.594781 L 40.817732 1.870694 Z M 20.411102 1.870694 " transform="matrix(0.990985, 0, 0, -0.990985, 129.140099, 59.541329)"/>
<g fill="rgb(0%, 0%, 0%)" fill-opacity="1">
<use xlink:href="#glyph-1-0" x="153.714535" y="53.168307"/>
<use xlink:href="#glyph-1-1" x="157.557012" y="53.168307"/>
<use xlink:href="#glyph-1-7" x="159.47825" y="53.168307"/>
<use xlink:href="#glyph-1-3" x="163.320726" y="53.168307"/>
</g>
<path fill-rule="nonzero" fill="rgb(100%, 100%, 100%)" fill-opacity="1" stroke-width="0.44832" stroke-linecap="butt" stroke-linejoin="miter" stroke="rgb(17.999268%, 17.999268%, 17.999268%)" stroke-opacity="1" stroke-dasharray="2.98883 1.99255" stroke-miterlimit="10" d="M 0.000530832 1.870694 L 0.000530832 14.594781 L 20.411102 14.594781 L 20.411102 1.870694 Z M 0.000530832 1.870694 " transform="matrix(0.990985, 0, 0, -0.990985, 129.140099, 59.541329)"/>
<g fill="rgb(0%, 0%, 0%)" fill-opacity="1">
<use xlink:href="#glyph-1-0" x="133.48953" y="53.168307"/>
<use xlink:href="#glyph-1-1" x="137.332007" y="53.168307"/>
<use xlink:href="#glyph-1-10" x="139.253245" y="53.168307"/>
<use xlink:href="#glyph-1-3" x="143.095721" y="53.168307"/>
</g>
<path fill="none" stroke-width="0.41843" stroke-linecap="butt" stroke-linejoin="miter" stroke="rgb(37.998962%, 37.998962%, 37.998962%)" stroke-opacity="1" stroke-dasharray="2.98883 1.99255" stroke-miterlimit="10" d="M -40.820612 1.870694 L 0.000530832 1.870694 " transform="matrix(0.990985, 0, 0, -0.990985, 129.140099, 59.541329)"/>
<path fill="none" stroke-width="0.41843" stroke-linecap="butt" stroke-linejoin="miter" stroke="rgb(37.998962%, 37.998962%, 37.998962%)" stroke-opacity="1" stroke-dasharray="2.98883 1.99255" stroke-miterlimit="10" d="M -40.820612 14.594781 L 0.000530832 14.594781 " transform="matrix(0.990985, 0, 0, -0.990985, 129.140099, 59.541329)"/>
<g fill="rgb(37.998962%, 37.998962%, 37.998962%)" fill-opacity="1">
<use xlink:href="#glyph-2-0" x="103.374499" y="52.99092"/>
</g>
<g fill="rgb(37.998962%, 37.998962%, 37.998962%)" fill-opacity="1">
<use xlink:href="#glyph-2-0" x="107.067008" y="52.99092"/>
</g>
<g fill="rgb(37.998962%, 37.998962%, 37.998962%)" fill-opacity="1">
<use xlink:href="#glyph-2-0" x="110.759517" y="52.99092"/>
</g>
</svg>
